STARTFONT 2.1
FONT -FontForge-Arial-Book-R-Normal--21-200-75-75-P-107-ISO10646-1
SIZE 20 75 75
FONTBOUNDINGBOX 57 30 -15 -7
COMMENT "Generated by fontforge, http://fontforge.sourceforge.net"
COMMENT "(c) 2017 The Monotype Corporation. All Rights Reserved. "
COMMENT ""
COMMENT "Hebrew OpenType Layout logic copyright (c) 2003 & 2007, Ralph Hancock & John Hudson. This layout logic for Biblical Hebrew is open source software under the MIT License; see embedded license description for details."
STARTPROPERTIES 40
FOUNDRY "FontForge"
FAMILY_NAME "Arial"
WEIGHT_NAME "Book"
SLANT "R"
SETWIDTH_NAME "Normal"
ADD_STYLE_NAME ""
PIXEL_SIZE 21
POINT_SIZE 200
RESOLUTION_X 75
RESOLUTION_Y 75
SPACING "P"
AVERAGE_WIDTH 107
CHARSET_REGISTRY "ISO10646"
CHARSET_ENCODING "1"
FONTNAME_REGISTRY ""
CHARSET_COLLECTIONS "ASCII ISOLatin1Encoding ISO8859-2 ISO8859-5 ISO8859-7 ISO8859-9 ISO8859-8 ISO8859-6 ISO8859-4 ISO10646-1"
FONT_NAME "ArialMT"
FACE_NAME "Arial"
COPYRIGHT "(c) 2017 The Monotype Corporation. All Rights Reserved. "
FONT_VERSION "7.03"
FONT_ASCENT 17
FONT_DESCENT 4
UNDERLINE_POSITION -3
UNDERLINE_THICKNESS 2
X_HEIGHT 10
CAP_HEIGHT 14
RAW_ASCENT 799
RAW_DESCENT 200
NORM_SPACE 6
RELATIVE_WEIGHT 40
RELATIVE_SETWIDTH 50
SUPERSCRIPT_X 0
SUPERSCRIPT_Y 10
SUPERSCRIPT_SIZE 13
SUBSCRIPT_X 0
SUBSCRIPT_Y 2
SUBSCRIPT_SIZE 13
FIGURE_WIDTH 12
AVG_LOWERCASE_WIDTH 109
AVG_UPPERCASE_WIDTH 148
ENDPROPERTIES
CHARS 4649
STARTCHAR space
ENCODING 32
SWIDTH 277 0
DWIDTH 6 0
BBX 1 1 0 0
BITMAP
00
ENDCHAR
STARTCHAR exclam
ENCODING 33
SWIDTH 277 0
DWIDTH 6 0
BBX 2 15 2 0
BITMAP
C0
C0
C0
C0
C0
C0
C0
C0
C0
C0
C0
00
00
C0
C0
ENDCHAR
STARTCHAR quotedbl
ENCODING 34
SWIDTH 354 0
DWIDTH 7 0
BBX 6 5 1 10
BITMAP
CC
CC
CC
CC
CC
ENDCHAR
STARTCHAR numbersign
ENCODING 35
SWIDTH 556 0
DWIDTH 12 0
BBX 12 15 0 0
BITMAP
0C60
0C60
0CE0
18C0
FFF0
FFF0
18C0
3180
3180
FFF0
FFF0
3180
7300
6300
6300
ENDCHAR
STARTCHAR dollar
ENCODING 36
SWIDTH 556 0
DWIDTH 12 0
BBX 9 18 1 -2
BITMAP
0800
3E00
7F00
EB80
C980
C800
E800
7C00
1F00
0B80
0980
0980
C980
EB80
7F00
3E00
0800
0800
ENDCHAR
STARTCHAR percent
ENCODING 37
SWIDTH 889 0
DWIDTH 19 0
BBX 17 15 1 0
BITMAP
380C00
6C1800
C61800
C63000
C63000
C66000
6CC000
38CE00
019B00
01B180
033180
033180
063180
0C1B00
0C0E00
ENDCHAR
STARTCHAR ampersand
ENCODING 38
SWIDTH 666 0
DWIDTH 14 0
BBX 13 15 1 0
BITMAP
0F00
1F80
30C0
30C0
3180
1B00
1E00
3E00
6730
C3B0
C1E0
C0C0
E1E0
7FB0
3E18
ENDCHAR
STARTCHAR quotesingle
ENCODING 39
SWIDTH 190 0
DWIDTH 4 0
BBX 2 5 1 10
BITMAP
C0
C0
C0
C0
C0
ENDCHAR
STARTCHAR parenleft
ENCODING 40
SWIDTH 333 0
DWIDTH 7 0
BBX 5 19 1 -4
BITMAP
08
10
30
20
60
60
C0
C0
C0
C0
C0
C0
C0
60
60
20
30
10
08
ENDCHAR
STARTCHAR parenright
ENCODING 41
SWIDTH 333 0
DWIDTH 7 0
BBX 5 19 1 -4
BITMAP
80
40
60
20
30
30
18
18
18
18
18
18
18
30
30
20
60
40
80
ENDCHAR
STARTCHAR asterisk
ENCODING 42
SWIDTH 389 0
DWIDTH 8 0
BBX 8 6 0 9
BITMAP
18
18
FF
18
3C
66
ENDCHAR
STARTCHAR plus
ENCODING 43
SWIDTH 583 0
DWIDTH 12 0
BBX 10 10 1 2
BITMAP
0C00
0C00
0C00
0C00
FFC0
FFC0
0C00
0C00
0C00
0C00
ENDCHAR
STARTCHAR comma
ENCODING 44
SWIDTH 277 0
DWIDTH 6 0
BBX 2 5 2 -3
BITMAP
C0
C0
40
40
80
ENDCHAR
STARTCHAR hyphen
ENCODING 45
SWIDTH 333 0
DWIDTH 7 0
BBX 6 2 0 5
BITMAP
FC
FC
ENDCHAR
STARTCHAR period
ENCODING 46
SWIDTH 277 0
DWIDTH 6 0
BBX 2 2 2 0
BITMAP
C0
C0
ENDCHAR
STARTCHAR slash
ENCODING 47
SWIDTH 277 0
DWIDTH 6 0
BBX 6 15 0 0
BITMAP
0C
0C
18
18
18
18
30
30
30
60
60
60
60
C0
C0
ENDCHAR
STARTCHAR zero
ENCODING 48
SWIDTH 556 0
DWIDTH 12 0
BBX 10 15 1 0
BITMAP
3E00
7F80
6180
C0C0
C0C0
C0C0
C0C0
C0C0
C0C0
C0C0
C0C0
C0C0
6180
7F80
1F00
ENDCHAR
STARTCHAR one
ENCODING 49
SWIDTH 556 0
DWIDTH 12 0
BBX 6 15 2 0
BITMAP
0C
0C
3C
7C
CC
0C
0C
0C
0C
0C
0C
0C
0C
0C
0C
ENDCHAR
STARTCHAR two
ENCODING 50
SWIDTH 556 0
DWIDTH 12 0
BBX 10 15 1 0
BITMAP
3F00
7F80
E1C0
C0C0
00C0
00C0
0180
0180
0300
0600
1C00
3000
6000
FFC0
FFC0
ENDCHAR
STARTCHAR three
ENCODING 51
SWIDTH 556 0
DWIDTH 12 0
BBX 10 15 1 0
BITMAP
3E00
7F00
E380
C180
0180
0300
0E00
0F80
01C0
00C0
00C0
C0C0
E180
7F80
3E00
ENDCHAR
STARTCHAR four
ENCODING 52
SWIDTH 556 0
DWIDTH 12 0
BBX 10 15 1 0
BITMAP
0100
0300
0700
0F00
1B00
1B00
3300
6300
C300
FFC0
FFC0
0300
0300
0300
0300
ENDCHAR
STARTCHAR five
ENCODING 53
SWIDTH 556 0
DWIDTH 12 0
BBX 10 15 1 0
BITMAP
3F80
3F80
6000
6000
6000
6F00
FF80
C1C0
00C0
00C0
00C0
C0C0
E180
7F80
3E00
ENDCHAR
STARTCHAR six
ENCODING 54
SWIDTH 556 0
DWIDTH 12 0
BBX 10 15 1 0
BITMAP
1F00
3F80
61C0
60C0
C000
CF00
FF80
E1C0
C0C0
C0C0
C0C0
C0C0
6180
3F80
1E00
ENDCHAR
STARTCHAR seven
ENCODING 55
SWIDTH 556 0
DWIDTH 12 0
BBX 10 15 1 0
BITMAP
FFC0
FFC0
0180
0300
0300
0600
0600
0C00
0C00
1800
1800
1800
3000
3000
3000
ENDCHAR
STARTCHAR eight
ENCODING 56
SWIDTH 556 0
DWIDTH 12 0
BBX 10 15 1 0
BITMAP
1E00
3F00
6180
6180
6180
6180
3F00
3F00
6180
C0C0
C0C0
C0C0
E1C0
7F80
3F00
ENDCHAR
STARTCHAR nine
ENCODING 57
SWIDTH 556 0
DWIDTH 12 0
BBX 10 15 1 0
BITMAP
1E00
7F00
6180
C0C0
C0C0
C0C0
C0C0
E1C0
7FC0
3CC0
00C0
C180
E180
7F00
3E00
ENDCHAR
STARTCHAR colon
ENCODING 58
SWIDTH 277 0
DWIDTH 6 0
BBX 2 11 2 0
BITMAP
C0
C0
00
00
00
00
00
00
00
C0
C0
ENDCHAR
STARTCHAR semicolon
ENCODING 59
SWIDTH 277 0
DWIDTH 6 0
BBX 2 14 2 -3
BITMAP
C0
C0
00
00
00
00
00
00
00
C0
C0
40
40
80
ENDCHAR
STARTCHAR less
ENCODING 60
SWIDTH 583 0
DWIDTH 12 0
BBX 10 11 1 2
BITMAP
0040
01C0
0780
1E00
7000
C000
7000
1E00
0780
01C0
0040
ENDCHAR
STARTCHAR equal
ENCODING 61
SWIDTH 583 0
DWIDTH 12 0
BBX 10 7 1 4
BITMAP
FFC0
FFC0
0000
0000
0000
FFC0
FFC0
ENDCHAR
STARTCHAR greater
ENCODING 62
SWIDTH 583 0
DWIDTH 12 0
BBX 10 11 1 2
BITMAP
8000
E000
7800
1E00
0380
00C0
0380
1E00
7800
E000
8000
ENDCHAR
STARTCHAR question
ENCODING 63
SWIDTH 556 0
DWIDTH 12 0
BBX 10 15 1 0
BITMAP
3F00
7F80
E1C0
C0C0
00C0
0180
0380
0700
0E00
0C00
0C00
0000
0000
0C00
0C00
ENDCHAR
STARTCHAR at
ENCODING 64
SWIDTH 1015 0
DWIDTH 21 0
BBX 19 19 1 -4
BITMAP
01FC00
0FFF00
1E0780
3801C0
30E6C0
63F6E0
671C60
C60C60
CC0C60
CC0C60
CC08E0
CC18C0
CE3980
67FF00
73DE60
3801C0
1E0380
0FFF00
03FC00
ENDCHAR
STARTCHAR A
ENCODING 65
SWIDTH 666 0
DWIDTH 13 0
BBX 13 15 0 0
BITMAP
0700
0700
0D80
0D80
0D80
18C0
18C0
18C0
3FE0
3FE0
6030
6030
6030
C018
C018
ENDCHAR
STARTCHAR B
ENCODING 66
SWIDTH 666 0
DWIDTH 14 0
BBX 11 15 2 0
BITMAP
FF00
FF80
C1C0
C0C0
C0C0
C1C0
FF80
FF80
C0C0
C060
C060
C060
C0E0
FFC0
FF80
ENDCHAR
STARTCHAR C
ENCODING 67
SWIDTH 722 0
DWIDTH 15 0
BBX 13 15 1 0
BITMAP
0FC0
3FE0
3870
6038
E018
C000
C000
C000
C000
C000
E018
6030
7870
3FE0
0FC0
ENDCHAR
STARTCHAR D
ENCODING 68
SWIDTH 722 0
DWIDTH 15 0
BBX 12 15 2 0
BITMAP
FF00
FFC0
C0E0
C060
C030
C030
C030
C030
C030
C030
C030
C060
C0E0
FFC0
FF00
ENDCHAR
STARTCHAR E
ENCODING 69
SWIDTH 666 0
DWIDTH 14 0
BBX 11 15 2 0
BITMAP
FFE0
FFE0
C000
C000
C000
C000
FFC0
FFC0
C000
C000
C000
C000
C000
FFE0
FFE0
ENDCHAR
STARTCHAR F
ENCODING 70
SWIDTH 610 0
DWIDTH 13 0
BBX 10 15 2 0
BITMAP
FFC0
FFC0
C000
C000
C000
C000
FF80
FF80
C000
C000
C000
C000
C000
C000
C000
ENDCHAR
STARTCHAR G
ENCODING 71
SWIDTH 777 0
DWIDTH 16 0
BBX 14 15 1 0
BITMAP
0FC0
1FF0
3838
6018
6008
C000
C000
C1FC
C1FC
C00C
600C
600C
383C
1FF8
07E0
ENDCHAR
STARTCHAR H
ENCODING 72
SWIDTH 722 0
DWIDTH 14 0
BBX 12 15 1 0
BITMAP
C030
C030
C030
C030
C030
C030
FFF0
FFF0
C030
C030
C030
C030
C030
C030
C030
ENDCHAR
STARTCHAR I
ENCODING 73
SWIDTH 277 0
DWIDTH 6 0
BBX 2 15 2 0
BITMAP
C0
C0
C0
C0
C0
C0
C0
C0
C0
C0
C0
C0
C0
C0
C0
ENDCHAR
STARTCHAR J
ENCODING 74
SWIDTH 500 0
DWIDTH 11 0
BBX 8 15 1 0
BITMAP
03
03
03
03
03
03
03
03
03
03
C3
C3
E7
7E
3C
ENDCHAR
STARTCHAR K
ENCODING 75
SWIDTH 666 0
DWIDTH 14 0
BBX 12 15 2 0
BITMAP
C0E0
C1C0
C380
C700
CE00
DC00
DC00
FC00
EE00
C700
C380
C180
C1C0
C0E0
C070
ENDCHAR
STARTCHAR L
ENCODING 76
SWIDTH 556 0
DWIDTH 12 0
BBX 9 15 2 0
BITMAP
C000
C000
C000
C000
C000
C000
C000
C000
C000
C000
C000
C000
C000
FF80
FF80
ENDCHAR
STARTCHAR M
ENCODING 77
SWIDTH 833 0
DWIDTH 17 0
BBX 15 15 1 0
BITMAP
E00E
F01E
F01E
D016
D836
D836
C826
CC66
CC66
C446
C6C6
C6C6
C286
C386
C386
ENDCHAR
STARTCHAR N
ENCODING 78
SWIDTH 722 0
DWIDTH 14 0
BBX 12 15 1 0
BITMAP
C030
E030
F030
F030
D830
CC30
CC30
C630
C330
C330
C1B0
C0F0
C0F0
C070
C030
ENDCHAR
STARTCHAR O
ENCODING 79
SWIDTH 777 0
DWIDTH 16 0
BBX 14 15 1 0
BITMAP
0FC0
1FE0
3870
6018
E01C
C00C
C00C
C00C
C00C
C00C
E01C
6018
3870
1FE0
0FC0
ENDCHAR
STARTCHAR P
ENCODING 80
SWIDTH 666 0
DWIDTH 14 0
BBX 11 15 2 0
BITMAP
FF80
FFC0
C0E0
C060
C060
C060
C0E0
FFC0
FF80
C000
C000
C000
C000
C000
C000
ENDCHAR
STARTCHAR Q
ENCODING 81
SWIDTH 777 0
DWIDTH 16 0
BBX 14 16 1 -1
BITMAP
0FC0
1FF0
3870
6018
E01C
C00C
C00C
C00C
C00C
C00C
E018
61D8
3870
1FF8
0FDC
0004
ENDCHAR
STARTCHAR R
ENCODING 82
SWIDTH 722 0
DWIDTH 15 0
BBX 12 15 2 0
BITMAP
FF80
FFC0
C0E0
C060
C060
C0E0
FFC0
FF80
C300
C380
C180
C1C0
C0E0
C060
C070
ENDCHAR
STARTCHAR S
ENCODING 83
SWIDTH 666 0
DWIDTH 14 0
BBX 12 15 1 0
BITMAP
0F80
3FE0
7070
6030
6000
7000
3F00
0FC0
00E0
0030
C030
E030
7070
3FE0
1F80
ENDCHAR
STARTCHAR T
ENCODING 84
SWIDTH 610 0
DWIDTH 12 0
BBX 12 15 0 0
BITMAP
FFF0
FFF0
0600
0600
0600
0600
0600
0600
0600
0600
0600
0600
0600
0600
0600
ENDCHAR
STARTCHAR U
ENCODING 85
SWIDTH 722 0
DWIDTH 14 0
BBX 12 15 1 0
BITMAP
C030
C030
C030
C030
C030
C030
C030
C030
C030
C030
C030
E070
70E0
3FC0
1F80
ENDCHAR
STARTCHAR V
ENCODING 86
SWIDTH 666 0
DWIDTH 13 0
BBX 13 15 0 0
BITMAP
C018
E038
6030
6030
7070
3060
3060
38E0
18C0
18C0
1DC0
0D80
0D80
0F80
0700
ENDCHAR
STARTCHAR W
ENCODING 87
SWIDTH 943 0
DWIDTH 21 0
BBX 21 15 0 0
BITMAP
C07018
C07018
60D830
60D830
60D830
708870
318C60
318C60
318C60
1B06C0
1B06C0
1B06C0
1B06C0
0E0380
0E0380
ENDCHAR
STARTCHAR X
ENCODING 88
SWIDTH 666 0
DWIDTH 14 0
BBX 14 15 0 0
BITMAP
7038
3870
1860
0CC0
0CC0
0780
0300
0780
0780
0DC0
1CE0
1860
3030
7038
E01C
ENDCHAR
STARTCHAR Y
ENCODING 89
SWIDTH 666 0
DWIDTH 14 0
BBX 14 15 0 0
BITMAP
E01C
6018
3030
3870
1CE0
0CC0
0780
0780
0300
0300
0300
0300
0300
0300
0300
ENDCHAR
STARTCHAR Z
ENCODING 90
SWIDTH 610 0
DWIDTH 13 0
BBX 12 15 0 0
BITMAP
7FF0
7FF0
0060
00C0
0180
0180
0300
0600
0C00
1800
1800
3000
6000
FFF0
FFF0
ENDCHAR
STARTCHAR bracketleft
ENCODING 91
SWIDTH 277 0
DWIDTH 6 0
BBX 4 19 1 -4
BITMAP
F0
F0
C0
C0
C0
C0
C0
C0
C0
C0
C0
C0
C0
C0
C0
C0
C0
F0
F0
ENDCHAR
STARTCHAR backslash
ENCODING 92
SWIDTH 277 0
DWIDTH 6 0
BBX 6 15 0 0
BITMAP
C0
C0
60
60
60
60
30
30
30
18
18
18
18
0C
0C
ENDCHAR
STARTCHAR bracketright
ENCODING 93
SWIDTH 277 0
DWIDTH 6 0
BBX 4 19 1 -4
BITMAP
F0
F0
30
30
30
30
30
30
30
30
30
30
30
30
30
30
30
F0
F0
ENDCHAR
STARTCHAR asciicircum
ENCODING 94
SWIDTH 469 0
DWIDTH 8 0
BBX 8 8 0 7
BITMAP
18
3C
3C
3C
66
66
66
C3
ENDCHAR
STARTCHAR underscore
ENCODING 95
SWIDTH 556 0
DWIDTH 12 0
BBX 12 2 0 -4
BITMAP
FFF0
FFF0
ENDCHAR
STARTCHAR grave
ENCODING 96
SWIDTH 333 0
DWIDTH 7 0
BBX 3 3 1 12
BITMAP
C0
60
20
ENDCHAR
STARTCHAR a
ENCODING 97
SWIDTH 556 0
DWIDTH 12 0
BBX 10 11 1 0
BITMAP
3F00
FF80
C180
0180
0F80
7F80
F180
C180
C380
FF80
7CC0
ENDCHAR
STARTCHAR b
ENCODING 98
SWIDTH 556 0
DWIDTH 11 0
BBX 9 15 1 0
BITMAP
C000
C000
C000
C000
DE00
FF00
E300
C180
C180
C180
C180
C180
E300
FF00
DE00
ENDCHAR
STARTCHAR c
ENCODING 99
SWIDTH 500 0
DWIDTH 11 0
BBX 9 11 1 0
BITMAP
1E00
7F00
6380
C180
C000
C000
C000
C180
6380
7F00
3E00
ENDCHAR
STARTCHAR d
ENCODING 100
SWIDTH 556 0
DWIDTH 11 0
BBX 9 15 1 0
BITMAP
0180
0180
0180
0180
3D80
7F80
6380
C180
C180
C180
C180
C180
6380
7F80
3D80
ENDCHAR
STARTCHAR e
ENCODING 101
SWIDTH 556 0
DWIDTH 12 0
BBX 10 11 1 0
BITMAP
1E00
7F80
6180
C0C0
FFC0
FFC0
C000
C000
61C0
7F80
1F00
ENDCHAR
STARTCHAR f
ENCODING 102
SWIDTH 277 0
DWIDTH 6 0
BBX 7 15 0 0
BITMAP
1E
3E
30
30
FC
FC
30
30
30
30
30
30
30
30
30
ENDCHAR
STARTCHAR g
ENCODING 103
SWIDTH 556 0
DWIDTH 11 0
BBX 9 15 1 -4
BITMAP
3D80
7F80
6380
C180
C180
C180
C180
C180
6380
7F80
3D80
0180
C380
FF00
3E00
ENDCHAR
STARTCHAR h
ENCODING 104
SWIDTH 556 0
DWIDTH 11 0
BBX 9 15 1 0
BITMAP
C000
C000
C000
C000
DE00
FF00
E380
C180
C180
C180
C180
C180
C180
C180
C180
ENDCHAR
STARTCHAR i
ENCODING 105
SWIDTH 222 0
DWIDTH 5 0
BBX 2 15 1 0
BITMAP
C0
C0
00
00
C0
C0
C0
C0
C0
C0
C0
C0
C0
C0
C0
ENDCHAR
STARTCHAR j
ENCODING 106
SWIDTH 222 0
DWIDTH 4 0
BBX 4 19 -1 -4
BITMAP
30
30
00
00
30
30
30
30
30
30
30
30
30
30
30
30
30
F0
E0
ENDCHAR
STARTCHAR k
ENCODING 107
SWIDTH 500 0
DWIDTH 10 0
BBX 9 15 1 0
BITMAP
C000
C000
C000
C000
C380
C700
CE00
DC00
F800
FC00
CC00
C600
C700
C300
C380
ENDCHAR
STARTCHAR l
ENCODING 108
SWIDTH 222 0
DWIDTH 4 0
BBX 2 15 1 0
BITMAP
C0
C0
C0
C0
C0
C0
C0
C0
C0
C0
C0
C0
C0
C0
C0
ENDCHAR
STARTCHAR m
ENCODING 109
SWIDTH 833 0
DWIDTH 16 0
BBX 14 11 1 0
BITMAP
DE78
FEFC
E38C
C30C
C30C
C30C
C30C
C30C
C30C
C30C
C30C
ENDCHAR
STARTCHAR n
ENCODING 110
SWIDTH 556 0
DWIDTH 11 0
BBX 9 11 1 0
BITMAP
DE00
FF00
E380
C180
C180
C180
C180
C180
C180
C180
C180
ENDCHAR
STARTCHAR o
ENCODING 111
SWIDTH 556 0
DWIDTH 12 0
BBX 10 11 1 0
BITMAP
1E00
7F80
6180
C0C0
C0C0
C0C0
C0C0
C0C0
6180
7F80
1E00
ENDCHAR
STARTCHAR p
ENCODING 112
SWIDTH 556 0
DWIDTH 11 0
BBX 9 15 1 -4
BITMAP
DE00
FF00
E300
C180
C180
C180
C180
C180
E300
FF00
DE00
C000
C000
C000
C000
ENDCHAR
STARTCHAR q
ENCODING 113
SWIDTH 556 0
DWIDTH 11 0
BBX 9 15 1 -4
BITMAP
3D80
7F80
6380
C180
C180
C180
C180
C180
6380
7F80
3D80
0180
0180
0180
0180
ENDCHAR
STARTCHAR r
ENCODING 114
SWIDTH 333 0
DWIDTH 7 0
BBX 6 11 1 0
BITMAP
DC
FC
E0
C0
C0
C0
C0
C0
C0
C0
C0
ENDCHAR
STARTCHAR s
ENCODING 115
SWIDTH 500 0
DWIDTH 11 0
BBX 9 11 1 0
BITMAP
3E00
7F00
C180
C000
F800
7F00
0780
0180
C180
7F00
3E00
ENDCHAR
STARTCHAR t
ENCODING 116
SWIDTH 277 0
DWIDTH 6 0
BBX 5 15 0 0
BITMAP
20
60
60
60
F8
F8
60
60
60
60
60
60
60
78
38
ENDCHAR
STARTCHAR u
ENCODING 117
SWIDTH 556 0
DWIDTH 11 0
BBX 9 11 1 0
BITMAP
C180
C180
C180
C180
C180
C180
C180
C180
E380
7F80
3D80
ENDCHAR
STARTCHAR v
ENCODING 118
SWIDTH 500 0
DWIDTH 11 0
BBX 11 11 0 0
BITMAP
C060
C060
60C0
60C0
3180
3180
1B00
1B00
0E00
0E00
0400
ENDCHAR
STARTCHAR w
ENCODING 119
SWIDTH 722 0
DWIDTH 15 0
BBX 15 11 0 0
BITMAP
C106
C386
4384
628C
66CC
36D8
36D8
1450
1C70
1C70
0C60
ENDCHAR
STARTCHAR x
ENCODING 120
SWIDTH 500 0
DWIDTH 10 0
BBX 10 11 0 0
BITMAP
E1C0
6180
3300
3300
1E00
0C00
1E00
3300
3300
6180
E1C0
ENDCHAR
STARTCHAR y
ENCODING 121
SWIDTH 500 0
DWIDTH 11 0
BBX 9 15 1 -4
BITMAP
C180
C180
6300
6300
7300
3300
3600
1E00
1E00
0C00
0C00
0C00
1800
F800
F000
ENDCHAR
STARTCHAR z
ENCODING 122
SWIDTH 500 0
DWIDTH 9 0
BBX 9 11 0 0
BITMAP
7F80
7F80
0380
0700
0E00
1C00
3800
7000
E000
FF80
FF80
ENDCHAR
STARTCHAR braceleft
ENCODING 123
SWIDTH 333 0
DWIDTH 7 0
BBX 6 19 0 -4
BITMAP
1C
3C
30
30
30
30
30
70
E0
E0
60
30
30
30
30
30
30
3C
1C
ENDCHAR
STARTCHAR bar
ENCODING 124
SWIDTH 259 0
DWIDTH 6 0
BBX 2 20 2 -5
BITMAP
C0
C0
C0
C0
C0
C0
C0
C0
C0
C0
C0
C0
C0
C0
C0
C0
C0
C0
C0
C0
ENDCHAR
STARTCHAR braceright
ENCODING 125
SWIDTH 333 0
DWIDTH 7 0
BBX 6 19 1 -4
BITMAP
E0
F0
30
30
30
30
30
38
1C
1C
38
30
30
30
30
30
30
F0
E0
ENDCHAR
STARTCHAR asciitilde
ENCODING 126
SWIDTH 583 0
DWIDTH 12 0
BBX 10 4 1 5
BITMAP
7000
FC40
8FC0
0380
ENDCHAR
STARTCHAR space.dup1
ENCODING 160
SWIDTH 277 0
DWIDTH 6 0
BBX 1 1 0 0
BITMAP
00
ENDCHAR
STARTCHAR exclamdown
ENCODING 161
SWIDTH 333 0
DWIDTH 6 0
BBX 2 15 2 -4
BITMAP
C0
C0
00
00
C0
C0
C0
C0
C0
C0
C0
C0
C0
C0
C0
ENDCHAR
STARTCHAR cent
ENCODING 162
SWIDTH 556 0
DWIDTH 12 0
BBX 10 19 1 -4
BITMAP
0100
0100
0100
0300
1E00
7F80
6380
C4C0
C400
C400
C800
E8C0
7980
7F80
1E00
1000
2000
2000
2000
ENDCHAR
STARTCHAR sterling
ENCODING 163
SWIDTH 556 0
DWIDTH 12 0
BBX 11 15 0 0
BITMAP
0F80
1FC0
38E0
3060
3000
3000
3000
FF00
FF00
1800
1800
3000
7E40
FFE0
83C0
ENDCHAR
STARTCHAR currency
ENCODING 164
SWIDTH 556 0
DWIDTH 12 0
BBX 10 8 1 3
BITMAP
5E80
FFC0
3300
6180
6180
3300
7F80
DEC0
ENDCHAR
STARTCHAR yen
ENCODING 165
SWIDTH 556 0
DWIDTH 12 0
BBX 12 15 0 0
BITMAP
C030
6060
6060
30C0
1980
1980
0F00
FFF0
FFF0
0600
0600
FFF0
FFF0
0600
0600
ENDCHAR
STARTCHAR brokenbar
ENCODING 166
SWIDTH 259 0
DWIDTH 6 0
BBX 2 20 2 -5
BITMAP
C0
C0
C0
C0
C0
C0
C0
C0
00
00
00
00
C0
C0
C0
C0
C0
C0
C0
C0
ENDCHAR
STARTCHAR section
ENCODING 167
SWIDTH 556 0
DWIDTH 12 0
BBX 10 19 1 -4
BITMAP
1E00
3F00
6380
6180
6000
3800
7C00
C700
C380
C1C0
70C0
38C0
0F00
0700
0180
C180
E380
7F00
3E00
ENDCHAR
STARTCHAR dieresis
ENCODING 168
SWIDTH 333 0
DWIDTH 7 0
BBX 6 2 1 13
BITMAP
CC
CC
ENDCHAR
STARTCHAR copyright
ENCODING 169
SWIDTH 736 0
DWIDTH 15 0
BBX 15 15 0 0
BITMAP
07C0
1830
2008
43C4
4424
8802
8802
8802
8802
8822
4444
4384
2008
1830
07C0
ENDCHAR
STARTCHAR ordfeminine
ENCODING 170
SWIDTH 370 0
DWIDTH 7 0
BBX 7 8 0 7
BITMAP
7C
C6
06
3E
F6
C6
CE
7E
ENDCHAR
STARTCHAR guillemotleft
ENCODING 171
SWIDTH 556 0
DWIDTH 12 0
BBX 9 9 1 1
BITMAP
1980
3300
6600
6600
CC00
6600
6600
3300
1980
ENDCHAR
STARTCHAR logicalnot
ENCODING 172
SWIDTH 583 0
DWIDTH 12 0
BBX 10 6 1 4
BITMAP
FFC0
FFC0
00C0
00C0
00C0
00C0
ENDCHAR
STARTCHAR hyphen.dup2
ENCODING 173
SWIDTH 333 0
DWIDTH 7 0
BBX 6 2 0 5
BITMAP
FC
FC
ENDCHAR
STARTCHAR registered
ENCODING 174
SWIDTH 736 0
DWIDTH 15 0
BBX 15 15 0 0
BITMAP
07C0
1830
2008
4F84
4844
8842
8842
8F82
8902
8882
4844
4824
2008
1830
07C0
ENDCHAR
STARTCHAR macron
ENCODING 175
SWIDTH 552 0
DWIDTH 12 0
BBX 13 2 -1 16
BITMAP
FFF8
FFF8
ENDCHAR
STARTCHAR degree
ENCODING 176
SWIDTH 399 0
DWIDTH 8 0
BBX 6 6 1 9
BITMAP
78
CC
84
84
CC
78
ENDCHAR
STARTCHAR plusminus
ENCODING 177
SWIDTH 548 0
DWIDTH 12 0
BBX 10 13 1 0
BITMAP
0C00
0C00
0C00
0C00
FFC0
FFC0
0C00
0C00
0C00
0C00
0000
FFC0
FFC0
ENDCHAR
STARTCHAR uni00B2
ENCODING 178
SWIDTH 333 0
DWIDTH 7 0
BBX 6 8 0 7
BITMAP
78
CC
0C
1C
38
70
60
FC
ENDCHAR
STARTCHAR uni00B3
ENCODING 179
SWIDTH 333 0
DWIDTH 7 0
BBX 6 8 0 7
BITMAP
78
CC
0C
30
0C
0C
CC
78
ENDCHAR
STARTCHAR acute
ENCODING 180
SWIDTH 333 0
DWIDTH 7 0
BBX 3 3 2 12
BITMAP
60
C0
80
ENDCHAR
STARTCHAR mu
ENCODING 181
SWIDTH 576 0
DWIDTH 11 0
BBX 9 15 1 -4
BITMAP
C180
C180
C180
C180
C180
C180
C180
C180
E380
FF80
DD80
C000
C000
C000
C000
ENDCHAR
STARTCHAR paragraph
ENCODING 182
SWIDTH 537 0
DWIDTH 11 0
BBX 11 19 0 -4
BITMAP
3FE0
7FE0
FCC0
FCC0
FCC0
FCC0
7CC0
3CC0
0CC0
0CC0
0CC0
0CC0
0CC0
0CC0
0CC0
0CC0
0CC0
0CC0
0CC0
ENDCHAR
STARTCHAR periodcentered
ENCODING 183
SWIDTH 333 0
DWIDTH 7 0
BBX 2 2 2 7
BITMAP
C0
C0
ENDCHAR
STARTCHAR cedilla
ENCODING 184
SWIDTH 333 0
DWIDTH 7 0
BBX 5 4 1 -4
BITMAP
20
30
18
F0
ENDCHAR
STARTCHAR uni00B9
ENCODING 185
SWIDTH 333 0
DWIDTH 7 0
BBX 4 8 1 7
BITMAP
30
70
F0
B0
30
30
30
30
ENDCHAR
STARTCHAR ordmasculine
ENCODING 186
SWIDTH 365 0
DWIDTH 8 0
BBX 8 8 0 7
BITMAP
3C
66
C3
C3
C3
C3
66
3C
ENDCHAR
STARTCHAR guillemotright
ENCODING 187
SWIDTH 556 0
DWIDTH 12 0
BBX 9 9 2 1
BITMAP
CC00
6600
3300
3300
1980
3300
3300
6600
CC00
ENDCHAR
STARTCHAR onequarter
ENCODING 188
SWIDTH 833 0
DWIDTH 18 0
BBX 16 15 2 0
BITMAP
301C
7018
F030
B060
30C0
30C0
3180
3306
060E
060E
0C16
1836
303F
6006
6006
ENDCHAR
STARTCHAR onehalf
ENCODING 189
SWIDTH 833 0
DWIDTH 18 0
BBX 16 15 2 0
BITMAP
300C
7018
F030
B060
3060
30C0
3180
331E
0633
0603
0C07
1806
300C
3018
603F
ENDCHAR
STARTCHAR threequarters
ENCODING 190
SWIDTH 833 0
DWIDTH 18 0
BBX 18 15 0 0
BITMAP
780300
CC0600
0C0C00
300C00
0C1800
0C3000
CC6000
78C180
00C380
018380
030780
060D80
060FC0
0C0180
180180
ENDCHAR
STARTCHAR questiondown
ENCODING 191
SWIDTH 610 0
DWIDTH 13 0
BBX 9 15 2 -4
BITMAP
0C00
0C00
0000
0000
0C00
0C00
1C00
3800
7000
6000
C000
C180
E380
7F00
3E00
ENDCHAR
STARTCHAR Agrave
ENCODING 192
SWIDTH 666 0
DWIDTH 13 0
BBX 13 19 0 0
BITMAP
0600
0300
0100
0000
0700
0700
0D80
0D80
0D80
18C0
18C0
18C0
3FE0
3FE0
6030
6030
6030
C018
C018
ENDCHAR
STARTCHAR Aacute
ENCODING 193
SWIDTH 666 0
DWIDTH 13 0
BBX 13 19 0 0
BITMAP
0300
0600
0400
0000
0700
0700
0D80
0D80
0D80
18C0
18C0
18C0
3FE0
3FE0
6030
6030
6030
C018
C018
ENDCHAR
STARTCHAR Acircumflex
ENCODING 194
SWIDTH 666 0
DWIDTH 13 0
BBX 13 19 0 0
BITMAP
0700
0D80
1980
0000
0700
0700
0D80
0D80
0D80
18C0
18C0
18C0
3FE0
3FE0
6030
6030
6030
C018
C018
ENDCHAR
STARTCHAR Atilde
ENCODING 195
SWIDTH 666 0
DWIDTH 13 0
BBX 13 19 0 0
BITMAP
0EC0
1FC0
1B80
0000
0700
0700
0D80
0D80
0D80
18C0
18C0
18C0
3FE0
3FE0
6030
6030
6030
C018
C018
ENDCHAR
STARTCHAR Adieresis
ENCODING 196
SWIDTH 666 0
DWIDTH 13 0
BBX 13 18 0 0
BITMAP
0CC0
0CC0
0000
0700
0700
0D80
0D80
0D80
18C0
18C0
18C0
3FE0
3FE0
6030
6030
6030
C018
C018
ENDCHAR
STARTCHAR Aring
ENCODING 197
SWIDTH 666 0
DWIDTH 13 0
BBX 13 19 0 0
BITMAP
0700
0880
0880
0880
0700
0700
0D80
0D80
0D80
18C0
18C0
18C0
3FE0
3FE0
6030
6030
6030
C018
C018
ENDCHAR
STARTCHAR AE
ENCODING 198
SWIDTH 1000 0
DWIDTH 21 0
BBX 20 15 0 0
BITMAP
01FFF0
03FFF0
033000
063000
063000
0C3000
0C3FE0
183FE0
183000
3FF000
3FF000
603000
603000
C03FF0
C03FF0
ENDCHAR
STARTCHAR Ccedilla
ENCODING 199
SWIDTH 722 0
DWIDTH 15 0
BBX 13 19 1 -4
BITMAP
0FC0
3FE0
3870
6038
E018
C000
C000
C000
C000
C000
E018
6030
7870
3FE0
0FC0
0200
0300
0180
0F00
ENDCHAR
STARTCHAR Egrave
ENCODING 200
SWIDTH 666 0
DWIDTH 14 0
BBX 11 19 2 0
BITMAP
0C00
0600
0200
0000
FFE0
FFE0
C000
C000
C000
C000
FFC0
FFC0
C000
C000
C000
C000
C000
FFE0
FFE0
ENDCHAR
STARTCHAR Eacute
ENCODING 201
SWIDTH 666 0
DWIDTH 14 0
BBX 11 19 2 0
BITMAP
0300
0600
0400
0000
FFE0
FFE0
C000
C000
C000
C000
FFC0
FFC0
C000
C000
C000
C000
C000
FFE0
FFE0
ENDCHAR
STARTCHAR Ecircumflex
ENCODING 202
SWIDTH 666 0
DWIDTH 14 0
BBX 11 19 2 0
BITMAP
0600
0F00
1980
0000
FFE0
FFE0
C000
C000
C000
C000
FFC0
FFC0
C000
C000
C000
C000
C000
FFE0
FFE0
ENDCHAR
STARTCHAR Edieresis
ENCODING 203
SWIDTH 666 0
DWIDTH 14 0
BBX 11 18 2 0
BITMAP
1980
1980
0000
FFE0
FFE0
C000
C000
C000
C000
FFC0
FFC0
C000
C000
C000
C000
C000
FFE0
FFE0
ENDCHAR
STARTCHAR Igrave
ENCODING 204
SWIDTH 277 0
DWIDTH 6 0
BBX 3 19 1 0
BITMAP
C0
60
20
00
60
60
60
60
60
60
60
60
60
60
60
60
60
60
60
ENDCHAR
STARTCHAR Iacute
ENCODING 205
SWIDTH 277 0
DWIDTH 6 0
BBX 3 19 2 0
BITMAP
60
C0
80
00
C0
C0
C0
C0
C0
C0
C0
C0
C0
C0
C0
C0
C0
C0
C0
ENDCHAR
STARTCHAR Icircumflex
ENCODING 206
SWIDTH 277 0
DWIDTH 6 0
BBX 6 19 0 0
BITMAP
30
78
CC
00
30
30
30
30
30
30
30
30
30
30
30
30
30
30
30
ENDCHAR
STARTCHAR Idieresis
ENCODING 207
SWIDTH 277 0
DWIDTH 6 0
BBX 6 18 0 0
BITMAP
CC
CC
00
30
30
30
30
30
30
30
30
30
30
30
30
30
30
30
ENDCHAR
STARTCHAR Eth
ENCODING 208
SWIDTH 722 0
DWIDTH 15 0
BBX 14 15 0 0
BITMAP
3FC0
3FF0
3038
3018
300C
300C
FF0C
FF0C
300C
300C
300C
3018
3038
3FF0
3FC0
ENDCHAR
STARTCHAR Ntilde
ENCODING 209
SWIDTH 722 0
DWIDTH 14 0
BBX 12 19 1 0
BITMAP
0EC0
1FC0
1B80
0000
C030
E030
F030
F030
D830
CC30
CC30
C630
C330
C330
C1B0
C0F0
C0F0
C070
C030
ENDCHAR
STARTCHAR Ograve
ENCODING 210
SWIDTH 777 0
DWIDTH 16 0
BBX 14 19 1 0
BITMAP
0600
0300
0100
0000
0FC0
1FE0
3870
6018
E01C
C00C
C00C
C00C
C00C
C00C
E01C
6018
3870
1FE0
0FC0
ENDCHAR
STARTCHAR Oacute
ENCODING 211
SWIDTH 777 0
DWIDTH 16 0
BBX 14 19 1 0
BITMAP
0180
0300
0200
0000
0FC0
1FE0
3870
6018
E01C
C00C
C00C
C00C
C00C
C00C
E01C
6018
3870
1FE0
0FC0
ENDCHAR
STARTCHAR Ocircumflex
ENCODING 212
SWIDTH 777 0
DWIDTH 16 0
BBX 14 19 1 0
BITMAP
0380
06C0
0660
0000
0FC0
1FE0
3870
6018
E01C
C00C
C00C
C00C
C00C
C00C
E01C
6018
3870
1FE0
0FC0
ENDCHAR
STARTCHAR Otilde
ENCODING 213
SWIDTH 777 0
DWIDTH 16 0
BBX 14 19 1 0
BITMAP
0760
0FE0
0DC0
0000
0FC0
1FE0
3870
6018
E01C
C00C
C00C
C00C
C00C
C00C
E01C
6018
3870
1FE0
0FC0
ENDCHAR
STARTCHAR Odieresis
ENCODING 214
SWIDTH 777 0
DWIDTH 16 0
BBX 14 18 1 0
BITMAP
0CC0
0CC0
0000
0FC0
1FE0
3870
6018
E01C
C00C
C00C
C00C
C00C
C00C
E01C
6018
3870
1FE0
0FC0
ENDCHAR
STARTCHAR multiply
ENCODING 215
SWIDTH 583 0
DWIDTH 12 0
BBX 9 9 1 3
BITMAP
C180
E380
7700
3E00
1C00
3E00
7700
E380
C180
ENDCHAR
STARTCHAR Oslash
ENCODING 216
SWIDTH 777 0
DWIDTH 16 0
BBX 14 15 1 0
BITMAP
0FCC
1FF8
3878
6038
607C
C0CC
C18C
C30C
C60C
CC0C
EC18
7818
3870
7FE0
CFC0
ENDCHAR
STARTCHAR Ugrave
ENCODING 217
SWIDTH 722 0
DWIDTH 14 0
BBX 12 19 1 0
BITMAP
0C00
0600
0200
0000
C030
C030
C030
C030
C030
C030
C030
C030
C030
C030
C030
E070
70E0
3FC0
1F80
ENDCHAR
STARTCHAR Uacute
ENCODING 218
SWIDTH 722 0
DWIDTH 14 0
BBX 12 19 1 0
BITMAP
0300
0600
0400
0000
C030
C030
C030
C030
C030
C030
C030
C030
C030
C030
C030
E070
70E0
3FC0
1F80
ENDCHAR
STARTCHAR Ucircumflex
ENCODING 219
SWIDTH 722 0
DWIDTH 14 0
BBX 12 19 1 0
BITMAP
0600
0F00
1980
0000
C030
C030
C030
C030
C030
C030
C030
C030
C030
C030
C030
E070
70E0
3FC0
1F80
ENDCHAR
STARTCHAR Udieresis
ENCODING 220
SWIDTH 722 0
DWIDTH 14 0
BBX 12 18 1 0
BITMAP
1980
1980
0000
C030
C030
C030
C030
C030
C030
C030
C030
C030
C030
C030
E070
70E0
3FC0
1F80
ENDCHAR
STARTCHAR Yacute
ENCODING 221
SWIDTH 666 0
DWIDTH 14 0
BBX 14 19 0 0
BITMAP
0180
0300
0200
0000
E01C
6018
3030
3870
1CE0
0CC0
0780
0780
0300
0300
0300
0300
0300
0300
0300
ENDCHAR
STARTCHAR Thorn
ENCODING 222
SWIDTH 666 0
DWIDTH 14 0
BBX 11 15 2 0
BITMAP
C000
C000
C000
FF80
FFC0
C0E0
C060
C060
C060
C0E0
FFC0
FF80
C000
C000
C000
ENDCHAR
STARTCHAR germandbls
ENCODING 223
SWIDTH 610 0
DWIDTH 13 0
BBX 11 15 2 0
BITMAP
3E00
7F00
E380
C180
C180
C300
C600
C600
C380
C1C0
C060
C060
DCE0
CFC0
C780
ENDCHAR
STARTCHAR agrave
ENCODING 224
SWIDTH 556 0
DWIDTH 12 0
BBX 10 15 1 0
BITMAP
1800
0C00
0400
0000
3F00
FF80
C180
0180
0F80
7F80
F180
C180
C380
FF80
7CC0
ENDCHAR
STARTCHAR aacute
ENCODING 225
SWIDTH 556 0
DWIDTH 12 0
BBX 10 15 1 0
BITMAP
0600
0C00
0800
0000
3F00
FF80
C180
0180
0F80
7F80
F180
C180
C380
FF80
7CC0
ENDCHAR
STARTCHAR acircumflex
ENCODING 226
SWIDTH 556 0
DWIDTH 12 0
BBX 10 15 1 0
BITMAP
0E00
1B00
3300
0000
3F00
FF80
C180
0180
0F80
7F80
F180
C180
C380
FF80
7CC0
ENDCHAR
STARTCHAR atilde
ENCODING 227
SWIDTH 556 0
DWIDTH 12 0
BBX 10 15 1 0
BITMAP
3B00
7F00
6E00
0000
3F00
FF80
C180
0180
0F80
7F80
F180
C180
C380
FF80
7CC0
ENDCHAR
STARTCHAR adieresis
ENCODING 228
SWIDTH 556 0
DWIDTH 12 0
BBX 10 14 1 0
BITMAP
3300
3300
0000
3F00
FF80
C180
0180
0F80
7F80
F180
C180
C380
FF80
7CC0
ENDCHAR
STARTCHAR aring
ENCODING 229
SWIDTH 556 0
DWIDTH 12 0
BBX 10 17 1 0
BITMAP
1C00
2200
2200
2200
1C00
0000
3F00
FF80
C180
0180
0F80
7F80
F180
C180
C380
FF80
7CC0
ENDCHAR
STARTCHAR ae
ENCODING 230
SWIDTH 889 0
DWIDTH 19 0
BBX 17 11 1 0
BITMAP
3F3C00
7FFF00
C1C300
078180
7FFF80
79FF80
C18000
C18180
C3C300
7F7F00
3C3C00
ENDCHAR
STARTCHAR ccedilla
ENCODING 231
SWIDTH 500 0
DWIDTH 11 0
BBX 9 15 1 -4
BITMAP
1E00
7F00
6380
C180
C000
C000
C000
C180
6380
7F00
3E00
0800
0C00
0600
3C00
ENDCHAR
STARTCHAR egrave
ENCODING 232
SWIDTH 556 0
DWIDTH 12 0
BBX 10 15 1 0
BITMAP
1800
0C00
0400
0000
1E00
7F80
6180
C0C0
FFC0
FFC0
C000
C000
61C0
7F80
1F00
ENDCHAR
STARTCHAR eacute
ENCODING 233
SWIDTH 556 0
DWIDTH 12 0
BBX 10 15 1 0
BITMAP
0600
0C00
0800
0000
1E00
7F80
6180
C0C0
FFC0
FFC0
C000
C000
61C0
7F80
1F00
ENDCHAR
STARTCHAR ecircumflex
ENCODING 234
SWIDTH 556 0
DWIDTH 12 0
BBX 10 15 1 0
BITMAP
0E00
1B00
3300
0000
1E00
7F80
6180
C0C0
FFC0
FFC0
C000
C000
61C0
7F80
1F00
ENDCHAR
STARTCHAR edieresis
ENCODING 235
SWIDTH 556 0
DWIDTH 12 0
BBX 10 14 1 0
BITMAP
3300
3300
0000
1E00
7F80
6180
C0C0
FFC0
FFC0
C000
C000
61C0
7F80
1F00
ENDCHAR
STARTCHAR igrave
ENCODING 236
SWIDTH 277 0
DWIDTH 6 0
BBX 3 15 1 0
BITMAP
C0
60
20
00
60
60
60
60
60
60
60
60
60
60
60
ENDCHAR
STARTCHAR iacute
ENCODING 237
SWIDTH 277 0
DWIDTH 6 0
BBX 3 15 2 0
BITMAP
60
C0
80
00
C0
C0
C0
C0
C0
C0
C0
C0
C0
C0
C0
ENDCHAR
STARTCHAR icircumflex
ENCODING 238
SWIDTH 277 0
DWIDTH 6 0
BBX 7 15 0 0
BITMAP
38
6C
C6
00
30
30
30
30
30
30
30
30
30
30
30
ENDCHAR
STARTCHAR idieresis
ENCODING 239
SWIDTH 277 0
DWIDTH 6 0
BBX 6 14 0 0
BITMAP
CC
CC
00
30
30
30
30
30
30
30
30
30
30
30
ENDCHAR
STARTCHAR eth
ENCODING 240
SWIDTH 556 0
DWIDTH 12 0
BBX 10 15 1 0
BITMAP
1900
0F00
1E00
3300
3D80
7F80
6180
C0C0
C0C0
C0C0
C0C0
C0C0
6180
7F80
1E00
ENDCHAR
STARTCHAR ntilde
ENCODING 241
SWIDTH 556 0
DWIDTH 11 0
BBX 9 15 1 0
BITMAP
3B00
7F00
6E00
0000
DE00
FF00
E380
C180
C180
C180
C180
C180
C180
C180
C180
ENDCHAR
STARTCHAR ograve
ENCODING 242
SWIDTH 556 0
DWIDTH 12 0
BBX 10 15 1 0
BITMAP
1800
0C00
0400
0000
1E00
7F80
6180
C0C0
C0C0
C0C0
C0C0
C0C0
6180
7F80
1E00
ENDCHAR
STARTCHAR oacute
ENCODING 243
SWIDTH 556 0
DWIDTH 12 0
BBX 10 15 1 0
BITMAP
0600
0C00
0800
0000
1E00
7F80
6180
C0C0
C0C0
C0C0
C0C0
C0C0
6180
7F80
1E00
ENDCHAR
STARTCHAR ocircumflex
ENCODING 244
SWIDTH 556 0
DWIDTH 12 0
BBX 10 15 1 0
BITMAP
0E00
1B00
3300
0000
1E00
7F80
6180
C0C0
C0C0
C0C0
C0C0
C0C0
6180
7F80
1E00
ENDCHAR
STARTCHAR otilde
ENCODING 245
SWIDTH 556 0
DWIDTH 12 0
BBX 10 15 1 0
BITMAP
1D80
3F80
3700
0000
1E00
7F80
6180
C0C0
C0C0
C0C0
C0C0
C0C0
6180
7F80
1E00
ENDCHAR
STARTCHAR odieresis
ENCODING 246
SWIDTH 556 0
DWIDTH 12 0
BBX 10 14 1 0
BITMAP
3300
3300
0000
1E00
7F80
6180
C0C0
C0C0
C0C0
C0C0
C0C0
6180
7F80
1E00
ENDCHAR
STARTCHAR divide
ENCODING 247
SWIDTH 548 0
DWIDTH 12 0
BBX 10 8 1 3
BITMAP
0C00
0C00
0000
FFC0
FFC0
0000
0C00
0C00
ENDCHAR
STARTCHAR oslash
ENCODING 248
SWIDTH 610 0
DWIDTH 12 0
BBX 10 13 1 -1
BITMAP
00C0
3EC0
7F80
6380
C2C0
C6C0
CCC0
D8C0
D0C0
F180
7F80
DE00
C000
ENDCHAR
STARTCHAR ugrave
ENCODING 249
SWIDTH 556 0
DWIDTH 11 0
BBX 9 15 1 0
BITMAP
3000
1800
0800
0000
C180
C180
C180
C180
C180
C180
C180
C180
E380
7F80
3D80
ENDCHAR
STARTCHAR uacute
ENCODING 250
SWIDTH 556 0
DWIDTH 11 0
BBX 9 15 1 0
BITMAP
0600
0C00
0800
0000
C180
C180
C180
C180
C180
C180
C180
C180
E380
7F80
3D80
ENDCHAR
STARTCHAR ucircumflex
ENCODING 251
SWIDTH 556 0
DWIDTH 11 0
BBX 9 15 1 0
BITMAP
0C00
1E00
3300
0000
C180
C180
C180
C180
C180
C180
C180
C180
E380
7F80
3D80
ENDCHAR
STARTCHAR udieresis
ENCODING 252
SWIDTH 556 0
DWIDTH 11 0
BBX 9 14 1 0
BITMAP
6600
6600
0000
C180
C180
C180
C180
C180
C180
C180
C180
E380
7F80
3D80
ENDCHAR
STARTCHAR yacute
ENCODING 253
SWIDTH 500 0
DWIDTH 11 0
BBX 9 19 1 -4
BITMAP
0600
0C00
0800
0000
C180
C180
6300
6300
7300
3300
3600
1E00
1E00
0C00
0C00
0C00
1800
F800
F000
ENDCHAR
STARTCHAR thorn
ENCODING 254
SWIDTH 556 0
DWIDTH 12 0
BBX 10 19 1 -4
BITMAP
C000
C000
C000
C000
DE00
FF80
E180
C0C0
C0C0
C0C0
C0C0
C0C0
E180
FF80
DE00
C000
C000
C000
C000
ENDCHAR
STARTCHAR ydieresis
ENCODING 255
SWIDTH 500 0
DWIDTH 11 0
BBX 9 18 1 -4
BITMAP
3300
3300
0000
C180
C180
6300
6300
7300
3300
3600
1E00
1E00
0C00
0C00
0C00
1800
F800
F000
ENDCHAR
STARTCHAR Amacron
ENCODING 256
SWIDTH 666 0
DWIDTH 13 0
BBX 13 18 0 0
BITMAP
1F80
1F80
0000
0700
0700
0D80
0D80
0D80
18C0
18C0
18C0
3FE0
3FE0
6030
6030
6030
C018
C018
ENDCHAR
STARTCHAR amacron
ENCODING 257
SWIDTH 556 0
DWIDTH 12 0
BBX 10 14 1 0
BITMAP
3F00
3F00
0000
3F00
FF80
C180
0180
0F80
7F80
F180
C180
C380
FF80
7CC0
ENDCHAR
STARTCHAR Abreve
ENCODING 258
SWIDTH 666 0
DWIDTH 13 0
BBX 13 19 0 0
BITMAP
1080
1980
0F00
0000
0700
0700
0D80
0D80
0D80
18C0
18C0
18C0
3FE0
3FE0
6030
6030
6030
C018
C018
ENDCHAR
STARTCHAR abreve
ENCODING 259
SWIDTH 556 0
DWIDTH 12 0
BBX 10 15 1 0
BITMAP
2100
3300
1E00
0000
3F00
FF80
C180
0180
0F80
7F80
F180
C180
C380
FF80
7CC0
ENDCHAR
STARTCHAR Aogonek
ENCODING 260
SWIDTH 666 0
DWIDTH 13 0
BBX 14 19 0 -4
BITMAP
0700
0700
0D80
0D80
0D80
18C0
18C0
18C0
3FE0
3FE0
6030
6030
6030
C018
C018
0010
0010
0010
001C
ENDCHAR
STARTCHAR aogonek
ENCODING 261
SWIDTH 556 0
DWIDTH 12 0
BBX 11 15 1 -4
BITMAP
3F00
FF80
C180
0180
0F80
7F80
F180
C180
C380
FF80
7CC0
0080
0080
0080
00E0
ENDCHAR
STARTCHAR Cacute
ENCODING 262
SWIDTH 722 0
DWIDTH 15 0
BBX 13 19 1 0
BITMAP
0300
0600
0400
0000
0FC0
3FE0
3870
6038
E018
C000
C000
C000
C000
C000
E018
6030
7870
3FE0
0FC0
ENDCHAR
STARTCHAR cacute
ENCODING 263
SWIDTH 500 0
DWIDTH 11 0
BBX 9 15 1 0
BITMAP
0600
0C00
0800
0000
1E00
7F00
6380
C180
C000
C000
C000
C180
6380
7F00
3E00
ENDCHAR
STARTCHAR Ccircumflex
ENCODING 264
SWIDTH 722 0
DWIDTH 15 0
BBX 13 19 1 0
BITMAP
0700
0D80
18C0
0000
0FC0
3FE0
3870
6038
E018
C000
C000
C000
C000
C000
E018
6030
7870
3FE0
0FC0
ENDCHAR
STARTCHAR ccircumflex
ENCODING 265
SWIDTH 500 0
DWIDTH 11 0
BBX 9 15 1 0
BITMAP
1C00
3600
6300
0000
1E00
7F00
6380
C180
C000
C000
C000
C180
6380
7F00
3E00
ENDCHAR
STARTCHAR Cdotaccent
ENCODING 266
SWIDTH 722 0
DWIDTH 15 0
BBX 13 18 1 0
BITMAP
0300
0300
0000
0FC0
3FE0
3870
6038
E018
C000
C000
C000
C000
C000
E018
6030
7870
3FE0
0FC0
ENDCHAR
STARTCHAR cdotaccent
ENCODING 267
SWIDTH 500 0
DWIDTH 11 0
BBX 9 14 1 0
BITMAP
0C00
0C00
0000
1E00
7F00
6380
C180
C000
C000
C000
C180
6380
7F00
3E00
ENDCHAR
STARTCHAR Ccaron
ENCODING 268
SWIDTH 722 0
DWIDTH 15 0
BBX 13 19 1 0
BITMAP
18C0
0D80
0700
0000
0FC0
3FE0
3870
6038
E018
C000
C000
C000
C000
C000
E018
6030
7870
3FE0
0FC0
ENDCHAR
STARTCHAR ccaron
ENCODING 269
SWIDTH 500 0
DWIDTH 11 0
BBX 9 15 1 0
BITMAP
3300
1E00
0C00
0000
1E00
7F00
6380
C180
C000
C000
C000
C180
6380
7F00
3E00
ENDCHAR
STARTCHAR Dcaron
ENCODING 270
SWIDTH 722 0
DWIDTH 15 0
BBX 12 19 2 0
BITMAP
3300
1E00
0C00
0000
FF00
FFC0
C0E0
C060
C030
C030
C030
C030
C030
C030
C030
C060
C0E0
FFC0
FF00
ENDCHAR
STARTCHAR dcaron
ENCODING 271
SWIDTH 614 0
DWIDTH 13 0
BBX 12 15 1 0
BITMAP
01B0
01B0
0190
0190
3DA0
7F80
6380
C180
C180
C180
C180
C180
6380
7F80
3D80
ENDCHAR
STARTCHAR Dcroat
ENCODING 272
SWIDTH 722 0
DWIDTH 15 0
BBX 14 15 0 0
BITMAP
3FC0
3FF0
3038
3018
300C
300C
FF0C
FF0C
300C
300C
300C
3018
3038
3FF0
3FC0
ENDCHAR
STARTCHAR dcroat
ENCODING 273
SWIDTH 556 0
DWIDTH 12 0
BBX 11 15 1 0
BITMAP
0180
0FE0
0FE0
0180
3D80
7F80
6380
C180
C180
C180
C180
C180
6380
7F80
3D80
ENDCHAR
STARTCHAR Emacron
ENCODING 274
SWIDTH 666 0
DWIDTH 14 0
BBX 11 18 2 0
BITMAP
1F80
1F80
0000
FFE0
FFE0
C000
C000
C000
C000
FFC0
FFC0
C000
C000
C000
C000
C000
FFE0
FFE0
ENDCHAR
STARTCHAR emacron
ENCODING 275
SWIDTH 556 0
DWIDTH 12 0
BBX 10 14 1 0
BITMAP
3F00
3F00
0000
1E00
7F80
6180
C0C0
FFC0
FFC0
C000
C000
61C0
7F80
1F00
ENDCHAR
STARTCHAR Ebreve
ENCODING 276
SWIDTH 666 0
DWIDTH 14 0
BBX 11 19 2 0
BITMAP
1080
1980
0F00
0000
FFE0
FFE0
C000
C000
C000
C000
FFC0
FFC0
C000
C000
C000
C000
C000
FFE0
FFE0
ENDCHAR
STARTCHAR ebreve
ENCODING 277
SWIDTH 556 0
DWIDTH 12 0
BBX 10 15 1 0
BITMAP
2100
3300
1E00
0000
1E00
7F80
6180
C0C0
FFC0
FFC0
C000
C000
61C0
7F80
1F00
ENDCHAR
STARTCHAR Edotaccent
ENCODING 278
SWIDTH 666 0
DWIDTH 14 0
BBX 11 18 2 0
BITMAP
0600
0600
0000
FFE0
FFE0
C000
C000
C000
C000
FFC0
FFC0
C000
C000
C000
C000
C000
FFE0
FFE0
ENDCHAR
STARTCHAR edotaccent
ENCODING 279
SWIDTH 556 0
DWIDTH 12 0
BBX 10 14 1 0
BITMAP
0600
0600
0000
1E00
7F80
6180
C0C0
FFC0
FFC0
C000
C000
61C0
7F80
1F00
ENDCHAR
STARTCHAR Eogonek
ENCODING 280
SWIDTH 666 0
DWIDTH 14 0
BBX 12 19 2 -4
BITMAP
FFE0
FFE0
C000
C000
C000
C000
FFC0
FFC0
C000
C000
C000
C000
C000
FFE0
FFE0
0040
0040
0040
0070
ENDCHAR
STARTCHAR eogonek
ENCODING 281
SWIDTH 556 0
DWIDTH 12 0
BBX 10 15 1 -4
BITMAP
1E00
7F80
6180
C0C0
FFC0
FFC0
C000
C000
61C0
7F80
1F00
0200
0400
0400
0700
ENDCHAR
STARTCHAR Ecaron
ENCODING 282
SWIDTH 666 0
DWIDTH 14 0
BBX 11 19 2 0
BITMAP
1980
0F00
0600
0000
FFE0
FFE0
C000
C000
C000
C000
FFC0
FFC0
C000
C000
C000
C000
C000
FFE0
FFE0
ENDCHAR
STARTCHAR ecaron
ENCODING 283
SWIDTH 556 0
DWIDTH 12 0
BBX 10 15 1 0
BITMAP
3300
1E00
0C00
0000
1E00
7F80
6180
C0C0
FFC0
FFC0
C000
C000
61C0
7F80
1F00
ENDCHAR
STARTCHAR Gcircumflex
ENCODING 284
SWIDTH 777 0
DWIDTH 16 0
BBX 14 19 1 0
BITMAP
0180
03C0
0660
0000
0FC0
1FF0
3838
6018
6008
C000
C000
C1FC
C1FC
C00C
600C
600C
383C
1FF8
07E0
ENDCHAR
STARTCHAR gcircumflex
ENCODING 285
SWIDTH 556 0
DWIDTH 11 0
BBX 9 19 1 -4
BITMAP
0C00
1E00
3300
0000
3D80
7F80
6380
C180
C180
C180
C180
C180
6380
7F80
3D80
0180
C380
FF00
3E00
ENDCHAR
STARTCHAR Gbreve
ENCODING 286
SWIDTH 777 0
DWIDTH 16 0
BBX 14 19 1 0
BITMAP
0840
0CC0
0780
0000
0FC0
1FF0
3838
6018
6008
C000
C000
C1FC
C1FC
C00C
600C
600C
383C
1FF8
07E0
ENDCHAR
STARTCHAR gbreve
ENCODING 287
SWIDTH 556 0
DWIDTH 11 0
BBX 9 19 1 -4
BITMAP
4200
6600
3C00
0000
3D80
7F80
6380
C180
C180
C180
C180
C180
6380
7F80
3D80
0180
C380
FF00
3E00
ENDCHAR
STARTCHAR Gdotaccent
ENCODING 288
SWIDTH 777 0
DWIDTH 16 0
BBX 14 18 1 0
BITMAP
0300
0300
0000
0FC0
1FF0
3838
6018
6008
C000
C000
C1FC
C1FC
C00C
600C
600C
383C
1FF8
07E0
ENDCHAR
STARTCHAR gdotaccent
ENCODING 289
SWIDTH 556 0
DWIDTH 11 0
BBX 9 18 1 -4
BITMAP
0C00
0C00
0000
3D80
7F80
6380
C180
C180
C180
C180
C180
6380
7F80
3D80
0180
C380
FF00
3E00
ENDCHAR
STARTCHAR uni0122
ENCODING 290
SWIDTH 777 0
DWIDTH 16 0
BBX 14 21 1 -6
BITMAP
0FC0
1FF0
3838
6018
6008
C000
C000
C1FC
C1FC
C00C
600C
600C
383C
1FF8
07E0
0000
0180
0180
0080
0080
0080
ENDCHAR
STARTCHAR uni0123
ENCODING 291
SWIDTH 556 0
DWIDTH 12 0
BBX 9 21 1 -4
BITMAP
0800
1000
1000
1800
1800
0000
3D80
7F80
6380
C180
C180
C180
C180
C180
6380
7F80
3D80
0180
C380
FF00
3E00
ENDCHAR
STARTCHAR Hcircumflex
ENCODING 292
SWIDTH 722 0
DWIDTH 14 0
BBX 12 19 1 0
BITMAP
0700
0D80
1880
0000
C030
C030
C030
C030
C030
C030
FFF0
FFF0
C030
C030
C030
C030
C030
C030
C030
ENDCHAR
STARTCHAR hcircumflex
ENCODING 293
SWIDTH 556 0
DWIDTH 11 0
BBX 9 19 1 0
BITMAP
0C00
1E00
3300
0000
C000
C000
C000
C000
DE00
FF00
E380
C180
C180
C180
C180
C180
C180
C180
C180
ENDCHAR
STARTCHAR Hbar
ENCODING 294
SWIDTH 722 0
DWIDTH 14 0
BBX 13 15 1 0
BITMAP
6030
6030
FFF8
FFF8
6030
6030
7FF0
7FF0
6030
6030
6030
6030
6030
6030
6030
ENDCHAR
STARTCHAR hbar
ENCODING 295
SWIDTH 556 0
DWIDTH 11 0
BBX 10 15 0 0
BITMAP
6000
FE00
FE00
6000
6F00
7F80
70C0
60C0
60C0
60C0
60C0
60C0
60C0
60C0
60C0
ENDCHAR
STARTCHAR Itilde
ENCODING 296
SWIDTH 277 0
DWIDTH 6 0
BBX 7 19 -1 0
BITMAP
76
7E
DC
00
18
18
18
18
18
18
18
18
18
18
18
18
18
18
18
ENDCHAR
STARTCHAR itilde
ENCODING 297
SWIDTH 277 0
DWIDTH 6 0
BBX 7 15 -1 0
BITMAP
76
7E
EE
00
18
18
18
18
18
18
18
18
18
18
18
ENDCHAR
STARTCHAR Imacron
ENCODING 298
SWIDTH 277 0
DWIDTH 6 0
BBX 6 18 0 0
BITMAP
FC
FC
00
30
30
30
30
30
30
30
30
30
30
30
30
30
30
30
ENDCHAR
STARTCHAR imacron
ENCODING 299
SWIDTH 277 0
DWIDTH 6 0
BBX 6 14 0 0
BITMAP
FC
FC
00
30
30
30
30
30
30
30
30
30
30
30
ENDCHAR
STARTCHAR Ibreve
ENCODING 300
SWIDTH 277 0
DWIDTH 6 0
BBX 5 19 1 0
BITMAP
88
88
70
00
60
60
60
60
60
60
60
60
60
60
60
60
60
60
60
ENDCHAR
STARTCHAR ibreve
ENCODING 301
SWIDTH 277 0
DWIDTH 6 0
BBX 5 15 1 0
BITMAP
88
88
70
00
60
60
60
60
60
60
60
60
60
60
60
ENDCHAR
STARTCHAR Iogonek
ENCODING 302
SWIDTH 277 0
DWIDTH 6 0
BBX 3 19 1 -4
BITMAP
60
60
60
60
60
60
60
60
60
60
60
60
60
60
60
40
80
80
E0
ENDCHAR
STARTCHAR iogonek
ENCODING 303
SWIDTH 222 0
DWIDTH 5 0
BBX 3 19 0 -4
BITMAP
60
60
00
00
60
60
60
60
60
60
60
60
60
60
60
40
40
C0
60
ENDCHAR
STARTCHAR Idotaccent
ENCODING 304
SWIDTH 277 0
DWIDTH 6 0
BBX 2 18 2 0
BITMAP
C0
C0
00
C0
C0
C0
C0
C0
C0
C0
C0
C0
C0
C0
C0
C0
C0
C0
ENDCHAR
STARTCHAR dotlessi
ENCODING 305
SWIDTH 277 0
DWIDTH 6 0
BBX 2 11 2 0
BITMAP
C0
C0
C0
C0
C0
C0
C0
C0
C0
C0
C0
ENDCHAR
STARTCHAR IJ
ENCODING 306
SWIDTH 734 0
DWIDTH 15 0
BBX 11 15 2 0
BITMAP
C060
C060
C060
C060
C060
C060
C060
C060
C060
C060
D860
D860
DCE0
CFC0
C780
ENDCHAR
STARTCHAR ij
ENCODING 307
SWIDTH 443 0
DWIDTH 9 0
BBX 7 19 1 -4
BITMAP
C6
C6
00
00
C6
C6
C6
C6
C6
C6
C6
C6
C6
C6
C6
06
06
1E
1C
ENDCHAR
STARTCHAR Jcircumflex
ENCODING 308
SWIDTH 500 0
DWIDTH 11 0
BBX 11 19 1 0
BITMAP
0380
06C0
0460
0000
0300
0300
0300
0300
0300
0300
0300
0300
0300
0300
C300
C300
E700
7E00
3C00
ENDCHAR
STARTCHAR jcircumflex
ENCODING 309
SWIDTH 222 0
DWIDTH 4 0
BBX 6 19 -1 -4
BITMAP
30
78
CC
00
30
30
30
30
30
30
30
30
30
30
30
30
30
F0
E0
ENDCHAR
STARTCHAR uni0136
ENCODING 310
SWIDTH 666 0
DWIDTH 14 0
BBX 12 21 2 -6
BITMAP
C0E0
C1C0
C380
C700
CE00
DC00
DC00
FC00
EE00
C700
C380
C180
C1C0
C0E0
C070
0000
0600
0600
0200
0600
0400
ENDCHAR
STARTCHAR uni0137
ENCODING 311
SWIDTH 500 0
DWIDTH 10 0
BBX 9 21 1 -6
BITMAP
C000
C000
C000
C000
C380
C700
CE00
DC00
F800
FC00
CC00
C600
C700
C300
C380
0000
0C00
0C00
0400
0400
0800
ENDCHAR
STARTCHAR kgreenlandic
ENCODING 312
SWIDTH 500 0
DWIDTH 10 0
BBX 9 11 1 0
BITMAP
C300
C600
CC00
D800
F800
EC00
CC00
C600
C300
C300
C180
ENDCHAR
STARTCHAR Lacute
ENCODING 313
SWIDTH 556 0
DWIDTH 12 0
BBX 9 19 2 0
BITMAP
1800
3000
2000
0000
C000
C000
C000
C000
C000
C000
C000
C000
C000
C000
C000
C000
C000
FF80
FF80
ENDCHAR
STARTCHAR lacute
ENCODING 314
SWIDTH 222 0
DWIDTH 4 0
BBX 3 19 1 0
BITMAP
60
C0
80
00
C0
C0
C0
C0
C0
C0
C0
C0
C0
C0
C0
C0
C0
C0
C0
ENDCHAR
STARTCHAR uni013B
ENCODING 315
SWIDTH 556 0
DWIDTH 12 0
BBX 9 21 2 -6
BITMAP
C000
C000
C000
C000
C000
C000
C000
C000
C000
C000
C000
C000
C000
FF80
FF80
0000
0C00
0C00
0400
0400
0800
ENDCHAR
STARTCHAR uni013C
ENCODING 316
SWIDTH 222 0
DWIDTH 4 0
BBX 2 21 1 -6
BITMAP
C0
C0
C0
C0
C0
C0
C0
C0
C0
C0
C0
C0
C0
C0
C0
00
C0
C0
40
40
80
ENDCHAR
STARTCHAR Lcaron
ENCODING 317
SWIDTH 556 0
DWIDTH 12 0
BBX 9 15 2 0
BITMAP
C300
C300
C100
C100
C200
C000
C000
C000
C000
C000
C000
C000
C000
FF80
FF80
ENDCHAR
STARTCHAR lcaron
ENCODING 318
SWIDTH 291 0
DWIDTH 6 0
BBX 5 15 1 0
BITMAP
D8
D8
C8
C8
D0
C0
C0
C0
C0
C0
C0
C0
C0
C0
C0
ENDCHAR
STARTCHAR Ldot
ENCODING 319
SWIDTH 556 0
DWIDTH 12 0
BBX 9 15 2 0
BITMAP
C000
C000
C000
C000
C000
C000
C600
C600
C000
C000
C000
C000
C000
FF80
FF80
ENDCHAR
STARTCHAR ldot
ENCODING 320
SWIDTH 333 0
DWIDTH 7 0
BBX 6 15 1 0
BITMAP
C0
C0
C0
C0
C0
C0
CC
CC
C0
C0
C0
C0
C0
C0
C0
ENDCHAR
STARTCHAR Lslash
ENCODING 321
SWIDTH 556 0
DWIDTH 12 0
BBX 11 15 0 0
BITMAP
3000
3000
3000
3100
3700
3E00
3800
7000
F000
B000
3000
3000
3000
3FE0
3FE0
ENDCHAR
STARTCHAR lslash
ENCODING 322
SWIDTH 222 0
DWIDTH 4 0
BBX 4 15 0 0
BITMAP
60
60
60
60
60
70
70
60
E0
E0
60
60
60
60
60
ENDCHAR
STARTCHAR Nacute
ENCODING 323
SWIDTH 722 0
DWIDTH 14 0
BBX 12 19 1 0
BITMAP
0300
0600
0400
0000
C030
E030
F030
F030
D830
CC30
CC30
C630
C330
C330
C1B0
C0F0
C0F0
C070
C030
ENDCHAR
STARTCHAR nacute
ENCODING 324
SWIDTH 556 0
DWIDTH 11 0
BBX 9 15 1 0
BITMAP
0600
0C00
0800
0000
DE00
FF00
E380
C180
C180
C180
C180
C180
C180
C180
C180
ENDCHAR
STARTCHAR uni0145
ENCODING 325
SWIDTH 722 0
DWIDTH 14 0
BBX 12 21 1 -6
BITMAP
C030
E030
F030
F030
D830
CC30
CC30
C630
C330
C330
C1B0
C0F0
C0F0
C070
C030
0000
0600
0600
0200
0200
0400
ENDCHAR
STARTCHAR uni0146
ENCODING 326
SWIDTH 556 0
DWIDTH 11 0
BBX 9 17 1 -6
BITMAP
DE00
FF00
E380
C180
C180
C180
C180
C180
C180
C180
C180
0000
1800
1800
0800
0800
0800
ENDCHAR
STARTCHAR Ncaron
ENCODING 327
SWIDTH 722 0
DWIDTH 14 0
BBX 12 19 1 0
BITMAP
1980
0B00
0E00
0000
C030
E030
F030
F030
D830
CC30
CC30
C630
C330
C330
C1B0
C0F0
C0F0
C070
C030
ENDCHAR
STARTCHAR ncaron
ENCODING 328
SWIDTH 556 0
DWIDTH 11 0
BBX 9 15 1 0
BITMAP
6600
3600
1C00
0000
DE00
FF00
E380
C180
C180
C180
C180
C180
C180
C180
C180
ENDCHAR
STARTCHAR napostrophe
ENCODING 329
SWIDTH 604 0
DWIDTH 13 0
BBX 11 15 0 0
BITMAP
C000
C000
4000
4000
B780
3FC0
38E0
3060
3060
3060
3060
3060
3060
3060
3060
ENDCHAR
STARTCHAR Eng
ENCODING 330
SWIDTH 723 0
DWIDTH 15 0
BBX 12 15 2 0
BITMAP
CF80
DFC0
F0E0
E060
C030
C030
C030
C030
C030
C030
C030
C060
C060
C3C0
C780
ENDCHAR
STARTCHAR eng
ENCODING 331
SWIDTH 556 0
DWIDTH 12 0
BBX 9 15 1 -4
BITMAP
DE00
FF80
E380
C180
C180
C180
C180
C180
C180
C180
C180
0180
0180
0780
0700
ENDCHAR
STARTCHAR Omacron
ENCODING 332
SWIDTH 777 0
DWIDTH 16 0
BBX 14 18 1 0
BITMAP
0FC0
0FC0
0000
0FC0
1FE0
3870
6018
E01C
C00C
C00C
C00C
C00C
C00C
E01C
6018
3870
1FE0
0FC0
ENDCHAR
STARTCHAR omacron
ENCODING 333
SWIDTH 556 0
DWIDTH 12 0
BBX 10 14 1 0
BITMAP
3F00
3F00
0000
1E00
7F80
6180
C0C0
C0C0
C0C0
C0C0
C0C0
6180
7F80
1E00
ENDCHAR
STARTCHAR Obreve
ENCODING 334
SWIDTH 777 0
DWIDTH 16 0
BBX 14 19 1 0
BITMAP
0840
0CC0
0780
0000
0FC0
1FE0
3870
6018
E01C
C00C
C00C
C00C
C00C
C00C
E01C
6018
3870
1FE0
0FC0
ENDCHAR
STARTCHAR obreve
ENCODING 335
SWIDTH 556 0
DWIDTH 12 0
BBX 10 15 1 0
BITMAP
3100
1100
0E00
0000
1E00
7F80
6180
C0C0
C0C0
C0C0
C0C0
C0C0
6180
7F80
1E00
ENDCHAR
STARTCHAR Ohungarumlaut
ENCODING 336
SWIDTH 777 0
DWIDTH 16 0
BBX 14 19 1 0
BITMAP
0360
06C0
06C0
0000
0FC0
1FE0
3870
6018
E01C
C00C
C00C
C00C
C00C
C00C
E01C
6018
3870
1FE0
0FC0
ENDCHAR
STARTCHAR ohungarumlaut
ENCODING 337
SWIDTH 556 0
DWIDTH 12 0
BBX 10 15 1 0
BITMAP
1B00
3600
3600
0000
1E00
7F80
6180
C0C0
C0C0
C0C0
C0C0
C0C0
6180
7F80
1E00
ENDCHAR
STARTCHAR OE
ENCODING 338
SWIDTH 1000 0
DWIDTH 21 0
BBX 19 15 1 0
BITMAP
0F3FE0
3FBFE0
70F000
607000
C03000
C03000
C03FC0
C03FC0
C03000
C03000
C03000
607000
70F000
3FBFE0
1F3FE0
ENDCHAR
STARTCHAR oe
ENCODING 339
SWIDTH 943 0
DWIDTH 20 0
BBX 18 11 1 0
BITMAP
1E1E00
7F3F80
61E180
C0C0C0
C0FFC0
C0FFC0
C0C000
C0C0C0
61E180
7F3F80
1E1F00
ENDCHAR
STARTCHAR Racute
ENCODING 340
SWIDTH 722 0
DWIDTH 15 0
BBX 12 19 2 0
BITMAP
0600
0C00
0800
0000
FF80
FFC0
C0E0
C060
C060
C0E0
FFC0
FF80
C300
C380
C180
C1C0
C0E0
C060
C070
ENDCHAR
STARTCHAR racute
ENCODING 341
SWIDTH 333 0
DWIDTH 7 0
BBX 6 15 1 0
BITMAP
18
30
20
00
DC
FC
E0
C0
C0
C0
C0
C0
C0
C0
C0
ENDCHAR
STARTCHAR uni0156
ENCODING 342
SWIDTH 722 0
DWIDTH 15 0
BBX 12 21 2 -6
BITMAP
FF80
FFC0
C0E0
C060
C060
C0E0
FFC0
FF80
C300
C380
C180
C1C0
C0E0
C060
C070
0000
0600
0600
0200
0200
0200
ENDCHAR
STARTCHAR uni0157
ENCODING 343
SWIDTH 333 0
DWIDTH 7 0
BBX 6 17 1 -6
BITMAP
DC
FC
E0
C0
C0
C0
C0
C0
C0
C0
C0
00
C0
C0
40
40
80
ENDCHAR
STARTCHAR Rcaron
ENCODING 344
SWIDTH 722 0
DWIDTH 15 0
BBX 12 19 2 0
BITMAP
3300
1E00
0C00
0000
FF80
FFC0
C0E0
C060
C060
C0E0
FFC0
FF80
C300
C380
C180
C1C0
C0E0
C060
C070
ENDCHAR
STARTCHAR rcaron
ENCODING 345
SWIDTH 333 0
DWIDTH 7 0
BBX 6 15 1 0
BITMAP
CC
78
30
00
DC
FC
E0
C0
C0
C0
C0
C0
C0
C0
C0
ENDCHAR
STARTCHAR Sacute
ENCODING 346
SWIDTH 666 0
DWIDTH 14 0
BBX 12 19 1 0
BITMAP
0300
0600
0400
0000
0F80
3FE0
7070
6030
6000
7000
3F00
0FC0
00E0
0030
C030
E030
7070
3FE0
1F80
ENDCHAR
STARTCHAR sacute
ENCODING 347
SWIDTH 500 0
DWIDTH 11 0
BBX 9 15 1 0
BITMAP
0600
0C00
0800
0000
3E00
7F00
C180
C000
F800
7F00
0780
0180
C180
7F00
3E00
ENDCHAR
STARTCHAR Scircumflex
ENCODING 348
SWIDTH 666 0
DWIDTH 14 0
BBX 12 19 1 0
BITMAP
0700
0D80
1880
0000
0F80
3FE0
7070
6030
6000
7000
3F00
0FC0
00E0
0030
C030
E030
7070
3FE0
1F80
ENDCHAR
STARTCHAR scircumflex
ENCODING 349
SWIDTH 500 0
DWIDTH 11 0
BBX 9 15 1 0
BITMAP
0C00
1E00
3300
0000
3E00
7F00
C180
C000
F800
7F00
0780
0180
C180
7F00
3E00
ENDCHAR
STARTCHAR Scedilla
ENCODING 350
SWIDTH 666 0
DWIDTH 14 0
BBX 12 19 1 -4
BITMAP
0F80
3FE0
7070
6030
6000
7000
3F00
0FC0
00E0
0030
C030
E030
7070
3FE0
1F80
0400
0600
0300
1E00
ENDCHAR
STARTCHAR scedilla
ENCODING 351
SWIDTH 500 0
DWIDTH 11 0
BBX 9 15 1 -4
BITMAP
3E00
7F00
C180
C000
F800
7F00
0780
0180
C180
7F00
3E00
0800
0C00
0600
3C00
ENDCHAR
STARTCHAR Scaron
ENCODING 352
SWIDTH 666 0
DWIDTH 14 0
BBX 12 19 1 0
BITMAP
0CC0
0780
0300
0000
0F80
3FE0
7070
6030
6000
7000
3F00
0FC0
00E0
0030
C030
E030
7070
3FE0
1F80
ENDCHAR
STARTCHAR scaron
ENCODING 353
SWIDTH 500 0
DWIDTH 11 0
BBX 9 15 1 0
BITMAP
3300
1E00
0C00
0000
3E00
7F00
C180
C000
F800
7F00
0780
0180
C180
7F00
3E00
ENDCHAR
STARTCHAR uni0162
ENCODING 354
SWIDTH 610 0
DWIDTH 12 0
BBX 12 19 0 -4
BITMAP
FFF0
FFF0
0600
0600
0600
0600
0600
0600
0600
0600
0600
0600
0600
0600
0600
0200
0380
0180
0F00
ENDCHAR
STARTCHAR uni0163
ENCODING 355
SWIDTH 277 0
DWIDTH 6 0
BBX 6 19 0 -4
BITMAP
20
60
60
60
F8
F8
60
60
60
60
60
60
60
78
38
20
38
0C
78
ENDCHAR
STARTCHAR Tcaron
ENCODING 356
SWIDTH 610 0
DWIDTH 12 0
BBX 12 19 0 0
BITMAP
1980
0F00
0600
0000
FFF0
FFF0
0600
0600
0600
0600
0600
0600
0600
0600
0600
0600
0600
0600
0600
ENDCHAR
STARTCHAR tcaron
ENCODING 357
SWIDTH 375 0
DWIDTH 8 0
BBX 7 15 1 0
BITMAP
26
66
62
62
FC
F8
60
60
60
60
60
60
60
78
38
ENDCHAR
STARTCHAR Tbar
ENCODING 358
SWIDTH 610 0
DWIDTH 13 0
BBX 12 15 0 0
BITMAP
FFF0
FFF0
0600
0600
0600
0600
0600
3FC0
3FC0
0600
0600
0600
0600
0600
0600
ENDCHAR
STARTCHAR tbar
ENCODING 359
SWIDTH 277 0
DWIDTH 6 0
BBX 5 14 0 0
BITMAP
60
60
60
F8
F8
60
60
F8
F8
60
60
60
78
38
ENDCHAR
STARTCHAR Utilde
ENCODING 360
SWIDTH 722 0
DWIDTH 14 0
BBX 12 19 1 0
BITMAP
1D80
1F80
3300
0000
C030
C030
C030
C030
C030
C030
C030
C030
C030
C030
C030
E070
70E0
3FC0
1F80
ENDCHAR
STARTCHAR utilde
ENCODING 361
SWIDTH 556 0
DWIDTH 11 0
BBX 9 15 1 0
BITMAP
7600
7E00
CE00
0000
C180
C180
C180
C180
C180
C180
C180
C180
E380
7F80
3D80
ENDCHAR
STARTCHAR Umacron
ENCODING 362
SWIDTH 722 0
DWIDTH 14 0
BBX 12 18 1 0
BITMAP
1F80
1F80
0000
C030
C030
C030
C030
C030
C030
C030
C030
C030
C030
C030
E070
70E0
3FC0
1F80
ENDCHAR
STARTCHAR umacron
ENCODING 363
SWIDTH 556 0
DWIDTH 11 0
BBX 9 14 1 0
BITMAP
7E00
7E00
0000
C180
C180
C180
C180
C180
C180
C180
C180
E380
7F80
3D80
ENDCHAR
STARTCHAR Ubreve
ENCODING 364
SWIDTH 722 0
DWIDTH 14 0
BBX 12 19 1 0
BITMAP
1080
0980
0700
0000
C030
C030
C030
C030
C030
C030
C030
C030
C030
C030
C030
E070
70E0
3FC0
1F80
ENDCHAR
STARTCHAR ubreve
ENCODING 365
SWIDTH 556 0
DWIDTH 11 0
BBX 9 15 1 0
BITMAP
2100
3300
1E00
0000
C180
C180
C180
C180
C180
C180
C180
C180
E380
7F80
3D80
ENDCHAR
STARTCHAR Uring
ENCODING 366
SWIDTH 722 0
DWIDTH 14 0
BBX 12 19 1 0
BITMAP
0700
0880
0880
0880
C730
C030
C030
C030
C030
C030
C030
C030
C030
C030
C030
E070
70E0
3FC0
1F80
ENDCHAR
STARTCHAR uring
ENCODING 367
SWIDTH 556 0
DWIDTH 11 0
BBX 9 17 1 0
BITMAP
1C00
3200
2200
3200
1C00
0000
C180
C180
C180
C180
C180
C180
C180
C180
E380
7F80
3D80
ENDCHAR
STARTCHAR Uhungarumlaut
ENCODING 368
SWIDTH 722 0
DWIDTH 14 0
BBX 12 19 1 0
BITMAP
0D80
1B00
1B00
0000
C030
C030
C030
C030
C030
C030
C030
C030
C030
C030
C030
E070
70E0
3FC0
1F80
ENDCHAR
STARTCHAR uhungarumlaut
ENCODING 369
SWIDTH 556 0
DWIDTH 11 0
BBX 9 15 1 0
BITMAP
1B00
3600
3600
0000
C180
C180
C180
C180
C180
C180
C180
C180
E380
7F80
3D80
ENDCHAR
STARTCHAR Uogonek
ENCODING 370
SWIDTH 722 0
DWIDTH 14 0
BBX 12 19 1 -4
BITMAP
C030
C030
C030
C030
C030
C030
C030
C030
C030
C030
C030
E070
70E0
3FC0
1F80
0100
0200
0200
0380
ENDCHAR
STARTCHAR uogonek
ENCODING 371
SWIDTH 556 0
DWIDTH 11 0
BBX 9 15 1 -4
BITMAP
C180
C180
C180
C180
C180
C180
C180
C180
E380
7F80
3D80
0100
0100
0300
0180
ENDCHAR
STARTCHAR Wcircumflex
ENCODING 372
SWIDTH 943 0
DWIDTH 21 0
BBX 21 19 0 0
BITMAP
003000
007800
00CC00
000000
C07018
C07018
60D830
60D830
60D830
708870
318C60
318C60
318C60
1B06C0
1B06C0
1B06C0
1B06C0
0E0380
0E0380
ENDCHAR
STARTCHAR wcircumflex
ENCODING 373
SWIDTH 722 0
DWIDTH 15 0
BBX 15 15 0 0
BITMAP
0180
03C0
0660
0000
C106
C386
4384
628C
66CC
36D8
36D8
1450
1C70
1C70
0C60
ENDCHAR
STARTCHAR Ycircumflex
ENCODING 374
SWIDTH 666 0
DWIDTH 14 0
BBX 14 19 0 0
BITMAP
0700
0D80
0CC0
0000
E01C
6018
3030
3870
1CE0
0CC0
0780
0780
0300
0300
0300
0300
0300
0300
0300
ENDCHAR
STARTCHAR ycircumflex
ENCODING 375
SWIDTH 500 0
DWIDTH 11 0
BBX 9 19 1 -4
BITMAP
0C00
1E00
3300
0000
C180
C180
6300
6300
7300
3300
3600
1E00
1E00
0C00
0C00
0C00
1800
F800
F000
ENDCHAR
STARTCHAR Ydieresis
ENCODING 376
SWIDTH 666 0
DWIDTH 14 0
BBX 14 18 0 0
BITMAP
0CC0
0CC0
0000
E01C
6018
3030
3870
1CE0
0CC0
0780
0780
0300
0300
0300
0300
0300
0300
0300
ENDCHAR
STARTCHAR Zacute
ENCODING 377
SWIDTH 610 0
DWIDTH 13 0
BBX 12 19 0 0
BITMAP
0180
0300
0200
0000
7FF0
7FF0
0060
00C0
0180
0180
0300
0600
0C00
1800
1800
3000
6000
FFF0
FFF0
ENDCHAR
STARTCHAR zacute
ENCODING 378
SWIDTH 500 0
DWIDTH 9 0
BBX 9 15 0 0
BITMAP
0600
0C00
0800
0000
7F80
7F80
0380
0700
0E00
1C00
3800
7000
E000
FF80
FF80
ENDCHAR
STARTCHAR Zdotaccent
ENCODING 379
SWIDTH 610 0
DWIDTH 13 0
BBX 12 18 0 0
BITMAP
0180
0180
0000
7FF0
7FF0
0060
00C0
0180
0180
0300
0600
0C00
1800
1800
3000
6000
FFF0
FFF0
ENDCHAR
STARTCHAR zdotaccent
ENCODING 380
SWIDTH 500 0
DWIDTH 9 0
BBX 9 14 0 0
BITMAP
0C00
0C00
0000
7F80
7F80
0380
0700
0E00
1C00
3800
7000
E000
FF80
FF80
ENDCHAR
STARTCHAR Zcaron
ENCODING 381
SWIDTH 610 0
DWIDTH 13 0
BBX 12 19 0 0
BITMAP
0CC0
0580
0700
0000
7FF0
7FF0
0060
00C0
0180
0180
0300
0600
0C00
1800
1800
3000
6000
FFF0
FFF0
ENDCHAR
STARTCHAR zcaron
ENCODING 382
SWIDTH 500 0
DWIDTH 9 0
BBX 9 15 0 0
BITMAP
3300
1E00
1C00
0000
7F80
7F80
0380
0700
0E00
1C00
3800
7000
E000
FF80
FF80
ENDCHAR
STARTCHAR longs
ENCODING 383
SWIDTH 222 0
DWIDTH 5 0
BBX 5 15 1 0
BITMAP
78
F8
C0
C0
C0
C0
C0
C0
C0
C0
C0
C0
C0
C0
C0
ENDCHAR
STARTCHAR uni0180
ENCODING 384
SWIDTH 556 0
DWIDTH 12 0
BBX 10 15 1 0
BITMAP
6000
FE00
FE00
6000
6F00
7F80
7180
60C0
60C0
60C0
60C0
60C0
7180
7F80
6F00
ENDCHAR
STARTCHAR uni0181
ENCODING 385
SWIDTH 758 0
DWIDTH 16 0
BBX 15 15 0 0
BITMAP
7FF0
FFF8
CC1C
CC0C
0C0C
0C18
0FF0
0FF8
0C0C
0C06
0C06
0C06
0C0E
0FFC
0FF8
ENDCHAR
STARTCHAR uni0182
ENCODING 386
SWIDTH 656 0
DWIDTH 14 0
BBX 11 15 2 0
BITMAP
FF80
FF80
C000
C000
C000
C000
FF80
FFC0
C0E0
C060
C060
C060
C0E0
FFC0
FF80
ENDCHAR
STARTCHAR uni0183
ENCODING 387
SWIDTH 556 0
DWIDTH 12 0
BBX 9 15 2 0
BITMAP
FE00
FE00
C000
C000
DE00
FF00
E300
C180
C180
C180
C180
C180
E300
FF00
DE00
ENDCHAR
STARTCHAR uni0184
ENCODING 388
SWIDTH 656 0
DWIDTH 14 0
BBX 13 15 0 0
BITMAP
1000
7000
F000
7000
3000
3000
3FE0
3FF0
3038
3018
3018
3018
3038
3FF0
3FE0
ENDCHAR
STARTCHAR uni0185
ENCODING 389
SWIDTH 556 0
DWIDTH 12 0
BBX 10 15 1 0
BITMAP
2000
6000
E000
6000
6F00
7F80
7180
60C0
60C0
60C0
60C0
60C0
7180
7F80
6F00
ENDCHAR
STARTCHAR uni0186
ENCODING 390
SWIDTH 722 0
DWIDTH 15 0
BBX 13 15 1 0
BITMAP
1F80
3FE0
70F0
E030
C038
0018
0018
0018
0018
0018
4038
E030
7070
3FE0
1F80
ENDCHAR
STARTCHAR uni0187
ENCODING 391
SWIDTH 722 0
DWIDTH 15 0
BBX 15 17 1 0
BITMAP
000E
001E
0F98
3FF8
7878
6038
E010
C000
C000
C000
C000
C000
E018
6038
7870
3FE0
0FC0
ENDCHAR
STARTCHAR uni0188
ENCODING 392
SWIDTH 500 0
DWIDTH 11 0
BBX 11 13 1 0
BITMAP
00E0
01E0
1F80
7F80
6380
C180
C000
C000
C000
C180
6380
7F00
3E00
ENDCHAR
STARTCHAR uni0189
ENCODING 393
SWIDTH 722 0
DWIDTH 15 0
BBX 14 15 0 0
BITMAP
3FC0
3FF0
3038
3018
300C
300C
FF0C
FF0C
300C
300C
300C
3018
3038
3FF0
3FC0
ENDCHAR
STARTCHAR uni018A
ENCODING 394
SWIDTH 809 0
DWIDTH 17 0
BBX 16 15 0 0
BITMAP
7FF0
FFFC
CC0E
CC06
0C03
0C03
0C03
0C03
0C03
0C03
0C03
0C06
0C0E
0FFC
0FF0
ENDCHAR
STARTCHAR uni018B
ENCODING 395
SWIDTH 656 0
DWIDTH 14 0
BBX 11 15 1 0
BITMAP
3FE0
3FE0
0060
0060
0060
0060
3FE0
7FE0
E060
C060
C060
C060
E060
7FE0
3FE0
ENDCHAR
STARTCHAR uni018C
ENCODING 396
SWIDTH 556 0
DWIDTH 12 0
BBX 9 15 1 0
BITMAP
3F80
3F80
0180
0180
3D80
7F80
6380
C180
C180
C180
C180
C180
6380
7F80
3D80
ENDCHAR
STARTCHAR uni018D
ENCODING 397
SWIDTH 556 0
DWIDTH 12 0
BBX 10 15 1 -4
BITMAP
1E00
7F80
6180
C0C0
C0C0
C0C0
C0C0
C0C0
6180
7F80
3E00
0C00
0300
7F80
7F80
ENDCHAR
STARTCHAR uni018E
ENCODING 398
SWIDTH 666 0
DWIDTH 14 0
BBX 11 15 1 0
BITMAP
FFE0
FFE0
0060
0060
0060
0060
7FE0
7FE0
0060
0060
0060
0060
0060
FFE0
FFE0
ENDCHAR
STARTCHAR uni018F
ENCODING 399
SWIDTH 752 0
DWIDTH 16 0
BBX 14 15 1 0
BITMAP
0FC0
1FE0
3830
7018
600C
000C
FFFC
FFFC
C00C
C00C
601C
6018
3878
3FF0
0FC0
ENDCHAR
STARTCHAR uni0190
ENCODING 400
SWIDTH 604 0
DWIDTH 13 0
BBX 11 15 1 0
BITMAP
1F00
3FC0
70C0
6060
6060
7000
3E00
3E00
6000
C000
C000
C060
E0C0
7FC0
1F00
ENDCHAR
STARTCHAR uni0191
ENCODING 401
SWIDTH 610 0
DWIDTH 13 0
BBX 12 19 0 -4
BITMAP
3FF0
3FF0
3000
3000
3000
3000
3FE0
3FE0
3000
3000
3000
3000
3000
3000
3000
3000
3000
F000
E000
ENDCHAR
STARTCHAR florin
ENCODING 402
SWIDTH 556 0
DWIDTH 12 0
BBX 11 19 0 -4
BITMAP
01E0
03E0
0300
0300
1FC0
1FC0
0600
0600
0600
0600
0C00
0C00
0C00
0C00
0C00
1800
1800
7800
F000
ENDCHAR
STARTCHAR uni0193
ENCODING 403
SWIDTH 777 0
DWIDTH 16 0
BBX 16 17 1 0
BITMAP
0007
000F
07CC
1FFC
383C
600C
6000
C000
C000
C0FC
C0FC
C00C
600C
600C
383C
1FF8
07E0
ENDCHAR
STARTCHAR uni0194
ENCODING 404
SWIDTH 624 0
DWIDTH 13 0
BBX 13 19 0 -4
BITMAP
C018
6030
6030
3060
3060
18C0
18C0
0D80
0D80
0D80
0700
0700
0700
0700
0D80
0D80
0D80
0F80
0700
ENDCHAR
STARTCHAR uni0195
ENCODING 405
SWIDTH 880 0
DWIDTH 19 0
BBX 17 15 1 0
BITMAP
C00000
C00000
C00000
C00000
DE0180
FF0180
E38180
C18180
C18180
C18180
C18180
C18180
C1C380
C0FF00
C07E00
ENDCHAR
STARTCHAR uni0196
ENCODING 406
SWIDTH 222 0
DWIDTH 5 0
BBX 2 15 1 0
BITMAP
C0
C0
C0
C0
C0
C0
C0
C0
C0
C0
C0
C0
C0
C0
C0
ENDCHAR
STARTCHAR uni0197
ENCODING 407
SWIDTH 277 0
DWIDTH 6 0
BBX 6 15 0 0
BITMAP
30
30
30
30
30
30
30
FC
FC
30
30
30
30
30
30
ENDCHAR
STARTCHAR uni0198
ENCODING 408
SWIDTH 666 0
DWIDTH 14 0
BBX 13 15 1 0
BITMAP
7870
F8E0
C1C0
C380
C700
CE00
DE00
F700
E300
C380
C1C0
C0C0
C060
C070
C038
ENDCHAR
STARTCHAR uni0199
ENCODING 409
SWIDTH 500 0
DWIDTH 11 0
BBX 10 15 1 0
BITMAP
7800
F800
C000
C000
C380
C700
CE00
DC00
FC00
EC00
C600
C700
C300
C180
C1C0
ENDCHAR
STARTCHAR uni019A
ENCODING 410
SWIDTH 222 0
DWIDTH 5 0
BBX 4 15 0 0
BITMAP
60
60
60
60
60
60
F0
F0
60
60
60
60
60
60
60
ENDCHAR
STARTCHAR uni019B
ENCODING 411
SWIDTH 500 0
DWIDTH 11 0
BBX 11 15 0 0
BITMAP
1B00
0F00
3C00
7600
4600
0E00
0F00
1B00
1B00
1980
3180
30C0
60C0
60C0
C060
ENDCHAR
STARTCHAR uni019C
ENCODING 412
SWIDTH 890 0
DWIDTH 19 0
BBX 16 15 1 0
BITMAP
C183
C183
C183
C183
C183
C183
C183
C183
C183
C183
C183
C183
E3C7
7EFF
3C7B
ENDCHAR
STARTCHAR uni019D
ENCODING 413
SWIDTH 722 0
DWIDTH 15 0
BBX 15 19 -1 -4
BITMAP
3806
3806
3C06
3606
3606
3306
3186
3086
30C6
3066
3036
3036
301E
300E
300E
3000
3000
F000
E000
ENDCHAR
STARTCHAR uni019E
ENCODING 414
SWIDTH 556 0
DWIDTH 12 0
BBX 9 15 2 -4
BITMAP
CE00
FF00
E380
C180
C180
C180
C180
C180
C180
C180
C180
0180
0180
0180
0180
ENDCHAR
STARTCHAR uni019F
ENCODING 415
SWIDTH 777 0
DWIDTH 16 0
BBX 14 15 1 0
BITMAP
0FC0
1FE0
3870
6018
C00C
C00C
FFFC
FFFC
C00C
C00C
601C
6018
3870
1FE0
0FC0
ENDCHAR
STARTCHAR Ohorn
ENCODING 416
SWIDTH 857 0
DWIDTH 18 0
BBX 16 15 1 0
BITMAP
0FC3
1FF3
3879
6019
E01E
C00C
C00C
C00C
C00C
C00C
E018
6018
3870
1FE0
0FC0
ENDCHAR
STARTCHAR ohorn
ENCODING 417
SWIDTH 655 0
DWIDTH 14 0
BBX 12 11 1 0
BITMAP
1E30
7FB0
6190
C0D0
C0E0
C0C0
C0C0
C0C0
6180
7F80
1E00
ENDCHAR
STARTCHAR uni01A2
ENCODING 418
SWIDTH 868 0
DWIDTH 18 0
BBX 15 19 1 -4
BITMAP
0F86
1FFE
387E
6066
6066
C066
C066
C066
C066
C066
E066
6066
3866
1FE6
0FC6
0006
0006
0006
0006
ENDCHAR
STARTCHAR uni01A3
ENCODING 419
SWIDTH 667 0
DWIDTH 14 0
BBX 12 15 1 -4
BITMAP
1E30
7FF0
6330
C330
C330
C330
C330
C330
6330
7F30
1E30
0030
0030
0030
0030
ENDCHAR
STARTCHAR uni01A4
ENCODING 420
SWIDTH 754 0
DWIDTH 16 0
BBX 15 15 0 0
BITMAP
7FF8
FFFC
CC0E
CC06
0C06
0C06
0C0E
0FFC
0FF8
0C00
0C00
0C00
0C00
0C00
0C00
ENDCHAR
STARTCHAR uni01A5
ENCODING 421
SWIDTH 556 0
DWIDTH 12 0
BBX 9 19 2 -4
BITMAP
7800
F800
C000
C000
DE00
FF00
E300
C180
C180
C180
C180
C180
E300
FF00
DE00
C000
C000
C000
C000
ENDCHAR
STARTCHAR uni01A6
ENCODING 422
SWIDTH 666 0
DWIDTH 14 0
BBX 13 19 1 -4
BITMAP
C000
C000
FFC0
FFE0
C070
C030
C030
C030
C070
FFE0
FFC0
C300
C180
C180
C0C0
0060
0060
0030
0018
ENDCHAR
STARTCHAR uni01A7
ENCODING 423
SWIDTH 666 0
DWIDTH 14 0
BBX 12 15 1 0
BITMAP
1F80
7FC0
60E0
C060
C060
01E0
1FC0
7F00
7000
C000
C030
C070
60E0
7FC0
1F80
ENDCHAR
STARTCHAR uni01A8
ENCODING 424
SWIDTH 500 0
DWIDTH 11 0
BBX 9 11 1 0
BITMAP
3E00
7F00
C180
0180
0F80
7F00
F800
C180
C380
7F00
3E00
ENDCHAR
STARTCHAR uni01A9
ENCODING 425
SWIDTH 618 0
DWIDTH 13 0
BBX 10 15 2 0
BITMAP
FFC0
FFC0
C000
6000
3000
1800
0C00
0C00
0C00
1800
3000
6000
C000
FFC0
FFC0
ENDCHAR
STARTCHAR uni01AA
ENCODING 426
SWIDTH 380 0
DWIDTH 8 0
BBX 7 19 1 -4
BITMAP
70
98
98
78
18
18
18
18
18
18
18
18
18
18
18
18
18
1E
0E
ENDCHAR
STARTCHAR uni01AB
ENCODING 427
SWIDTH 277 0
DWIDTH 6 0
BBX 5 19 0 -4
BITMAP
20
60
60
60
F8
F8
60
60
60
60
60
60
60
78
38
18
18
78
70
ENDCHAR
STARTCHAR uni01AC
ENCODING 428
SWIDTH 610 0
DWIDTH 13 0
BBX 13 15 0 0
BITMAP
7FF8
FFF8
C300
C300
0300
0300
0300
0300
0300
0300
0300
0300
0300
0300
0300
ENDCHAR
STARTCHAR uni01AD
ENCODING 429
SWIDTH 277 0
DWIDTH 6 0
BBX 6 15 0 0
BITMAP
3C
7C
60
60
F8
F8
60
60
60
60
60
60
60
78
38
ENDCHAR
STARTCHAR uni01AE
ENCODING 430
SWIDTH 610 0
DWIDTH 13 0
BBX 12 19 0 -4
BITMAP
FFF0
FFF0
0600
0600
0600
0600
0600
0600
0600
0600
0600
0600
0600
0600
0600
0600
0600
0780
0380
ENDCHAR
STARTCHAR Uhorn
ENCODING 431
SWIDTH 854 0
DWIDTH 18 0
BBX 16 15 1 0
BITMAP
C033
C033
C031
C031
C032
C03C
C030
C030
C030
C030
C030
E070
70E0
7FE0
1F80
ENDCHAR
STARTCHAR uhorn
ENCODING 432
SWIDTH 669 0
DWIDTH 14 0
BBX 12 11 1 0
BITMAP
C1B0
C1B0
C190
C190
C1E0
C180
C180
C180
E380
7F80
3980
ENDCHAR
STARTCHAR uni01B1
ENCODING 433
SWIDTH 747 0
DWIDTH 16 0
BBX 14 15 1 0
BITMAP
FCFC
FCFC
1860
3030
6018
C00C
C00C
C00C
C00C
C00C
E01C
6018
7878
3FF0
0FC0
ENDCHAR
STARTCHAR uni01B2
ENCODING 434
SWIDTH 722 0
DWIDTH 15 0
BBX 12 15 1 0
BITMAP
C1C0
C1E0
C030
C030
C030
C030
C030
C030
C030
C030
C060
E060
70E0
3FC0
1F00
ENDCHAR
STARTCHAR uni01B3
ENCODING 435
SWIDTH 772 0
DWIDTH 16 0
BBX 16 15 0 0
BITMAP
C00E
601F
301A
3030
1860
0CC0
0CC0
0780
0300
0300
0300
0300
0300
0300
0300
ENDCHAR
STARTCHAR uni01B4
ENCODING 436
SWIDTH 500 0
DWIDTH 11 0
BBX 15 19 0 -4
BITMAP
001C
003E
0060
0060
C0C0
60C0
61C0
7180
3180
3300
1B00
1E00
1E00
0E00
0C00
0C00
1800
7800
7000
ENDCHAR
STARTCHAR uni01B5
ENCODING 437
SWIDTH 610 0
DWIDTH 13 0
BBX 11 15 1 0
BITMAP
7FE0
7FE0
0060
00C0
0180
0300
FFE0
FFE0
0C00
1800
3000
6000
C000
FFE0
FFE0
ENDCHAR
STARTCHAR uni01B6
ENCODING 438
SWIDTH 500 0
DWIDTH 11 0
BBX 9 11 1 0
BITMAP
FF80
FF80
0300
0600
FF80
FF80
1800
3000
6000
FF80
FF80
ENDCHAR
STARTCHAR uni01B7
ENCODING 439
SWIDTH 610 0
DWIDTH 13 0
BBX 12 19 0 -4
BITMAP
7FF0
7FF0
0060
00C0
0180
0300
0600
0780
07C0
00E0
0070
0030
0030
0030
4030
E060
70E0
3FC0
1F00
ENDCHAR
STARTCHAR uni01B8
ENCODING 440
SWIDTH 610 0
DWIDTH 13 0
BBX 12 19 1 -4
BITMAP
FFE0
FFE0
6000
3000
1800
0C00
0600
1E00
3E00
7000
E000
C000
C000
C000
C020
6070
70E0
3FC0
0F80
ENDCHAR
STARTCHAR uni01B9
ENCODING 441
SWIDTH 544 0
DWIDTH 11 0
BBX 9 15 1 -4
BITMAP
7F80
7F80
3000
1800
0C00
3C00
7C00
E000
C000
C000
C000
C180
6380
7F00
1E00
ENDCHAR
STARTCHAR uni01BA
ENCODING 442
SWIDTH 544 0
DWIDTH 11 0
BBX 9 15 1 -4
BITMAP
7F80
7F80
0300
0C00
0F00
0F80
0180
0180
0380
3F00
7C00
C180
C380
FF00
3E00
ENDCHAR
STARTCHAR uni01BB
ENCODING 443
SWIDTH 556 0
DWIDTH 12 0
BBX 10 15 1 0
BITMAP
3F00
7F80
E1C0
C0C0
00C0
0180
FFC0
FFC0
0600
0C00
1800
3000
6000
FFC0
FFC0
ENDCHAR
STARTCHAR uni01BC
ENCODING 444
SWIDTH 556 0
DWIDTH 12 0
BBX 10 15 1 0
BITMAP
FF80
FF80
3000
3000
3000
3F00
3F80
01C0
00C0
00C0
00C0
C0C0
E180
7F80
3E00
ENDCHAR
STARTCHAR uni01BD
ENCODING 445
SWIDTH 458 0
DWIDTH 10 0
BBX 8 11 1 0
BITMAP
FF
FF
30
30
3E
3F
03
C3
E3
7E
3C
ENDCHAR
STARTCHAR uni01BE
ENCODING 446
SWIDTH 486 0
DWIDTH 10 0
BBX 9 15 0 0
BITMAP
1000
3000
3000
3000
FC00
FC00
3000
3000
3800
1F00
0780
C180
E180
7F00
3E00
ENDCHAR
STARTCHAR uni01BF
ENCODING 447
SWIDTH 556 0
DWIDTH 12 0
BBX 10 15 1 -4
BITMAP
CF00
DF80
E1C0
E0C0
C0C0
C0C0
C0C0
C180
C700
DE00
F800
E000
C000
C000
C000
ENDCHAR
STARTCHAR uni01C0
ENCODING 448
SWIDTH 259 0
DWIDTH 5 0
BBX 2 15 2 0
BITMAP
C0
C0
C0
C0
C0
C0
C0
C0
C0
C0
C0
C0
C0
C0
C0
ENDCHAR
STARTCHAR uni01C1
ENCODING 449
SWIDTH 413 0
DWIDTH 9 0
BBX 6 15 1 0
BITMAP
CC
CC
CC
CC
CC
CC
CC
CC
CC
CC
CC
CC
CC
CC
CC
ENDCHAR
STARTCHAR uni01C2
ENCODING 450
SWIDTH 583 0
DWIDTH 12 0
BBX 10 15 1 0
BITMAP
0C00
0C00
0C00
0C00
0C00
FFC0
FFC0
0C00
0C00
FFC0
FFC0
0C00
0C00
0C00
0C00
ENDCHAR
STARTCHAR uni01C3
ENCODING 451
SWIDTH 277 0
DWIDTH 6 0
BBX 2 15 2 0
BITMAP
C0
C0
C0
C0
C0
C0
C0
C0
C0
C0
C0
00
00
C0
C0
ENDCHAR
STARTCHAR uni01C4
ENCODING 452
SWIDTH 1333 0
DWIDTH 28 0
BBX 25 19 2 0
BITMAP
0000CC00
00006800
00003800
00000000
FF03FF80
FFC3FF80
C0E00300
C0600600
C0300C00
C0300C00
C0301800
C0303000
C0306000
C030C000
C030C000
C0618000
C0E30000
FFC7FF80
FF07FF80
ENDCHAR
STARTCHAR uni01C5
ENCODING 453
SWIDTH 1222 0
DWIDTH 26 0
BBX 22 15 2 0
BITMAP
FF018C
FFC0D8
C0E070
C06000
C033FC
C033FC
C0301C
C03038
C03070
C030E0
C031C0
C06380
C0E700
FFC7FC
FF07FC
ENDCHAR
STARTCHAR uni01C6
ENCODING 454
SWIDTH 1048 0
DWIDTH 22 0
BBX 20 15 1 0
BITMAP
018660
0182C0
018380
018000
3D8FF0
7F8FF0
638070
C180E0
C181C0
C18380
C18700
C18E00
639C00
7F9FF0
3D9FF0
ENDCHAR
STARTCHAR uni01C7
ENCODING 455
SWIDTH 1062 0
DWIDTH 22 0
BBX 18 15 2 0
BITMAP
C000C0
C000C0
C000C0
C000C0
C000C0
C000C0
C000C0
C000C0
C000C0
C000C0
C030C0
C030C0
C039C0
FF9F80
FF8F00
ENDCHAR
STARTCHAR uni01C8
ENCODING 456
SWIDTH 833 0
DWIDTH 18 0
BBX 14 19 2 -4
BITMAP
C00C
C00C
C000
C000
C00C
C00C
C00C
C00C
C00C
C00C
C00C
C00C
C00C
FF8C
FF8C
000C
000C
003C
0038
ENDCHAR
STARTCHAR uni01C9
ENCODING 457
SWIDTH 451 0
DWIDTH 9 0
BBX 7 19 1 -4
BITMAP
C6
C6
C0
C0
C6
C6
C6
C6
C6
C6
C6
C6
C6
C6
C6
06
06
1E
1C
ENDCHAR
STARTCHAR uni01CA
ENCODING 458
SWIDTH 1222 0
DWIDTH 26 0
BBX 23 15 1 0
BITMAP
C03006
E03006
F03006
F03006
D83006
CC3006
CC3006
C63006
C33006
C33006
C1B186
C0F186
C0F1CE
C070FC
C03078
ENDCHAR
STARTCHAR uni01CB
ENCODING 459
SWIDTH 944 0
DWIDTH 20 0
BBX 17 19 1 -4
BITMAP
C03180
E03180
F03000
F03000
D83180
CC3180
CC3180
C63180
C33180
C33180
C1B180
C0F180
C0F180
C07180
C03180
000180
000180
000780
000700
ENDCHAR
STARTCHAR uni01CC
ENCODING 460
SWIDTH 770 0
DWIDTH 16 0
BBX 14 19 1 -4
BITMAP
000C
000C
0000
0000
DE0C
FF0C
E38C
C18C
C18C
C18C
C18C
C18C
C18C
C18C
C18C
000C
000C
003C
0038
ENDCHAR
STARTCHAR uni01CD
ENCODING 461
SWIDTH 666 0
DWIDTH 13 0
BBX 13 19 0 0
BITMAP
0CC0
0680
0380
0000
0700
0700
0D80
0D80
0D80
18C0
18C0
18C0
3FE0
3FE0
6030
6030
6030
C018
C018
ENDCHAR
STARTCHAR uni01CE
ENCODING 462
SWIDTH 556 0
DWIDTH 12 0
BBX 10 15 1 0
BITMAP
3180
1B00
0E00
0000
3F00
FF80
C180
0180
0F80
7F80
F180
C180
C380
FF80
7CC0
ENDCHAR
STARTCHAR uni01CF
ENCODING 463
SWIDTH 277 0
DWIDTH 6 0
BBX 6 19 0 0
BITMAP
CC
6C
38
00
30
30
30
30
30
30
30
30
30
30
30
30
30
30
30
ENDCHAR
STARTCHAR uni01D0
ENCODING 464
SWIDTH 222 0
DWIDTH 5 0
BBX 6 15 -1 0
BITMAP
CC
58
70
00
30
30
30
30
30
30
30
30
30
30
30
ENDCHAR
STARTCHAR uni01D1
ENCODING 465
SWIDTH 777 0
DWIDTH 16 0
BBX 14 19 1 0
BITMAP
0460
06C0
0380
0000
0FC0
1FE0
3870
6018
E01C
C00C
C00C
C00C
C00C
C00C
E01C
6018
3870
1FE0
0FC0
ENDCHAR
STARTCHAR uni01D2
ENCODING 466
SWIDTH 556 0
DWIDTH 12 0
BBX 10 15 1 0
BITMAP
3300
1A00
0E00
0000
1E00
7F80
6180
C0C0
C0C0
C0C0
C0C0
C0C0
6180
7F80
1E00
ENDCHAR
STARTCHAR uni01D3
ENCODING 467
SWIDTH 722 0
DWIDTH 14 0
BBX 12 19 1 0
BITMAP
1980
0F00
0700
0000
C030
C030
C030
C030
C030
C030
C030
C030
C030
C030
C030
E070
70E0
3FC0
1F80
ENDCHAR
STARTCHAR uni01D4
ENCODING 468
SWIDTH 556 0
DWIDTH 11 0
BBX 9 15 1 0
BITMAP
6600
3600
1C00
0000
C180
C180
C180
C180
C180
C180
C180
C180
E380
7F80
3D80
ENDCHAR
STARTCHAR uni01D5
ENCODING 469
SWIDTH 722 0
DWIDTH 14 0
BBX 12 19 1 0
BITMAP
0F80
0000
0880
0000
C030
C030
C030
C030
C030
C030
C030
C030
C030
C030
C030
E070
70E0
3FC0
1F80
ENDCHAR
STARTCHAR uni01D6
ENCODING 470
SWIDTH 556 0
DWIDTH 11 0
BBX 9 18 1 0
BITMAP
7E00
7E00
0000
0000
6600
6600
0000
C180
C180
C180
C180
C180
C180
C180
C180
E380
7F80
3D80
ENDCHAR
STARTCHAR uni01D7
ENCODING 471
SWIDTH 722 0
DWIDTH 14 0
BBX 12 19 1 0
BITMAP
0200
0200
0880
0000
C030
C030
C030
C030
C030
C030
C030
C030
C030
C030
C030
E070
70E0
3FC0
1F80
ENDCHAR
STARTCHAR uni01D8
ENCODING 472
SWIDTH 556 0
DWIDTH 11 0
BBX 9 19 1 0
BITMAP
0C00
0800
0800
0000
0000
6600
6600
0000
C180
C180
C180
C180
C180
C180
C180
C180
E380
7F80
3D80
ENDCHAR
STARTCHAR uni01D9
ENCODING 473
SWIDTH 722 0
DWIDTH 14 0
BBX 12 19 1 0
BITMAP
0600
0600
0880
0000
C030
C030
C030
C030
C030
C030
C030
C030
C030
C030
C030
E070
70E0
3FC0
1F80
ENDCHAR
STARTCHAR uni01DA
ENCODING 474
SWIDTH 556 0
DWIDTH 11 0
BBX 9 19 1 0
BITMAP
6600
3600
1C00
0000
0000
6600
6600
0000
C180
C180
C180
C180
C180
C180
C180
C180
E380
7F80
3D80
ENDCHAR
STARTCHAR uni01DB
ENCODING 475
SWIDTH 722 0
DWIDTH 14 0
BBX 12 19 1 0
BITMAP
0400
0200
0880
0000
C030
C030
C030
C030
C030
C030
C030
C030
C030
C030
C030
E070
70E0
3FC0
1F80
ENDCHAR
STARTCHAR uni01DC
ENCODING 476
SWIDTH 556 0
DWIDTH 11 0
BBX 9 19 1 0
BITMAP
1800
0C00
0400
0000
0000
6600
6600
0000
C180
C180
C180
C180
C180
C180
C180
C180
E380
7F80
3D80
ENDCHAR
STARTCHAR uni01DD
ENCODING 477
SWIDTH 556 0
DWIDTH 12 0
BBX 10 11 1 0
BITMAP
3E00
7F80
E180
C0C0
00C0
FFC0
FFC0
C0C0
6180
7F80
1E00
ENDCHAR
STARTCHAR uni01DE
ENCODING 478
SWIDTH 666 0
DWIDTH 13 0
BBX 13 19 0 0
BITMAP
0F80
0000
0880
0000
0700
0700
0D80
0D80
0D80
18C0
18C0
18C0
3FE0
3FE0
6030
6030
6030
C018
C018
ENDCHAR
STARTCHAR uni01DF
ENCODING 479
SWIDTH 556 0
DWIDTH 12 0
BBX 10 18 1 0
BITMAP
3F00
3F00
0000
3300
3300
0000
0000
3F00
FF80
C180
0180
0F80
7F80
F180
C180
C380
FF80
7CC0
ENDCHAR
STARTCHAR uni01E0
ENCODING 480
SWIDTH 666 0
DWIDTH 13 0
BBX 13 19 0 0
BITMAP
0F80
0000
0200
0000
0700
0700
0D80
0D80
0D80
18C0
18C0
18C0
3FE0
3FE0
6030
6030
6030
C018
C018
ENDCHAR
STARTCHAR uni01E1
ENCODING 481
SWIDTH 556 0
DWIDTH 12 0
BBX 10 18 1 0
BITMAP
3F00
3F00
0000
0C00
0C00
0000
0000
3F00
FF80
C180
0180
0F80
7F80
F180
C180
C380
FF80
7CC0
ENDCHAR
STARTCHAR uni01E2
ENCODING 482
SWIDTH 1000 0
DWIDTH 21 0
BBX 20 18 0 0
BITMAP
001F80
001F80
000000
01FFF0
03FFF0
033000
063000
063000
0C3000
0C3FE0
183FE0
183000
3FF000
3FF000
603000
603000
C03FF0
C03FF0
ENDCHAR
STARTCHAR uni01E3
ENCODING 483
SWIDTH 889 0
DWIDTH 19 0
BBX 17 14 1 0
BITMAP
07E000
07E000
000000
3F3C00
7FFF00
C1C300
078180
7FFF80
79FF80
C18000
C18180
C3C300
7F7F00
3C3C00
ENDCHAR
STARTCHAR uni01E4
ENCODING 484
SWIDTH 777 0
DWIDTH 16 0
BBX 15 15 1 0
BITMAP
07E0
1FF0
3838
601C
600C
C000
C000
C0FC
C0FC
C00C
E0FE
60FE
381C
1FF8
07E0
ENDCHAR
STARTCHAR uni01E5
ENCODING 485
SWIDTH 556 0
DWIDTH 12 0
BBX 11 15 1 -4
BITMAP
3EC0
7FC0
61C0
C0C0
C0C0
C0C0
C0C0
E1C0
7FC0
3EC0
00C0
FFE0
0180
FF80
3E00
ENDCHAR
STARTCHAR Gcaron
ENCODING 486
SWIDTH 777 0
DWIDTH 16 0
BBX 14 19 1 0
BITMAP
0CC0
0780
0300
0000
0FC0
1FF0
3838
6018
6008
C000
C000
C1FC
C1FC
C00C
600C
600C
383C
1FF8
07E0
ENDCHAR
STARTCHAR gcaron
ENCODING 487
SWIDTH 556 0
DWIDTH 11 0
BBX 9 19 1 -4
BITMAP
3300
1E00
0C00
0000
3D80
7F80
6380
C180
C180
C180
C180
C180
6380
7F80
3D80
0180
C380
FF00
3E00
ENDCHAR
STARTCHAR uni01E8
ENCODING 488
SWIDTH 666 0
DWIDTH 14 0
BBX 12 19 2 0
BITMAP
3300
1E00
1C00
0000
C0E0
C1C0
C380
C700
CE00
DC00
DC00
FC00
EE00
C700
C380
C180
C1C0
C0E0
C070
ENDCHAR
STARTCHAR uni01E9
ENCODING 489
SWIDTH 500 0
DWIDTH 10 0
BBX 9 19 1 0
BITMAP
6300
3600
1C00
0000
C000
C000
C000
C000
C380
C700
CE00
DC00
F800
FC00
CC00
C600
C700
C300
C380
ENDCHAR
STARTCHAR uni01EA
ENCODING 490
SWIDTH 777 0
DWIDTH 16 0
BBX 14 19 1 -4
BITMAP
0FC0
1FE0
3870
6018
E01C
C00C
C00C
C00C
C00C
C00C
E01C
6018
3870
1FE0
0FC0
0100
0200
0200
0180
ENDCHAR
STARTCHAR uni01EB
ENCODING 491
SWIDTH 556 0
DWIDTH 12 0
BBX 10 15 1 -4
BITMAP
1E00
7F80
6180
C0C0
C0C0
C0C0
C0C0
C0C0
6180
7F80
1E00
0400
0400
0400
0700
ENDCHAR
STARTCHAR uni01EC
ENCODING 492
SWIDTH 777 0
DWIDTH 16 0
BBX 14 22 1 -4
BITMAP
07E0
07E0
0000
0FC0
1FE0
3870
6018
E01C
C00C
C00C
C00C
C00C
C00C
E01C
6018
3870
1FE0
0FC0
0100
0200
0200
0180
ENDCHAR
STARTCHAR uni01ED
ENCODING 493
SWIDTH 556 0
DWIDTH 12 0
BBX 10 18 1 -4
BITMAP
3F00
3F00
0000
1E00
7F80
6180
C0C0
C0C0
C0C0
C0C0
C0C0
6180
7F80
1E00
0400
0400
0400
0700
ENDCHAR
STARTCHAR uni01EE
ENCODING 494
SWIDTH 610 0
DWIDTH 13 0
BBX 12 23 0 -4
BITMAP
0CC0
0780
0300
0000
7FF0
7FF0
0060
00C0
0180
0300
0600
0780
07C0
00E0
0070
0030
0030
0030
4030
E060
70E0
3FC0
1F00
ENDCHAR
STARTCHAR uni01EF
ENCODING 495
SWIDTH 544 0
DWIDTH 11 0
BBX 9 19 1 -4
BITMAP
6600
3C00
1800
0000
FF00
FF00
0600
0C00
1800
1E00
1F00
0380
0180
0180
0180
C180
E300
7F00
3C00
ENDCHAR
STARTCHAR uni01F0
ENCODING 496
SWIDTH 222 0
DWIDTH 5 0
BBX 7 19 0 -4
BITMAP
66
6C
38
00
30
30
30
30
30
30
30
30
30
30
30
30
30
F0
E0
ENDCHAR
STARTCHAR uni01F1
ENCODING 497
SWIDTH 1333 0
DWIDTH 28 0
BBX 25 15 2 0
BITMAP
FF03FF80
FFC3FF80
C0E00300
C0600600
C0300C00
C0300C00
C0301800
C0303000
C0306000
C030C000
C030C000
C0618000
C0E30000
FFC7FF80
FF07FF80
ENDCHAR
STARTCHAR uni01F2
ENCODING 498
SWIDTH 1222 0
DWIDTH 26 0
BBX 22 15 2 0
BITMAP
FF0000
FFC000
C0E000
C06000
C033FC
C033FC
C0301C
C03038
C03070
C030E0
C031C0
C06380
C0E700
FFC7FC
FF07FC
ENDCHAR
STARTCHAR uni01F3
ENCODING 499
SWIDTH 1048 0
DWIDTH 22 0
BBX 20 15 1 0
BITMAP
018000
018000
018000
018000
3D8FF0
7F8FF0
638070
C180E0
C181C0
C18380
C18700
C18E00
639C00
7F9FF0
3D9FF0
ENDCHAR
STARTCHAR uni01F4
ENCODING 500
SWIDTH 777 0
DWIDTH 16 0
BBX 14 19 1 0
BITMAP
0080
0180
0100
0000
0FC0
1FF0
3838
6018
6008
C000
C000
C1FC
C1FC
C00C
600C
600C
383C
1FF8
07E0
ENDCHAR
STARTCHAR uni01F5
ENCODING 501
SWIDTH 556 0
DWIDTH 11 0
BBX 9 19 1 -4
BITMAP
0600
0C00
0800
0000
3D80
7F80
6380
C180
C180
C180
C180
C180
6380
7F80
3D80
0180
C380
FF00
3E00
ENDCHAR
STARTCHAR uni01F6
ENCODING 502
SWIDTH 1034 0
DWIDTH 22 0
BBX 20 15 1 0
BITMAP
C03000
C03000
C03000
C03000
C03030
C03030
FFF030
FFF030
C03030
C03030
C03030
C03030
C03870
C01FE0
C00FC0
ENDCHAR
STARTCHAR uni01F7
ENCODING 503
SWIDTH 618 0
DWIDTH 13 0
BBX 11 19 1 -4
BITMAP
CF80
DFC0
F0E0
E060
C060
C060
C060
C060
C0C0
C0C0
C180
C380
C300
CE00
DC00
F800
E000
C000
C000
ENDCHAR
STARTCHAR uni01F8
ENCODING 504
SWIDTH 722 0
DWIDTH 14 0
BBX 12 19 1 0
BITMAP
0C00
0400
0600
0000
C030
E030
F030
F030
D830
CC30
CC30
C630
C330
C330
C1B0
C0F0
C0F0
C070
C030
ENDCHAR
STARTCHAR uni01F9
ENCODING 505
SWIDTH 556 0
DWIDTH 11 0
BBX 9 15 1 0
BITMAP
1000
1800
0800
0000
DE00
FF00
E380
C180
C180
C180
C180
C180
C180
C180
C180
ENDCHAR
STARTCHAR Aringacute
ENCODING 506
SWIDTH 666 0
DWIDTH 13 0
BBX 13 21 0 0
BITMAP
0300
0600
0700
0880
0880
0880
0700
0700
0D80
0D80
0D80
18C0
18C0
18C0
3FE0
3FE0
6030
6030
6030
C018
C018
ENDCHAR
STARTCHAR aringacute
ENCODING 507
SWIDTH 556 0
DWIDTH 12 0
BBX 10 21 1 0
BITMAP
0C00
1800
1000
0000
1C00
2200
2200
2200
1C00
0000
3F00
FF80
C180
0180
0F80
7F80
F180
C180
C380
FF80
7CC0
ENDCHAR
STARTCHAR AEacute
ENCODING 508
SWIDTH 1000 0
DWIDTH 21 0
BBX 20 19 0 0
BITMAP
002000
006000
004000
000000
01FFF0
03FFF0
033000
063000
063000
0C3000
0C3FE0
183FE0
183000
3FF000
3FF000
603000
603000
C03FF0
C03FF0
ENDCHAR
STARTCHAR aeacute
ENCODING 509
SWIDTH 889 0
DWIDTH 19 0
BBX 17 15 1 0
BITMAP
006000
00C000
008000
000000
3F3C00
7FFF00
C1C300
078180
7FFF80
79FF80
C18000
C18180
C3C300
7F7F00
3C3C00
ENDCHAR
STARTCHAR Oslashacute
ENCODING 510
SWIDTH 777 0
DWIDTH 16 0
BBX 14 19 1 0
BITMAP
00C0
0180
0100
0000
0FCC
1FF8
3878
6038
607C
C0CC
C18C
C30C
C60C
CC0C
EC18
7818
3870
7FE0
CFC0
ENDCHAR
STARTCHAR oslashacute
ENCODING 511
SWIDTH 610 0
DWIDTH 12 0
BBX 10 16 1 -1
BITMAP
0600
0C00
0800
00C0
3EC0
7F80
6380
C2C0
C6C0
CCC0
D8C0
D0C0
F180
7F80
DE00
C000
ENDCHAR
STARTCHAR uni0200
ENCODING 512
SWIDTH 666 0
DWIDTH 13 0
BBX 13 19 0 0
BITMAP
1B00
0D80
0480
0000
0700
0700
0D80
0D80
0D80
18C0
18C0
18C0
3FE0
3FE0
6030
6030
6030
C018
C018
ENDCHAR
STARTCHAR uni0201
ENCODING 513
SWIDTH 556 0
DWIDTH 12 0
BBX 10 15 1 0
BITMAP
6C00
3600
1200
0000
3F00
FF80
C180
0180
0F80
7F80
F180
C180
C380
FF80
7CC0
ENDCHAR
STARTCHAR uni0202
ENCODING 514
SWIDTH 666 0
DWIDTH 13 0
BBX 13 19 0 0
BITMAP
0780
0880
0840
0000
0700
0700
0D80
0D80
0D80
18C0
18C0
18C0
3FE0
3FE0
6030
6030
6030
C018
C018
ENDCHAR
STARTCHAR uni0203
ENCODING 515
SWIDTH 556 0
DWIDTH 12 0
BBX 10 15 1 0
BITMAP
1E00
3300
2100
0000
3F00
FF80
C180
0180
0F80
7F80
F180
C180
C380
FF80
7CC0
ENDCHAR
STARTCHAR uni0204
ENCODING 516
SWIDTH 666 0
DWIDTH 14 0
BBX 11 19 2 0
BITMAP
1B00
1B00
0900
0000
FFE0
FFE0
C000
C000
C000
C000
FFC0
FFC0
C000
C000
C000
C000
C000
FFE0
FFE0
ENDCHAR
STARTCHAR uni0205
ENCODING 517
SWIDTH 556 0
DWIDTH 12 0
BBX 10 15 1 0
BITMAP
3600
1B00
0900
0000
1E00
7F80
6180
C0C0
FFC0
FFC0
C000
C000
61C0
7F80
1F00
ENDCHAR
STARTCHAR uni0206
ENCODING 518
SWIDTH 666 0
DWIDTH 14 0
BBX 11 19 2 0
BITMAP
0F00
0980
1080
0000
FFE0
FFE0
C000
C000
C000
C000
FFC0
FFC0
C000
C000
C000
C000
C000
FFE0
FFE0
ENDCHAR
STARTCHAR uni0207
ENCODING 519
SWIDTH 556 0
DWIDTH 12 0
BBX 10 15 1 0
BITMAP
1E00
2200
2100
0000
1E00
7F80
6180
C0C0
FFC0
FFC0
C000
C000
61C0
7F80
1F00
ENDCHAR
STARTCHAR uni0208
ENCODING 520
SWIDTH 277 0
DWIDTH 6 0
BBX 5 19 -1 0
BITMAP
D8
D8
48
00
18
18
18
18
18
18
18
18
18
18
18
18
18
18
18
ENDCHAR
STARTCHAR uni0209
ENCODING 521
SWIDTH 277 0
DWIDTH 6 0
BBX 6 15 -1 0
BITMAP
D8
6C
6C
00
18
18
18
18
18
18
18
18
18
18
18
ENDCHAR
STARTCHAR uni020A
ENCODING 522
SWIDTH 277 0
DWIDTH 6 0
BBX 6 19 0 0
BITMAP
78
CC
84
00
30
30
30
30
30
30
30
30
30
30
30
30
30
30
30
ENDCHAR
STARTCHAR uni020B
ENCODING 523
SWIDTH 277 0
DWIDTH 6 0
BBX 6 15 0 0
BITMAP
78
CC
84
00
30
30
30
30
30
30
30
30
30
30
30
ENDCHAR
STARTCHAR uni020C
ENCODING 524
SWIDTH 777 0
DWIDTH 16 0
BBX 14 19 1 0
BITMAP
1B00
0D80
0480
0000
0FC0
1FE0
3870
6018
E01C
C00C
C00C
C00C
C00C
C00C
E01C
6018
3870
1FE0
0FC0
ENDCHAR
STARTCHAR uni020D
ENCODING 525
SWIDTH 556 0
DWIDTH 12 0
BBX 10 15 1 0
BITMAP
3600
1200
1B00
0000
1E00
7F80
6180
C0C0
C0C0
C0C0
C0C0
C0C0
6180
7F80
1E00
ENDCHAR
STARTCHAR uni020E
ENCODING 526
SWIDTH 777 0
DWIDTH 16 0
BBX 14 19 1 0
BITMAP
0780
0440
0840
0000
0FC0
1FE0
3870
6018
E01C
C00C
C00C
C00C
C00C
C00C
E01C
6018
3870
1FE0
0FC0
ENDCHAR
STARTCHAR uni020F
ENCODING 527
SWIDTH 556 0
DWIDTH 12 0
BBX 10 15 1 0
BITMAP
1E00
3300
2100
0000
1E00
7F80
6180
C0C0
C0C0
C0C0
C0C0
C0C0
6180
7F80
1E00
ENDCHAR
STARTCHAR uni0210
ENCODING 528
SWIDTH 722 0
DWIDTH 15 0
BBX 12 19 2 0
BITMAP
6C00
3600
1200
0000
FF80
FFC0
C0E0
C060
C060
C0E0
FFC0
FF80
C300
C380
C180
C1C0
C0E0
C060
C070
ENDCHAR
STARTCHAR uni0211
ENCODING 529
SWIDTH 333 0
DWIDTH 7 0
BBX 7 15 0 0
BITMAP
D8
6C
24
00
6E
7E
70
60
60
60
60
60
60
60
60
ENDCHAR
STARTCHAR uni0212
ENCODING 530
SWIDTH 722 0
DWIDTH 15 0
BBX 12 19 2 0
BITMAP
1E00
1300
2100
0000
FF80
FFC0
C0E0
C060
C060
C0E0
FFC0
FF80
C300
C380
C180
C1C0
C0E0
C060
C070
ENDCHAR
STARTCHAR uni0213
ENCODING 531
SWIDTH 333 0
DWIDTH 7 0
BBX 6 15 1 0
BITMAP
78
CC
84
00
DC
FC
E0
C0
C0
C0
C0
C0
C0
C0
C0
ENDCHAR
STARTCHAR uni0214
ENCODING 532
SWIDTH 722 0
DWIDTH 14 0
BBX 12 19 1 0
BITMAP
1B00
0900
0D80
0000
C030
C030
C030
C030
C030
C030
C030
C030
C030
C030
C030
E070
70E0
3FC0
1F80
ENDCHAR
STARTCHAR uni0215
ENCODING 533
SWIDTH 556 0
DWIDTH 11 0
BBX 9 15 1 0
BITMAP
6C00
2400
3600
0000
C180
C180
C180
C180
C180
C180
C180
C180
E380
7F80
3D80
ENDCHAR
STARTCHAR uni0216
ENCODING 534
SWIDTH 722 0
DWIDTH 14 0
BBX 12 19 1 0
BITMAP
0700
0880
0880
0000
C030
C030
C030
C030
C030
C030
C030
C030
C030
C030
C030
E070
70E0
3FC0
1F80
ENDCHAR
STARTCHAR uni0217
ENCODING 535
SWIDTH 556 0
DWIDTH 11 0
BBX 9 15 1 0
BITMAP
1E00
2200
2100
0000
C180
C180
C180
C180
C180
C180
C180
C180
E380
7F80
3D80
ENDCHAR
STARTCHAR uni0218
ENCODING 536
SWIDTH 666 0
DWIDTH 14 0
BBX 12 21 1 -6
BITMAP
0F80
3FE0
7070
6030
6000
7000
3F00
0FC0
00E0
0030
C030
E030
7070
3FE0
1F80
0000
0600
0600
0200
0200
0200
ENDCHAR
STARTCHAR uni0219
ENCODING 537
SWIDTH 500 0
DWIDTH 11 0
BBX 9 17 1 -6
BITMAP
3E00
7F00
C180
C000
F800
7F00
0780
0180
C180
7F00
3E00
0000
0C00
0C00
0400
0800
0800
ENDCHAR
STARTCHAR uni021A
ENCODING 538
SWIDTH 610 0
DWIDTH 12 0
BBX 12 20 0 -5
BITMAP
FFF0
FFF0
0600
0600
0600
0600
0600
0600
0600
0600
0600
0600
0600
0600
0600
0000
0600
0600
0200
0400
ENDCHAR
STARTCHAR uni021B
ENCODING 539
SWIDTH 277 0
DWIDTH 6 0
BBX 5 20 1 -5
BITMAP
20
60
60
60
F8
F8
60
60
60
60
60
60
60
78
38
00
30
30
10
20
ENDCHAR
STARTCHAR uni021C
ENCODING 540
SWIDTH 544 0
DWIDTH 11 0
BBX 10 19 0 -4
BITMAP
3F00
7F80
E1C0
40C0
00C0
00C0
01C0
0180
0780
1FC0
78C0
40C0
00C0
01C0
0380
0700
1E00
7800
6000
ENDCHAR
STARTCHAR uni021D
ENCODING 541
SWIDTH 436 0
DWIDTH 9 0
BBX 8 15 0 -4
BITMAP
3C
7E
E7
43
03
06
1E
7F
63
03
03
06
1C
78
60
ENDCHAR
STARTCHAR uni021E
ENCODING 542
SWIDTH 722 0
DWIDTH 14 0
BBX 12 19 1 0
BITMAP
1980
0F00
0600
0000
C030
C030
C030
C030
C030
C030
FFF0
FFF0
C030
C030
C030
C030
C030
C030
C030
ENDCHAR
STARTCHAR uni021F
ENCODING 543
SWIDTH 556 0
DWIDTH 11 0
BBX 9 19 1 0
BITMAP
3300
1E00
0C00
0000
C000
C000
C000
C000
DE00
FF00
E380
C180
C180
C180
C180
C180
C180
C180
C180
ENDCHAR
STARTCHAR uni0220
ENCODING 544
SWIDTH 706 0
DWIDTH 15 0
BBX 11 19 2 -4
BITMAP
CF80
FFC0
E0E0
C060
C060
C060
C060
C060
C060
C060
C060
C060
C060
C060
C060
0060
0060
0060
0060
ENDCHAR
STARTCHAR uni0221
ENCODING 545
SWIDTH 681 0
DWIDTH 14 0
BBX 13 19 1 -4
BITMAP
0180
0180
0180
0180
3D80
7F80
6380
C180
C180
C180
C180
C180
6380
7F80
3DF0
01F8
0398
07F8
04F0
ENDCHAR
STARTCHAR uni0222
ENCODING 546
SWIDTH 604 0
DWIDTH 13 0
BBX 11 15 1 0
BITMAP
0380
38C0
6060
C060
C060
60C0
3F80
3F80
60C0
C060
C060
C060
E0E0
7FC0
1F00
ENDCHAR
STARTCHAR uni0223
ENCODING 547
SWIDTH 565 0
DWIDTH 12 0
BBX 10 15 1 0
BITMAP
2100
6180
C0C0
C0C0
C0C0
6180
3F00
3F00
6180
C0C0
C0C0
C0C0
E1C0
7F80
3F00
ENDCHAR
STARTCHAR uni0224
ENCODING 548
SWIDTH 610 0
DWIDTH 13 0
BBX 12 17 0 -2
BITMAP
7FF0
7FF0
0030
0060
00C0
0180
0300
0600
0C00
1800
3000
6000
C000
FFE0
FFF0
0030
0030
ENDCHAR
STARTCHAR uni0225
ENCODING 549
SWIDTH 500 0
DWIDTH 11 0
BBX 10 13 1 -2
BITMAP
FF80
FF80
0300
0600
0C00
1800
3000
6000
C000
FF80
FFC0
00C0
00C0
ENDCHAR
STARTCHAR uni0226
ENCODING 550
SWIDTH 666 0
DWIDTH 13 0
BBX 13 18 0 0
BITMAP
0600
0600
0000
0700
0700
0D80
0D80
0D80
18C0
18C0
18C0
3FE0
3FE0
6030
6030
6030
C018
C018
ENDCHAR
STARTCHAR uni0227
ENCODING 551
SWIDTH 556 0
DWIDTH 12 0
BBX 10 14 1 0
BITMAP
0C00
0C00
0000
3F00
FF80
C180
0180
0F80
7F80
F180
C180
C380
FF80
7CC0
ENDCHAR
STARTCHAR uni0228
ENCODING 552
SWIDTH 666 0
DWIDTH 14 0
BBX 11 19 2 -4
BITMAP
FFE0
FFE0
C000
C000
C000
C000
FFC0
FFC0
C000
C000
C000
C000
C000
FFE0
FFE0
0400
0600
0300
1E00
ENDCHAR
STARTCHAR uni0229
ENCODING 553
SWIDTH 556 0
DWIDTH 12 0
BBX 10 15 1 -4
BITMAP
1E00
7F80
6180
C0C0
FFC0
FFC0
C000
C000
61C0
7F80
1F00
0400
0600
0300
1E00
ENDCHAR
STARTCHAR uni022A
ENCODING 554
SWIDTH 777 0
DWIDTH 16 0
BBX 14 19 1 0
BITMAP
07C0
0000
0440
0000
0FC0
1FE0
3870
6018
E01C
C00C
C00C
C00C
C00C
C00C
E01C
6018
3870
1FE0
0FC0
ENDCHAR
STARTCHAR uni022B
ENCODING 555
SWIDTH 556 0
DWIDTH 12 0
BBX 10 18 1 0
BITMAP
3F00
3F00
0000
3300
3300
0000
0000
1E00
7F80
6180
C0C0
C0C0
C0C0
C0C0
C0C0
6180
7F80
1E00
ENDCHAR
STARTCHAR uni022C
ENCODING 556
SWIDTH 777 0
DWIDTH 16 0
BBX 14 19 1 0
BITMAP
0F80
0680
0980
0000
0FC0
1FE0
3870
6018
E01C
C00C
C00C
C00C
C00C
C00C
E01C
6018
3870
1FE0
0FC0
ENDCHAR
STARTCHAR uni022D
ENCODING 557
SWIDTH 556 0
DWIDTH 12 0
BBX 10 18 1 0
BITMAP
3F00
3F00
0000
3B00
3F00
3700
0000
1E00
7F80
6180
C0C0
C0C0
C0C0
C0C0
C0C0
6180
7F80
1E00
ENDCHAR
STARTCHAR uni022E
ENCODING 558
SWIDTH 777 0
DWIDTH 16 0
BBX 14 18 1 0
BITMAP
0180
0180
0000
0FC0
1FE0
3870
6018
E01C
C00C
C00C
C00C
C00C
C00C
E01C
6018
3870
1FE0
0FC0
ENDCHAR
STARTCHAR uni022F
ENCODING 559
SWIDTH 556 0
DWIDTH 12 0
BBX 10 14 1 0
BITMAP
0C00
0C00
0000
1E00
7F80
6180
C0C0
C0C0
C0C0
C0C0
C0C0
6180
7F80
1E00
ENDCHAR
STARTCHAR uni0230
ENCODING 560
SWIDTH 777 0
DWIDTH 16 0
BBX 14 19 1 0
BITMAP
07C0
0000
0100
0000
0FC0
1FE0
3870
6018
E01C
C00C
C00C
C00C
C00C
C00C
E01C
6018
3870
1FE0
0FC0
ENDCHAR
STARTCHAR uni0231
ENCODING 561
SWIDTH 556 0
DWIDTH 12 0
BBX 10 18 1 0
BITMAP
3F00
3F00
0000
0C00
0C00
0000
0000
1E00
7F80
6180
C0C0
C0C0
C0C0
C0C0
C0C0
6180
7F80
1E00
ENDCHAR
STARTCHAR uni0232
ENCODING 562
SWIDTH 666 0
DWIDTH 14 0
BBX 14 18 0 0
BITMAP
07E0
07E0
0000
E01C
6018
3030
3870
1CE0
0CC0
0780
0780
0300
0300
0300
0300
0300
0300
0300
ENDCHAR
STARTCHAR uni0233
ENCODING 563
SWIDTH 500 0
DWIDTH 11 0
BBX 9 18 1 -4
BITMAP
3F00
3F00
0000
C180
C180
6300
6300
7300
3300
3600
1E00
1E00
0C00
0C00
0C00
1800
F800
F000
ENDCHAR
STARTCHAR uni0234
ENCODING 564
SWIDTH 349 0
DWIDTH 7 0
BBX 8 19 -1 -4
BITMAP
30
30
30
30
30
30
30
30
30
30
30
30
30
30
3E
3F
73
FF
9E
ENDCHAR
STARTCHAR uni0235
ENCODING 565
SWIDTH 684 0
DWIDTH 14 0
BBX 13 15 1 -4
BITMAP
CE00
FF00
E380
C180
C180
C180
C180
C180
C180
C180
C1F0
01F8
0398
07F8
04F0
ENDCHAR
STARTCHAR uni0236
ENCODING 566
SWIDTH 367 0
DWIDTH 8 0
BBX 8 15 0 0
BITMAP
10
30
30
30
7C
7C
30
30
30
30
3E
3F
73
FF
9E
ENDCHAR
STARTCHAR uni0237
ENCODING 567
SWIDTH 222 0
DWIDTH 5 0
BBX 4 15 0 -4
BITMAP
30
30
30
30
30
30
30
30
30
30
30
30
30
F0
E0
ENDCHAR
STARTCHAR uni0238
ENCODING 568
SWIDTH 886 0
DWIDTH 19 0
BBX 18 15 0 0
BITMAP
00C000
00C000
00C000
00C000
1EDE00
7FFF80
61E180
C0C0C0
C0C0C0
C0C0C0
C0C0C0
C0C0C0
61E180
7FFF80
1EDE00
ENDCHAR
STARTCHAR uni0239
ENCODING 569
SWIDTH 886 0
DWIDTH 19 0
BBX 18 15 0 -4
BITMAP
1ECE00
7FFF80
61E180
C0C0C0
C0C0C0
C0C0C0
C0C0C0
C0C0C0
61E180
7FFF80
1EDE00
00C000
00C000
00C000
00C000
ENDCHAR
STARTCHAR uni023A
ENCODING 570
SWIDTH 666 0
DWIDTH 14 0
BBX 14 17 0 -1
BITMAP
0018
0330
07B0
07E0
0CC0
0CC0
0DC0
19E0
1B60
3FF0
3FF0
3C30
6C18
7818
D80C
F00C
3000
ENDCHAR
STARTCHAR uni023B
ENCODING 571
SWIDTH 722 0
DWIDTH 15 0
BBX 13 17 1 -1
BITMAP
0018
0FF0
3FF0
7070
60F8
E0D0
C180
C180
C300
C600
C600
EC18
6C38
3870
3FE0
3FC0
6000
ENDCHAR
STARTCHAR uni023C
ENCODING 572
SWIDTH 500 0
DWIDTH 11 0
BBX 10 19 0 -4
BITMAP
00C0
0180
0180
0180
1F00
3F80
77C0
66C0
6C00
6C00
6C00
78C0
79C0
3F80
3F00
6000
6000
6000
C000
ENDCHAR
STARTCHAR uni023D
ENCODING 573
SWIDTH 556 0
DWIDTH 12 0
BBX 10 15 1 0
BITMAP
6000
6000
6000
6000
6000
6000
FE00
FE00
6000
6000
6000
6000
6000
7FC0
7FC0
ENDCHAR
STARTCHAR uni023E
ENCODING 574
SWIDTH 610 0
DWIDTH 13 0
BBX 12 17 0 -1
BITMAP
0030
FFF0
FFF0
06C0
0780
0780
0700
0700
0600
0E00
0E00
1E00
1E00
3600
6600
6600
C000
ENDCHAR
STARTCHAR uni023F
ENCODING 575
SWIDTH 500 0
DWIDTH 11 0
BBX 9 15 1 -4
BITMAP
3E00
7F80
C180
C000
FC00
7F00
0F80
4180
E180
7F00
3E00
1800
1D00
0F80
0700
ENDCHAR
STARTCHAR uni0240
ENCODING 576
SWIDTH 500 0
DWIDTH 11 0
BBX 10 15 1 -4
BITMAP
FF80
FF80
0300
0600
0C00
1800
3000
6000
C000
F000
F800
1C00
0E00
07C0
0380
ENDCHAR
STARTCHAR uni0241
ENCODING 577
SWIDTH 580 0
DWIDTH 12 0
BBX 11 15 1 0
BITMAP
1F00
7FC0
E1C0
C0E0
0060
0060
0060
00E0
01C0
0FC0
0F00
0C00
0C00
0C00
0C00
ENDCHAR
STARTCHAR uni0242
ENCODING 578
SWIDTH 453 0
DWIDTH 10 0
BBX 8 11 1 0
BITMAP
3C
7E
E7
C3
03
03
07
1E
1C
18
18
ENDCHAR
STARTCHAR uni0243
ENCODING 579
SWIDTH 666 0
DWIDTH 14 0
BBX 12 15 1 0
BITMAP
7F80
7FC0
60E0
6060
6060
60E0
7FC0
7FE0
6060
FE30
FE30
6030
6070
7FE0
7FC0
ENDCHAR
STARTCHAR uni0244
ENCODING 580
SWIDTH 722 0
DWIDTH 15 0
BBX 13 15 1 0
BITMAP
6030
6030
6030
6030
6030
6030
FFF8
FFF8
6030
6030
6030
6030
3060
3FE0
0F80
ENDCHAR
STARTCHAR uni0245
ENCODING 581
SWIDTH 667 0
DWIDTH 14 0
BBX 13 15 0 0
BITMAP
0700
0700
0D80
0D80
0D80
18C0
18C0
30E0
3060
3060
6030
6030
E038
C018
C018
ENDCHAR
STARTCHAR uni0246
ENCODING 582
SWIDTH 666 0
DWIDTH 14 0
BBX 11 17 2 -1
BITMAP
0060
FFE0
FFE0
C180
C180
C300
C300
FFC0
FFC0
CE00
CC00
DC00
D800
F800
FFE0
FFE0
6000
ENDCHAR
STARTCHAR uni0247
ENCODING 583
SWIDTH 556 0
DWIDTH 12 0
BBX 10 19 1 -4
BITMAP
00C0
0180
0180
0180
1F00
7F80
6780
C6C0
FFC0
FFC0
CC00
D8C0
79C0
7F80
3F00
6000
6000
6000
C000
ENDCHAR
STARTCHAR uni0248
ENCODING 584
SWIDTH 500 0
DWIDTH 11 0
BBX 10 15 1 0
BITMAP
0300
0300
0300
0300
0300
0300
0FC0
0FC0
0300
0300
C300
C300
E700
7E00
3C00
ENDCHAR
STARTCHAR uni0249
ENCODING 585
SWIDTH 222 0
DWIDTH 5 0
BBX 5 19 -1 -4
BITMAP
30
30
00
00
30
30
30
30
78
78
30
30
30
30
30
30
30
F0
E0
ENDCHAR
STARTCHAR uni024A
ENCODING 586
SWIDTH 737 0
DWIDTH 15 0
BBX 14 19 1 -4
BITMAP
0FD0
1FF0
3830
6030
6030
C030
C030
C030
C030
C030
E030
6030
7830
3FF0
0FF0
0030
0030
003C
001C
ENDCHAR
STARTCHAR uni024B
ENCODING 587
SWIDTH 556 0
DWIDTH 12 0
BBX 11 15 1 -4
BITMAP
3D80
7F80
6380
C180
C180
C180
C180
C180
6380
7F80
3D80
0180
0180
01E0
00E0
ENDCHAR
STARTCHAR uni024C
ENCODING 588
SWIDTH 722 0
DWIDTH 15 0
BBX 15 15 0 0
BITMAP
3FF0
3FF8
301C
300C
300C
300C
301C
FFF8
FFE0
30C0
3060
3030
3018
300C
3006
ENDCHAR
STARTCHAR uni024D
ENCODING 589
SWIDTH 333 0
DWIDTH 7 0
BBX 6 11 0 0
BITMAP
6C
7C
70
60
60
F8
F8
60
60
60
60
ENDCHAR
STARTCHAR uni024E
ENCODING 590
SWIDTH 666 0
DWIDTH 14 0
BBX 14 15 0 0
BITMAP
C00C
6018
FFFC
FFFC
1860
0CC0
0680
0780
0300
0300
0300
0300
0300
0300
0300
ENDCHAR
STARTCHAR uni024F
ENCODING 591
SWIDTH 500 0
DWIDTH 11 0
BBX 10 15 0 -4
BITMAP
C0C0
61C0
6180
FFC0
FFC0
3300
1B00
1B00
1E00
0E00
0E00
0C00
0C00
7800
7000
ENDCHAR
STARTCHAR uni0250
ENCODING 592
SWIDTH 556 0
DWIDTH 12 0
BBX 11 11 0 0
BITMAP
C780
7FC0
7060
6060
63E0
7FC0
7800
6060
70E0
3FC0
1F00
ENDCHAR
STARTCHAR uni0251
ENCODING 593
SWIDTH 556 0
DWIDTH 12 0
BBX 9 11 1 0
BITMAP
3D80
7F80
6380
C180
C180
C180
C180
C180
6380
7F80
3D80
ENDCHAR
STARTCHAR uni0252
ENCODING 594
SWIDTH 556 0
DWIDTH 12 0
BBX 9 11 2 0
BITMAP
DE00
FF00
E300
C180
C180
C180
C180
C180
E300
FF00
DE00
ENDCHAR
STARTCHAR uni0253
ENCODING 595
SWIDTH 556 0
DWIDTH 12 0
BBX 9 15 2 0
BITMAP
7800
F800
C000
C000
DE00
FF00
E300
C180
C180
C180
C180
C180
E300
FF00
DE00
ENDCHAR
STARTCHAR uni0254
ENCODING 596
SWIDTH 500 0
DWIDTH 11 0
BBX 9 11 1 0
BITMAP
3C00
7F00
E300
C180
0180
0180
0180
C180
E300
7F00
3E00
ENDCHAR
STARTCHAR uni0255
ENCODING 597
SWIDTH 500 0
DWIDTH 11 0
BBX 9 11 1 0
BITMAP
1E00
7F00
6380
C180
C000
C000
CF00
DF80
7180
7F80
DF00
ENDCHAR
STARTCHAR uni0256
ENCODING 598
SWIDTH 556 0
DWIDTH 12 0
BBX 11 19 1 -4
BITMAP
0180
0180
0180
0180
3D80
7F80
6380
C180
C180
C180
C180
C180
6380
7F80
3D80
0180
0180
01E0
00E0
ENDCHAR
STARTCHAR uni0257
ENCODING 599
SWIDTH 556 0
DWIDTH 12 0
BBX 12 15 1 0
BITMAP
00F0
01F0
0180
0180
3D80
7F80
6380
C180
C180
C180
C180
C180
6380
7F80
3D80
ENDCHAR
STARTCHAR uni0258
ENCODING 600
SWIDTH 556 0
DWIDTH 12 0
BBX 10 11 1 0
BITMAP
1E00
7F80
6180
C0C0
FFC0
FFC0
00C0
C0C0
E180
7F80
3E00
ENDCHAR
STARTCHAR uni0259
ENCODING 601
SWIDTH 556 0
DWIDTH 12 0
BBX 10 11 1 0
BITMAP
3E00
7F80
E180
C0C0
00C0
FFC0
FFC0
C0C0
6180
7F80
1E00
ENDCHAR
STARTCHAR uni025A
ENCODING 602
SWIDTH 738 0
DWIDTH 16 0
BBX 15 11 1 0
BITMAP
3E00
7F80
E180
C0E0
1FE2
FFFE
F0DE
C0C0
6180
7F80
1E00
ENDCHAR
STARTCHAR uni025B
ENCODING 603
SWIDTH 458 0
DWIDTH 10 0
BBX 8 11 1 0
BITMAP
3C
FE
C3
C0
78
78
C0
C3
C7
7E
3C
ENDCHAR
STARTCHAR uni025C
ENCODING 604
SWIDTH 458 0
DWIDTH 10 0
BBX 8 11 1 0
BITMAP
3C
7F
C3
03
1E
1E
03
C3
E3
7E
3C
ENDCHAR
STARTCHAR uni025D
ENCODING 605
SWIDTH 631 0
DWIDTH 13 0
BBX 12 11 1 0
BITMAP
3C00
7F00
C3C0
03C0
1EF0
1E70
0300
C300
E300
7E00
3C00
ENDCHAR
STARTCHAR uni025E
ENCODING 606
SWIDTH 507 0
DWIDTH 11 0
BBX 9 11 1 0
BITMAP
1E00
7F80
6180
C180
CF00
CF00
C180
C180
6180
7F00
1E00
ENDCHAR
STARTCHAR uni025F
ENCODING 607
SWIDTH 277 0
DWIDTH 6 0
BBX 7 15 -1 -4
BITMAP
18
18
18
18
18
18
18
18
18
7E
7E
18
18
F8
F0
ENDCHAR
STARTCHAR uni0260
ENCODING 608
SWIDTH 556 0
DWIDTH 12 0
BBX 13 19 1 -4
BITMAP
0078
00F8
00C0
00C0
1EC0
7FC0
61C0
C0C0
C0C0
C0C0
C0C0
C0C0
61C0
7FC0
1EC0
00C0
C1C0
FF80
3E00
ENDCHAR
STARTCHAR uni0261
ENCODING 609
SWIDTH 556 0
DWIDTH 11 0
BBX 9 15 1 -4
BITMAP
3D80
7F80
6380
C180
C180
C180
C180
C180
6380
7F80
3D80
0180
C380
FF00
3E00
ENDCHAR
STARTCHAR uni0262
ENCODING 610
SWIDTH 558 0
DWIDTH 12 0
BBX 10 11 1 0
BITMAP
1F00
7F80
61C0
C0C0
C000
C7C0
C7C0
C0C0
60C0
7FC0
1F00
ENDCHAR
STARTCHAR uni0263
ENCODING 611
SWIDTH 500 0
DWIDTH 11 0
BBX 11 15 0 -4
BITMAP
C060
60C0
60C0
3180
3180
1B00
1B00
0E00
0E00
0E00
0E00
1B00
1B00
1F00
0E00
ENDCHAR
STARTCHAR uni0264
ENCODING 612
SWIDTH 616 0
DWIDTH 13 0
BBX 13 11 0 0
BITMAP
78F0
FDF8
4D90
0D80
0700
0700
0700
0D80
0D80
0F80
0700
ENDCHAR
STARTCHAR uni0265
ENCODING 613
SWIDTH 556 0
DWIDTH 12 0
BBX 9 15 1 -4
BITMAP
C180
C180
C180
C180
C180
C180
C180
C180
E380
7F80
3D80
0180
0180
0180
0180
ENDCHAR
STARTCHAR uni0266
ENCODING 614
SWIDTH 556 0
DWIDTH 12 0
BBX 9 15 2 0
BITMAP
7800
F800
C000
C000
DE00
FF00
E380
C180
C180
C180
C180
C180
C180
C180
C180
ENDCHAR
STARTCHAR uni0267
ENCODING 615
SWIDTH 556 0
DWIDTH 12 0
BBX 9 19 2 -4
BITMAP
7800
F800
C000
C000
DE00
FF00
E380
C180
C180
C180
C180
C180
C180
C180
C180
0180
0180
0780
0700
ENDCHAR
STARTCHAR uni0268
ENCODING 616
SWIDTH 222 0
DWIDTH 5 0
BBX 4 15 1 0
BITMAP
60
60
00
00
60
60
60
60
F0
F0
60
60
60
60
60
ENDCHAR
STARTCHAR uni0269
ENCODING 617
SWIDTH 222 0
DWIDTH 5 0
BBX 4 11 1 0
BITMAP
C0
C0
C0
C0
C0
C0
C0
C0
C0
F0
70
ENDCHAR
STARTCHAR uni026A
ENCODING 618
SWIDTH 355 0
DWIDTH 7 0
BBX 6 11 1 0
BITMAP
FC
FC
30
30
30
30
30
30
30
FC
FC
ENDCHAR
STARTCHAR uni026B
ENCODING 619
SWIDTH 327 0
DWIDTH 7 0
BBX 7 15 0 0
BITMAP
18
18
18
18
18
18
18
7A
9C
18
18
18
18
18
18
ENDCHAR
STARTCHAR uni026C
ENCODING 620
SWIDTH 303 0
DWIDTH 6 0
BBX 6 15 0 0
BITMAP
30
30
30
30
30
70
B0
B0
7C
30
30
30
30
30
30
ENDCHAR
STARTCHAR uni026D
ENCODING 621
SWIDTH 222 0
DWIDTH 5 0
BBX 4 19 1 -4
BITMAP
C0
C0
C0
C0
C0
C0
C0
C0
C0
C0
C0
C0
C0
C0
C0
C0
C0
F0
70
ENDCHAR
STARTCHAR uni026E
ENCODING 622
SWIDTH 571 0
DWIDTH 12 0
BBX 10 19 1 -4
BITMAP
C000
C000
C000
C000
FF80
FF80
C300
C600
CC00
CF00
CF80
C1C0
C0C0
C0C0
C0C0
00C0
C180
7F80
3E00
ENDCHAR
STARTCHAR uni026F
ENCODING 623
SWIDTH 833 0
DWIDTH 18 0
BBX 16 11 1 0
BITMAP
C183
C183
C183
C183
C183
C183
C183
C183
E3C7
7EFF
3C73
ENDCHAR
STARTCHAR uni0270
ENCODING 624
SWIDTH 833 0
DWIDTH 18 0
BBX 16 15 1 -4
BITMAP
C183
C183
C183
C183
C183
C183
C183
C183
E3C7
7EFF
3C73
0003
0003
0003
0003
ENDCHAR
STARTCHAR uni0271
ENCODING 625
SWIDTH 833 0
DWIDTH 18 0
BBX 16 15 1 -4
BITMAP
CE3C
FF7E
E3C7
C183
C183
C183
C183
C183
C183
C183
C183
0003
0003
000F
000E
ENDCHAR
STARTCHAR uni0272
ENCODING 626
SWIDTH 556 0
DWIDTH 12 0
BBX 11 15 0 -4
BITMAP
3380
3FC0
38E0
3060
3060
3060
3060
3060
3060
3060
3060
3000
3000
F000
E000
ENDCHAR
STARTCHAR uni0273
ENCODING 627
SWIDTH 556 0
DWIDTH 12 0
BBX 11 15 2 -4
BITMAP
CE00
FF00
E380
C180
C180
C180
C180
C180
C180
C180
C180
0180
0180
01E0
00E0
ENDCHAR
STARTCHAR uni0274
ENCODING 628
SWIDTH 552 0
DWIDTH 12 0
BBX 10 11 1 0
BITMAP
C0C0
E0C0
F0C0
D8C0
D8C0
CCC0
C6C0
C6C0
C3C0
C1C0
C0C0
ENDCHAR
STARTCHAR uni0275
ENCODING 629
SWIDTH 556 0
DWIDTH 12 0
BBX 10 11 1 0
BITMAP
1E00
7F80
6180
C0C0
FFC0
FFC0
C0C0
C0C0
6180
7F80
1E00
ENDCHAR
STARTCHAR uni0276
ENCODING 630
SWIDTH 790 0
DWIDTH 17 0
BBX 15 11 1 0
BITMAP
1EFE
7FFE
61C0
C0C0
C0FC
C0FC
C0C0
C0C0
61C0
7FFE
1EFE
ENDCHAR
STARTCHAR uni0277
ENCODING 631
SWIDTH 780 0
DWIDTH 16 0
BBX 14 11 1 0
BITMAP
0FC0
3FF0
7038
E01C
C00C
C30C
C30C
C30C
E79C
7FF8
3CF0
ENDCHAR
STARTCHAR uni0278
ENCODING 632
SWIDTH 549 0
DWIDTH 12 0
BBX 10 19 1 -4
BITMAP
0C00
0C00
0C00
0C00
3F00
7F80
6D80
CCC0
CCC0
CCC0
CCC0
CCC0
6D80
7F80
3F00
0C00
0C00
0C00
0C00
ENDCHAR
STARTCHAR uni0279
ENCODING 633
SWIDTH 333 0
DWIDTH 7 0
BBX 6 11 0 0
BITMAP
0C
0C
0C
0C
0C
0C
0C
0C
1C
FC
EC
ENDCHAR
STARTCHAR uni027A
ENCODING 634
SWIDTH 333 0
DWIDTH 7 0
BBX 6 15 0 0
BITMAP
0C
0C
0C
0C
0C
0C
0C
0C
0C
0C
0C
0C
1C
FC
EC
ENDCHAR
STARTCHAR uni027B
ENCODING 635
SWIDTH 333 0
DWIDTH 7 0
BBX 8 15 0 -4
BITMAP
0C
0C
0C
0C
0C
0C
0C
0C
1C
FC
EC
0C
0C
0F
07
ENDCHAR
STARTCHAR uni027C
ENCODING 636
SWIDTH 333 0
DWIDTH 7 0
BBX 6 15 1 -4
BITMAP
DC
FC
E0
C0
C0
C0
C0
C0
C0
C0
C0
C0
C0
C0
C0
ENDCHAR
STARTCHAR uni027D
ENCODING 637
SWIDTH 333 0
DWIDTH 7 0
BBX 6 15 1 -4
BITMAP
DC
FC
E0
C0
C0
C0
C0
C0
C0
C0
C0
C0
C0
F0
70
ENDCHAR
STARTCHAR uni027E
ENCODING 638
SWIDTH 333 0
DWIDTH 7 0
BBX 6 11 1 0
BITMAP
3C
7C
E0
C0
C0
C0
C0
C0
C0
C0
C0
ENDCHAR
STARTCHAR uni027F
ENCODING 639
SWIDTH 333 0
DWIDTH 7 0
BBX 6 15 0 -4
BITMAP
F0
F8
1C
0C
0C
0C
0C
0C
0C
0C
0C
0C
0C
0C
0C
ENDCHAR
STARTCHAR uni0280
ENCODING 640
SWIDTH 541 0
DWIDTH 11 0
BBX 10 11 1 0
BITMAP
FE00
FF00
C180
C180
C380
FF00
FE00
C600
C300
C180
C1C0
ENDCHAR
STARTCHAR uni0281
ENCODING 641
SWIDTH 541 0
DWIDTH 11 0
BBX 10 11 1 0
BITMAP
C1C0
C180
C300
C600
FE00
FF00
C180
C180
C180
FF00
FE00
ENDCHAR
STARTCHAR uni0282
ENCODING 642
SWIDTH 500 0
DWIDTH 11 0
BBX 9 15 1 -4
BITMAP
3E00
7F00
C180
C000
F800
7F00
0F80
C180
E180
FF00
DE00
C000
C000
F000
7000
ENDCHAR
STARTCHAR uni0283
ENCODING 643
SWIDTH 222 0
DWIDTH 5 0
BBX 6 19 -1 -4
BITMAP
1C
3C
30
30
30
30
30
30
30
30
30
30
30
30
30
30
30
F0
E0
ENDCHAR
STARTCHAR uni0284
ENCODING 644
SWIDTH 259 0
DWIDTH 5 0
BBX 6 19 0 -4
BITMAP
1C
3C
30
30
30
30
30
30
30
30
30
30
30
F8
F8
30
30
F0
E0
ENDCHAR
STARTCHAR uni0285
ENCODING 645
SWIDTH 222 0
DWIDTH 5 0
BBX 6 15 -1 -4
BITMAP
E0
F0
30
30
30
30
30
30
30
30
30
30
30
3C
1C
ENDCHAR
STARTCHAR uni0286
ENCODING 646
SWIDTH 349 0
DWIDTH 7 0
BBX 8 19 0 -4
BITMAP
0F
1F
18
18
18
18
18
18
18
18
18
18
18
78
F8
DC
DC
FE
74
ENDCHAR
STARTCHAR uni0287
ENCODING 647
SWIDTH 277 0
DWIDTH 6 0
BBX 5 15 0 0
BITMAP
E0
F0
30
30
30
30
30
30
30
F8
F8
30
30
30
20
ENDCHAR
STARTCHAR uni0288
ENCODING 648
SWIDTH 277 0
DWIDTH 6 0
BBX 5 19 0 -4
BITMAP
20
60
60
60
F8
F8
60
60
60
60
60
60
60
60
60
60
60
78
38
ENDCHAR
STARTCHAR uni0289
ENCODING 649
SWIDTH 556 0
DWIDTH 12 0
BBX 11 11 0 0
BITMAP
60C0
60C0
60C0
60C0
FFE0
FFE0
60C0
60C0
71C0
3FC0
1CC0
ENDCHAR
STARTCHAR uni028A
ENCODING 650
SWIDTH 568 0
DWIDTH 12 0
BBX 10 11 1 0
BITMAP
E1C0
F3C0
3300
2100
4080
C0C0
C0C0
C0C0
E1C0
7F80
1E00
ENDCHAR
STARTCHAR uni028B
ENCODING 651
SWIDTH 546 0
DWIDTH 11 0
BBX 9 11 1 0
BITMAP
CF00
CF80
C180
C180
C180
C180
C180
C180
E300
7F00
3C00
ENDCHAR
STARTCHAR uni028C
ENCODING 652
SWIDTH 500 0
DWIDTH 11 0
BBX 11 11 0 0
BITMAP
0400
0E00
0E00
1B00
1B00
3180
3180
2080
60C0
60C0
C060
ENDCHAR
STARTCHAR uni028D
ENCODING 653
SWIDTH 722 0
DWIDTH 15 0
BBX 15 11 0 0
BITMAP
1C70
1C70
1C70
3458
36D8
26C8
66CC
628C
638C
C386
C386
ENDCHAR
STARTCHAR uni028E
ENCODING 654
SWIDTH 500 0
DWIDTH 11 0
BBX 11 15 0 0
BITMAP
0300
0600
0600
0600
0C00
0E00
1E00
1B00
3B00
3180
3180
6180
60C0
C0C0
C060
ENDCHAR
STARTCHAR uni028F
ENCODING 655
SWIDTH 519 0
DWIDTH 11 0
BBX 11 11 0 0
BITMAP
C060
60C0
3180
3300
1B00
1E00
0C00
0C00
0C00
0C00
0C00
ENDCHAR
STARTCHAR uni0290
ENCODING 656
SWIDTH 500 0
DWIDTH 11 0
BBX 11 15 1 -4
BITMAP
FF80
FF80
0300
0600
0C00
1800
3000
6000
C000
FF80
FF80
0180
0180
01E0
00E0
ENDCHAR
STARTCHAR uni0291
ENCODING 657
SWIDTH 541 0
DWIDTH 11 0
BBX 9 13 1 -2
BITMAP
FF00
FF00
0600
0C00
1800
1800
3700
6F80
CD80
FF80
FF00
3000
1000
ENDCHAR
STARTCHAR uni0292
ENCODING 658
SWIDTH 544 0
DWIDTH 11 0
BBX 9 15 1 -4
BITMAP
FF00
FF00
0600
0C00
1800
1E00
1F00
0380
0180
0180
0180
C180
E300
7F00
3C00
ENDCHAR
STARTCHAR uni0293
ENCODING 659
SWIDTH 544 0
DWIDTH 11 0
BBX 9 15 1 -4
BITMAP
FF00
FF00
0600
0C00
1800
1E00
1F00
0380
0180
0180
3D80
7F80
6300
7F80
3E80
ENDCHAR
STARTCHAR uni0294
ENCODING 660
SWIDTH 500 0
DWIDTH 11 0
BBX 10 15 0 0
BITMAP
3E00
7F80
E180
C0C0
00C0
00C0
00C0
00C0
0180
0F80
0F00
0C00
0C00
0C00
0C00
ENDCHAR
STARTCHAR uni0295
ENCODING 661
SWIDTH 500 0
DWIDTH 11 0
BBX 10 15 1 0
BITMAP
1F00
7F80
61C0
C0C0
C000
C000
C000
C000
6000
7C00
3C00
0C00
0C00
0C00
0C00
ENDCHAR
STARTCHAR uni0296
ENCODING 662
SWIDTH 500 0
DWIDTH 11 0
BBX 10 15 0 0
BITMAP
0C00
0C00
0C00
0C00
0F00
0F80
0180
00C0
00C0
00C0
00C0
C0C0
E180
7F80
3E00
ENDCHAR
STARTCHAR uni0297
ENCODING 663
SWIDTH 500 0
DWIDTH 11 0
BBX 9 15 1 -4
BITMAP
1E00
7F00
6380
C180
C000
C000
C000
C000
C000
C000
C180
C180
6300
7F00
3E00
ENDCHAR
STARTCHAR uni0298
ENCODING 664
SWIDTH 777 0
DWIDTH 16 0
BBX 14 15 1 0
BITMAP
0FC0
1FE0
3870
6018
E01C
C00C
C30C
C30C
C00C
C00C
E01C
6018
3870
1FE0
0FC0
ENDCHAR
STARTCHAR uni0299
ENCODING 665
SWIDTH 531 0
DWIDTH 11 0
BBX 9 11 1 0
BITMAP
FF00
FF80
C180
C180
FF00
FF00
C180
C180
C180
FF00
FE00
ENDCHAR
STARTCHAR uni029A
ENCODING 666
SWIDTH 507 0
DWIDTH 11 0
BBX 9 11 1 0
BITMAP
3C00
7F00
C300
C180
7980
7980
C180
C180
C300
7F00
3C00
ENDCHAR
STARTCHAR uni029B
ENCODING 667
SWIDTH 558 0
DWIDTH 12 0
BBX 13 13 1 0
BITMAP
0078
00F8
1FC0
7FC0
61C0
C0C0
C000
C7C0
C7C0
C0C0
60C0
7FC0
1F00
ENDCHAR
STARTCHAR uni029C
ENCODING 668
SWIDTH 552 0
DWIDTH 11 0
BBX 9 11 1 0
BITMAP
C180
C180
C180
C180
FF80
FF80
C180
C180
C180
C180
C180
ENDCHAR
STARTCHAR uni029D
ENCODING 669
SWIDTH 397 0
DWIDTH 8 0
BBX 8 19 0 -4
BITMAP
06
06
00
00
06
06
06
06
06
06
06
06
06
7F
FF
C6
CE
FC
78
ENDCHAR
STARTCHAR uni029E
ENCODING 670
SWIDTH 500 0
DWIDTH 11 0
BBX 10 15 0 -4
BITMAP
E0C0
60C0
30C0
18C0
19C0
0FC0
07C0
0EC0
1CC0
38C0
70C0
00C0
00C0
00C0
00C0
ENDCHAR
STARTCHAR uni029F
ENCODING 671
SWIDTH 403 0
DWIDTH 8 0
BBX 6 11 1 0
BITMAP
C0
C0
C0
C0
C0
C0
C0
C0
C0
FC
FC
ENDCHAR
STARTCHAR uni02A0
ENCODING 672
SWIDTH 556 0
DWIDTH 12 0
BBX 12 19 1 -4
BITMAP
00F0
01F0
0180
0180
3D80
7F80
6380
C180
C180
C180
C180
C180
6380
7F80
3D80
0180
0180
0180
0180
ENDCHAR
STARTCHAR uni02A1
ENCODING 673
SWIDTH 500 0
DWIDTH 11 0
BBX 10 15 0 0
BITMAP
3E00
7F80
E180
C0C0
00C0
00C0
00C0
01C0
0F80
0F00
0C00
FF80
FF80
0C00
0C00
ENDCHAR
STARTCHAR uni02A2
ENCODING 674
SWIDTH 500 0
DWIDTH 11 0
BBX 10 15 1 0
BITMAP
1F00
7F80
61C0
C0C0
C000
C000
C000
E000
7C00
3C00
0C00
7FC0
7FC0
0C00
0C00
ENDCHAR
STARTCHAR uni02A3
ENCODING 675
SWIDTH 964 0
DWIDTH 20 0
BBX 18 15 1 0
BITMAP
018000
018000
018000
018000
3DFFC0
7FFFC0
6381C0
C18380
C18700
C18E00
C19C00
C1B800
63F000
7FFFC0
3DFFC0
ENDCHAR
STARTCHAR uni02A4
ENCODING 676
SWIDTH 906 0
DWIDTH 19 0
BBX 17 19 1 -4
BITMAP
018000
018000
018000
018000
3DFF00
7FFF00
638600
C18C00
C19800
C19E00
C19F00
C18380
638180
7F8180
3D8180
000180
018300
00FE00
007C00
ENDCHAR
STARTCHAR uni02A5
ENCODING 677
SWIDTH 1005 0
DWIDTH 21 0
BBX 19 16 1 -1
BITMAP
018000
018000
018000
018000
3DFFC0
7FFFC0
638180
C18300
C18600
C18C00
C199C0
C1B3E0
63E660
7FFFE0
3DFFC0
000C00
ENDCHAR
STARTCHAR uni02A6
ENCODING 678
SWIDTH 712 0
DWIDTH 15 0
BBX 13 15 1 0
BITMAP
2000
6000
6000
6000
FFE0
FFF8
6618
6600
67C0
63F0
6078
6018
6018
7FF0
3FE0
ENDCHAR
STARTCHAR uni02A7
ENCODING 679
SWIDTH 429 0
DWIDTH 9 0
BBX 10 19 0 -4
BITMAP
21C0
63C0
6300
6300
FF00
FF00
6300
6300
6300
6300
6300
6300
6300
7F00
3F00
0300
0300
0F00
0E00
ENDCHAR
STARTCHAR uni02A8
ENCODING 680
SWIDTH 718 0
DWIDTH 15 0
BBX 14 15 0 0
BITMAP
2000
6000
6000
6000
F8F0
FBF8
631C
660C
6600
6600
6678
67FC
638C
7FFC
3DF8
ENDCHAR
STARTCHAR uni02A9
ENCODING 681
SWIDTH 763 0
DWIDTH 16 0
BBX 15 19 0 -4
BITMAP
1E00
3E00
3000
3000
FF78
FFFC
338E
3306
3306
3306
3306
3306
3306
3306
3306
0006
0006
001E
001C
ENDCHAR
STARTCHAR uni02AA
ENCODING 682
SWIDTH 661 0
DWIDTH 14 0
BBX 12 15 1 0
BITMAP
C000
C000
C000
C000
C7C0
CFE0
D830
D800
DF00
CFE0
C1F0
C030
F030
FFE0
DFC0
ENDCHAR
STARTCHAR uni02AB
ENCODING 683
SWIDTH 632 0
DWIDTH 13 0
BBX 11 15 1 0
BITMAP
C000
C000
C000
C000
FFE0
FFE0
C0C0
C180
C300
C600
CC00
D800
F000
FFE0
FFE0
ENDCHAR
STARTCHAR uni02AC
ENCODING 684
SWIDTH 485 0
DWIDTH 10 0
BBX 10 15 0 0
BITMAP
CCC0
CCC0
4C80
5280
7380
3300
2100
0000
CCC0
CCC0
4C80
5280
7380
3300
2100
ENDCHAR
STARTCHAR uni02AD
ENCODING 685
SWIDTH 527 0
DWIDTH 11 0
BBX 9 15 1 0
BITMAP
FF80
FF80
C180
C180
C180
0000
0000
0000
0000
0000
FF80
FF80
C180
C180
C180
ENDCHAR
STARTCHAR uni02AE
ENCODING 686
SWIDTH 687 0
DWIDTH 14 0
BBX 13 15 0 -4
BITMAP
F018
F818
1C18
0C18
0C18
0C18
0C18
0C18
0E38
07F8
03D8
0018
0018
0018
0018
ENDCHAR
STARTCHAR uni02AF
ENCODING 687
SWIDTH 687 0
DWIDTH 14 0
BBX 17 15 0 -4
BITMAP
F01800
F81800
1C1800
0C1800
0C1800
0C1800
0C1800
0C1800
0E3800
07F800
03D800
001800
001C00
000F80
000780
ENDCHAR
STARTCHAR uni02B0
ENCODING 688
SWIDTH 383 0
DWIDTH 8 0
BBX 6 10 1 5
BITMAP
80
80
80
B8
C4
84
84
84
84
84
ENDCHAR
STARTCHAR uni02B1
ENCODING 689
SWIDTH 383 0
DWIDTH 8 0
BBX 6 10 1 5
BITMAP
60
80
80
B8
C4
84
84
84
84
84
ENDCHAR
STARTCHAR uni02B2
ENCODING 690
SWIDTH 159 0
DWIDTH 3 0
BBX 3 13 -1 2
BITMAP
20
00
00
20
20
20
20
20
20
20
20
20
C0
ENDCHAR
STARTCHAR uni02B3
ENCODING 691
SWIDTH 239 0
DWIDTH 5 0
BBX 4 7 1 5
BITMAP
B0
C0
80
80
80
80
80
ENDCHAR
STARTCHAR uni02B4
ENCODING 692
SWIDTH 239 0
DWIDTH 5 0
BBX 4 7 0 5
BITMAP
10
10
10
10
10
30
D0
ENDCHAR
STARTCHAR uni02B5
ENCODING 693
SWIDTH 239 0
DWIDTH 5 0
BBX 6 10 0 2
BITMAP
10
10
10
10
10
30
D0
10
10
0C
ENDCHAR
STARTCHAR uni02B6
ENCODING 694
SWIDTH 364 0
DWIDTH 8 0
BBX 6 7 1 5
BITMAP
84
88
90
F8
84
84
F8
ENDCHAR
STARTCHAR uni02B7
ENCODING 695
SWIDTH 480 0
DWIDTH 10 0
BBX 10 7 0 5
BITMAP
8840
8C40
4C80
5280
5280
3300
2100
ENDCHAR
STARTCHAR uni02B8
ENCODING 696
SWIDTH 320 0
DWIDTH 7 0
BBX 7 10 0 2
BITMAP
82
44
44
44
28
28
10
10
10
60
ENDCHAR
STARTCHAR uni02B9
ENCODING 697
SWIDTH 190 0
DWIDTH 4 0
BBX 2 5 1 10
BITMAP
C0
C0
C0
C0
C0
ENDCHAR
STARTCHAR uni02BA
ENCODING 698
SWIDTH 354 0
DWIDTH 7 0
BBX 6 5 1 10
BITMAP
CC
CC
CC
CC
CC
ENDCHAR
STARTCHAR uni02BB
ENCODING 699
SWIDTH 222 0
DWIDTH 5 0
BBX 2 5 1 10
BITMAP
40
80
80
C0
C0
ENDCHAR
STARTCHAR uni02BC
ENCODING 700
SWIDTH 222 0
DWIDTH 5 0
BBX 2 5 1 10
BITMAP
C0
C0
40
40
80
ENDCHAR
STARTCHAR uni02BD
ENCODING 701
SWIDTH 222 0
DWIDTH 5 0
BBX 2 5 1 10
BITMAP
C0
C0
80
80
40
ENDCHAR
STARTCHAR uni02BE
ENCODING 702
SWIDTH 333 0
DWIDTH 7 0
BBX 2 4 3 12
BITMAP
80
40
40
80
ENDCHAR
STARTCHAR uni02BF
ENCODING 703
SWIDTH 333 0
DWIDTH 7 0
BBX 2 4 2 12
BITMAP
40
80
80
40
ENDCHAR
STARTCHAR uni02C0
ENCODING 704
SWIDTH 348 0
DWIDTH 7 0
BBX 6 10 0 5
BITMAP
78
84
84
04
04
08
30
20
20
20
ENDCHAR
STARTCHAR uni02C1
ENCODING 705
SWIDTH 348 0
DWIDTH 7 0
BBX 6 10 1 5
BITMAP
78
84
84
80
80
40
30
10
10
10
ENDCHAR
STARTCHAR uni02C2
ENCODING 706
SWIDTH 583 0
DWIDTH 12 0
BBX 10 11 1 2
BITMAP
0040
01C0
0780
1E00
7000
C000
7000
1E00
0780
01C0
0040
ENDCHAR
STARTCHAR uni02C3
ENCODING 707
SWIDTH 583 0
DWIDTH 12 0
BBX 10 11 1 2
BITMAP
8000
E000
7800
1E00
0380
00C0
0380
1E00
7800
E000
8000
ENDCHAR
STARTCHAR uni02C4
ENCODING 708
SWIDTH 583 0
DWIDTH 12 0
BBX 11 11 0 2
BITMAP
0400
0E00
0A00
1B00
1B00
3180
3180
2080
60C0
60C0
C060
ENDCHAR
STARTCHAR uni02C5
ENCODING 709
SWIDTH 583 0
DWIDTH 12 0
BBX 11 11 0 2
BITMAP
C060
60C0
60C0
2080
3180
3180
1B00
1B00
0A00
0E00
0400
ENDCHAR
STARTCHAR circumflex
ENCODING 710
SWIDTH 333 0
DWIDTH 7 0
BBX 6 3 1 12
BITMAP
30
78
CC
ENDCHAR
STARTCHAR caron
ENCODING 711
SWIDTH 333 0
DWIDTH 7 0
BBX 6 3 1 12
BITMAP
CC
78
30
ENDCHAR
STARTCHAR uni02C8
ENCODING 712
SWIDTH 333 0
DWIDTH 7 0
BBX 1 3 3 12
BITMAP
80
80
80
ENDCHAR
STARTCHAR uni02C9
ENCODING 713
SWIDTH 333 0
DWIDTH 7 0
BBX 6 2 0 13
BITMAP
FC
FC
ENDCHAR
STARTCHAR uni02CA
ENCODING 714
SWIDTH 333 0
DWIDTH 7 0
BBX 3 3 2 12
BITMAP
60
C0
80
ENDCHAR
STARTCHAR uni02CB
ENCODING 715
SWIDTH 333 0
DWIDTH 7 0
BBX 3 3 2 12
BITMAP
C0
60
20
ENDCHAR
STARTCHAR uni02CC
ENCODING 716
SWIDTH 333 0
DWIDTH 7 0
BBX 1 3 3 -4
BITMAP
80
80
80
ENDCHAR
STARTCHAR uni02CD
ENCODING 717
SWIDTH 333 0
DWIDTH 7 0
BBX 7 2 0 -4
BITMAP
FE
FE
ENDCHAR
STARTCHAR uni02CE
ENCODING 718
SWIDTH 333 0
DWIDTH 7 0
BBX 3 3 2 -4
BITMAP
C0
60
20
ENDCHAR
STARTCHAR uni02CF
ENCODING 719
SWIDTH 333 0
DWIDTH 7 0
BBX 3 3 2 -4
BITMAP
60
C0
80
ENDCHAR
STARTCHAR uni02D0
ENCODING 720
SWIDTH 277 0
DWIDTH 6 0
BBX 3 11 1 0
BITMAP
E0
40
00
00
00
00
00
00
00
40
E0
ENDCHAR
STARTCHAR uni02D1
ENCODING 721
SWIDTH 277 0
DWIDTH 6 0
BBX 3 2 1 9
BITMAP
E0
40
ENDCHAR
STARTCHAR uni02D2
ENCODING 722
SWIDTH 333 0
DWIDTH 7 0
BBX 2 4 3 1
BITMAP
80
40
40
80
ENDCHAR
STARTCHAR uni02D3
ENCODING 723
SWIDTH 333 0
DWIDTH 7 0
BBX 2 4 2 1
BITMAP
40
80
80
40
ENDCHAR
STARTCHAR uni02D4
ENCODING 724
SWIDTH 333 0
DWIDTH 7 0
BBX 3 3 2 2
BITMAP
40
40
E0
ENDCHAR
STARTCHAR uni02D5
ENCODING 725
SWIDTH 333 0
DWIDTH 7 0
BBX 3 3 2 2
BITMAP
E0
40
40
ENDCHAR
STARTCHAR uni02D6
ENCODING 726
SWIDTH 333 0
DWIDTH 7 0
BBX 3 3 2 2
BITMAP
40
E0
40
ENDCHAR
STARTCHAR uni02D7
ENCODING 727
SWIDTH 333 0
DWIDTH 7 0
BBX 7 2 0 3
BITMAP
FE
FE
ENDCHAR
STARTCHAR breve
ENCODING 728
SWIDTH 333 0
DWIDTH 7 0
BBX 6 3 0 12
BITMAP
84
CC
78
ENDCHAR
STARTCHAR dotaccent
ENCODING 729
SWIDTH 333 0
DWIDTH 7 0
BBX 2 2 2 13
BITMAP
C0
C0
ENDCHAR
STARTCHAR ring
ENCODING 730
SWIDTH 333 0
DWIDTH 7 0
BBX 5 5 2 10
BITMAP
70
88
88
88
70
ENDCHAR
STARTCHAR ogonek
ENCODING 731
SWIDTH 333 0
DWIDTH 7 0
BBX 3 4 1 -4
BITMAP
40
80
80
E0
ENDCHAR
STARTCHAR tilde
ENCODING 732
SWIDTH 333 0
DWIDTH 7 0
BBX 7 3 0 12
BITMAP
76
FE
DC
ENDCHAR
STARTCHAR hungarumlaut
ENCODING 733
SWIDTH 333 0
DWIDTH 7 0
BBX 6 3 1 12
BITMAP
6C
D8
D8
ENDCHAR
STARTCHAR uni02DE
ENCODING 734
SWIDTH 333 0
DWIDTH 7 0
BBX 5 4 0 4
BITMAP
C0
C8
78
38
ENDCHAR
STARTCHAR uni02DF
ENCODING 735
SWIDTH 333 0
DWIDTH 7 0
BBX 7 7 0 8
BITMAP
82
44
28
10
28
44
82
ENDCHAR
STARTCHAR uni02E0
ENCODING 736
SWIDTH 322 0
DWIDTH 7 0
BBX 7 10 0 2
BITMAP
82
44
44
28
28
10
10
10
28
10
ENDCHAR
STARTCHAR uni02E1
ENCODING 737
SWIDTH 157 0
DWIDTH 3 0
BBX 1 10 1 5
BITMAP
80
80
80
80
80
80
80
80
80
80
ENDCHAR
STARTCHAR uni02E2
ENCODING 738
SWIDTH 339 0
DWIDTH 7 0
BBX 5 7 1 5
BITMAP
70
88
80
70
08
88
70
ENDCHAR
STARTCHAR uni02E3
ENCODING 739
SWIDTH 328 0
DWIDTH 7 0
BBX 7 7 0 5
BITMAP
82
44
28
10
28
44
82
ENDCHAR
STARTCHAR uni02E4
ENCODING 740
SWIDTH 348 0
DWIDTH 7 0
BBX 6 10 1 5
BITMAP
78
84
84
80
80
40
30
10
10
10
ENDCHAR
STARTCHAR uni02E5
ENCODING 741
SWIDTH 382 0
DWIDTH 8 0
BBX 4 15 2 0
BITMAP
F0
F0
30
30
30
30
30
30
30
30
30
30
30
30
30
ENDCHAR
STARTCHAR uni02E6
ENCODING 742
SWIDTH 382 0
DWIDTH 8 0
BBX 4 15 2 0
BITMAP
30
30
30
F0
F0
30
30
30
30
30
30
30
30
30
30
ENDCHAR
STARTCHAR uni02E7
ENCODING 743
SWIDTH 382 0
DWIDTH 8 0
BBX 4 15 2 0
BITMAP
30
30
30
30
30
30
F0
F0
30
30
30
30
30
30
30
ENDCHAR
STARTCHAR uni02E8
ENCODING 744
SWIDTH 382 0
DWIDTH 8 0
BBX 4 15 2 0
BITMAP
30
30
30
30
30
30
30
30
30
30
F0
F0
30
30
30
ENDCHAR
STARTCHAR uni02E9
ENCODING 745
SWIDTH 382 0
DWIDTH 8 0
BBX 4 15 2 0
BITMAP
30
30
30
30
30
30
30
30
30
30
30
30
30
F0
F0
ENDCHAR
STARTCHAR uni02EA
ENCODING 746
SWIDTH 333 0
DWIDTH 7 0
BBX 5 9 1 0
BITMAP
80
80
80
80
80
80
80
80
F8
ENDCHAR
STARTCHAR uni02EB
ENCODING 747
SWIDTH 333 0
DWIDTH 7 0
BBX 5 9 1 0
BITMAP
80
80
80
80
F8
80
80
80
80
ENDCHAR
STARTCHAR uni02EC
ENCODING 748
SWIDTH 333 0
DWIDTH 7 0
BBX 6 3 1 -4
BITMAP
CC
78
30
ENDCHAR
STARTCHAR uni02ED
ENCODING 749
SWIDTH 333 0
DWIDTH 7 0
BBX 7 5 0 12
BITMAP
FE
FE
00
FE
FE
ENDCHAR
STARTCHAR uni02EE
ENCODING 750
SWIDTH 333 0
DWIDTH 7 0
BBX 5 5 1 10
BITMAP
D8
D8
48
48
90
ENDCHAR
STARTCHAR uni02EF
ENCODING 751
SWIDTH 333 0
DWIDTH 7 0
BBX 4 3 2 -4
BITMAP
90
60
60
ENDCHAR
STARTCHAR uni02F0
ENCODING 752
SWIDTH 333 0
DWIDTH 7 0
BBX 4 3 2 -4
BITMAP
60
60
90
ENDCHAR
STARTCHAR uni02F1
ENCODING 753
SWIDTH 333 0
DWIDTH 7 0
BBX 3 4 2 -4
BITMAP
20
C0
C0
20
ENDCHAR
STARTCHAR uni02F2
ENCODING 754
SWIDTH 333 0
DWIDTH 7 0
BBX 3 4 2 -4
BITMAP
80
60
60
80
ENDCHAR
STARTCHAR uni02F3
ENCODING 755
SWIDTH 333 0
DWIDTH 7 0
BBX 4 4 2 -5
BITMAP
60
90
90
60
ENDCHAR
STARTCHAR uni02F4
ENCODING 756
SWIDTH 333 0
DWIDTH 7 0
BBX 3 3 2 2
BITMAP
C0
60
20
ENDCHAR
STARTCHAR uni02F5
ENCODING 757
SWIDTH 333 0
DWIDTH 7 0
BBX 6 3 0 2
BITMAP
D8
6C
6C
ENDCHAR
STARTCHAR uni02F6
ENCODING 758
SWIDTH 333 0
DWIDTH 7 0
BBX 6 3 1 2
BITMAP
6C
D8
90
ENDCHAR
STARTCHAR uni02F7
ENCODING 759
SWIDTH 333 0
DWIDTH 7 0
BBX 7 3 0 -4
BITMAP
66
FE
DC
ENDCHAR
STARTCHAR uni02F8
ENCODING 760
SWIDTH 277 0
DWIDTH 6 0
BBX 2 11 2 4
BITMAP
C0
C0
00
00
00
00
00
00
00
C0
C0
ENDCHAR
STARTCHAR uni02F9
ENCODING 761
SWIDTH 333 0
DWIDTH 7 0
BBX 3 3 2 12
BITMAP
E0
80
80
ENDCHAR
STARTCHAR uni02FA
ENCODING 762
SWIDTH 333 0
DWIDTH 7 0
BBX 3 3 2 12
BITMAP
E0
20
20
ENDCHAR
STARTCHAR uni02FB
ENCODING 763
SWIDTH 333 0
DWIDTH 7 0
BBX 3 3 2 -4
BITMAP
80
80
E0
ENDCHAR
STARTCHAR uni02FC
ENCODING 764
SWIDTH 333 0
DWIDTH 7 0
BBX 3 3 2 -4
BITMAP
20
20
E0
ENDCHAR
STARTCHAR uni02FD
ENCODING 765
SWIDTH 397 0
DWIDTH 8 0
BBX 8 4 0 -4
BITMAP
C3
C3
FF
FF
ENDCHAR
STARTCHAR uni02FE
ENCODING 766
SWIDTH 397 0
DWIDTH 8 0
BBX 8 4 0 -4
BITMAP
C0
C0
FF
FF
ENDCHAR
STARTCHAR uni02FF
ENCODING 767
SWIDTH 333 0
DWIDTH 7 0
BBX 6 5 1 -4
BITMAP
20
40
FC
40
20
ENDCHAR
STARTCHAR gravecomb
ENCODING 768
SWIDTH 0 0
DWIDTH 0 0
BBX 3 3 -5 16
BITMAP
C0
60
20
ENDCHAR
STARTCHAR acutecomb
ENCODING 769
SWIDTH 0 0
DWIDTH 0 0
BBX 3 3 -3 16
BITMAP
60
C0
80
ENDCHAR
STARTCHAR uni0302
ENCODING 770
SWIDTH 0 0
DWIDTH 0 0
BBX 6 3 -3 12
BITMAP
30
78
CC
ENDCHAR
STARTCHAR tildecomb
ENCODING 771
SWIDTH 0 0
DWIDTH 0 0
BBX 8 2 -10 16
BITMAP
73
CE
ENDCHAR
STARTCHAR uni0304
ENCODING 772
SWIDTH 0 0
DWIDTH 0 0
BBX 6 2 -3 12
BITMAP
FC
FC
ENDCHAR
STARTCHAR uni0305
ENCODING 773
SWIDTH 0 0
DWIDTH 0 0
BBX 12 2 -6 16
BITMAP
FFF0
FFF0
ENDCHAR
STARTCHAR uni0306
ENCODING 774
SWIDTH 0 0
DWIDTH 0 0
BBX 6 3 -3 12
BITMAP
84
CC
78
ENDCHAR
STARTCHAR uni0307
ENCODING 775
SWIDTH 0 0
DWIDTH 0 0
BBX 2 2 -1 12
BITMAP
C0
C0
ENDCHAR
STARTCHAR uni0308
ENCODING 776
SWIDTH 0 0
DWIDTH 0 0
BBX 6 2 -3 12
BITMAP
CC
CC
ENDCHAR
STARTCHAR hookabovecomb
ENCODING 777
SWIDTH 0 0
DWIDTH 0 0
BBX 4 3 -4 16
BITMAP
E0
30
60
ENDCHAR
STARTCHAR uni030A
ENCODING 778
SWIDTH 0 0
DWIDTH 0 0
BBX 5 5 -2 12
BITMAP
70
88
88
88
70
ENDCHAR
STARTCHAR uni030B
ENCODING 779
SWIDTH 0 0
DWIDTH 0 0
BBX 6 3 -3 12
BITMAP
6C
D8
90
ENDCHAR
STARTCHAR uni030C
ENCODING 780
SWIDTH 0 0
DWIDTH 0 0
BBX 6 3 -3 12
BITMAP
CC
78
30
ENDCHAR
STARTCHAR uni030D
ENCODING 781
SWIDTH 0 0
DWIDTH 0 0
BBX 1 3 -1 12
BITMAP
80
80
80
ENDCHAR
STARTCHAR uni030E
ENCODING 782
SWIDTH 0 0
DWIDTH 0 0
BBX 3 3 -1 12
BITMAP
A0
A0
A0
ENDCHAR
STARTCHAR uni030F
ENCODING 783
SWIDTH 0 0
DWIDTH 0 0
BBX 6 3 -3 12
BITMAP
D8
6C
6C
ENDCHAR
STARTCHAR uni0310
ENCODING 784
SWIDTH 0 0
DWIDTH 0 0
BBX 6 5 -3 12
BITMAP
30
30
84
CC
78
ENDCHAR
STARTCHAR uni0311
ENCODING 785
SWIDTH 0 0
DWIDTH 0 0
BBX 6 3 -3 12
BITMAP
78
CC
84
ENDCHAR
STARTCHAR uni0312
ENCODING 786
SWIDTH 0 0
DWIDTH 0 0
BBX 2 5 -1 10
BITMAP
40
80
80
C0
C0
ENDCHAR
STARTCHAR uni0313
ENCODING 787
SWIDTH 0 0
DWIDTH 0 0
BBX 2 5 -1 10
BITMAP
C0
C0
40
40
80
ENDCHAR
STARTCHAR uni0314
ENCODING 788
SWIDTH 0 0
DWIDTH 0 0
BBX 2 5 -1 10
BITMAP
C0
C0
80
80
40
ENDCHAR
STARTCHAR uni0315
ENCODING 789
SWIDTH 0 0
DWIDTH 0 0
BBX 2 5 0 10
BITMAP
C0
C0
40
40
80
ENDCHAR
STARTCHAR uni0316
ENCODING 790
SWIDTH 0 0
DWIDTH 0 0
BBX 3 3 -2 -4
BITMAP
C0
60
20
ENDCHAR
STARTCHAR uni0317
ENCODING 791
SWIDTH 0 0
DWIDTH 0 0
BBX 3 3 -1 -4
BITMAP
60
C0
80
ENDCHAR
STARTCHAR uni0318
ENCODING 792
SWIDTH 0 0
DWIDTH 0 0
BBX 3 3 -1 -4
BITMAP
20
E0
20
ENDCHAR
STARTCHAR uni0319
ENCODING 793
SWIDTH 0 0
DWIDTH 0 0
BBX 3 3 -2 -4
BITMAP
80
E0
80
ENDCHAR
STARTCHAR uni031A
ENCODING 794
SWIDTH 0 0
DWIDTH 0 0
BBX 8 5 -4 12
BITMAP
FF
FF
03
03
03
ENDCHAR
STARTCHAR uni031B
ENCODING 795
SWIDTH 0 0
DWIDTH 0 0
BBX 3 5 0 10
BITMAP
60
60
20
20
C0
ENDCHAR
STARTCHAR uni031C
ENCODING 796
SWIDTH 0 0
DWIDTH 0 0
BBX 2 3 -1 -4
BITMAP
40
80
40
ENDCHAR
STARTCHAR uni031D
ENCODING 797
SWIDTH 0 0
DWIDTH 0 0
BBX 3 3 -2 -4
BITMAP
40
40
E0
ENDCHAR
STARTCHAR uni031E
ENCODING 798
SWIDTH 0 0
DWIDTH 0 0
BBX 3 3 -2 -4
BITMAP
E0
40
40
ENDCHAR
STARTCHAR uni031F
ENCODING 799
SWIDTH 0 0
DWIDTH 0 0
BBX 3 3 -2 -4
BITMAP
40
E0
40
ENDCHAR
STARTCHAR uni0320
ENCODING 800
SWIDTH 0 0
DWIDTH 0 0
BBX 6 2 -3 -4
BITMAP
FC
FC
ENDCHAR
STARTCHAR uni0321
ENCODING 801
SWIDTH 0 0
DWIDTH 0 0
BBX 4 6 -2 -4
BITMAP
30
30
30
30
F0
E0
ENDCHAR
STARTCHAR uni0322
ENCODING 802
SWIDTH 0 0
DWIDTH 0 0
BBX 4 6 0 -4
BITMAP
C0
C0
C0
C0
F0
70
ENDCHAR
STARTCHAR dotbelowcomb
ENCODING 803
SWIDTH 0 0
DWIDTH 0 0
BBX 2 2 -8 -3
BITMAP
C0
C0
ENDCHAR
STARTCHAR uni0324
ENCODING 804
SWIDTH 0 0
DWIDTH 0 0
BBX 6 2 -3 -4
BITMAP
CC
CC
ENDCHAR
STARTCHAR uni0325
ENCODING 805
SWIDTH 0 0
DWIDTH 0 0
BBX 4 4 -2 -5
BITMAP
60
90
90
60
ENDCHAR
STARTCHAR uni0326
ENCODING 806
SWIDTH 0 0
DWIDTH 0 0
BBX 2 3 -1 -4
BITMAP
C0
40
80
ENDCHAR
STARTCHAR uni0327
ENCODING 807
SWIDTH 0 0
DWIDTH 0 0
BBX 5 4 -3 -4
BITMAP
20
30
18
F0
ENDCHAR
STARTCHAR uni0328
ENCODING 808
SWIDTH 0 0
DWIDTH 0 0
BBX 3 4 -1 -4
BITMAP
40
80
80
E0
ENDCHAR
STARTCHAR uni0329
ENCODING 809
SWIDTH 0 0
DWIDTH 0 0
BBX 1 3 -1 -4
BITMAP
80
80
80
ENDCHAR
STARTCHAR uni032A
ENCODING 810
SWIDTH 0 0
DWIDTH 0 0
BBX 8 4 -4 -5
BITMAP
FF
FF
C3
C3
ENDCHAR
STARTCHAR uni032B
ENCODING 811
SWIDTH 0 0
DWIDTH 0 0
BBX 7 2 -3 -3
BITMAP
92
6C
ENDCHAR
STARTCHAR uni032C
ENCODING 812
SWIDTH 0 0
DWIDTH 0 0
BBX 6 3 -3 -4
BITMAP
CC
78
30
ENDCHAR
STARTCHAR uni032D
ENCODING 813
SWIDTH 0 0
DWIDTH 0 0
BBX 6 3 -3 -4
BITMAP
30
78
CC
ENDCHAR
STARTCHAR uni032E
ENCODING 814
SWIDTH 0 0
DWIDTH 0 0
BBX 6 3 -3 -4
BITMAP
84
CC
78
ENDCHAR
STARTCHAR uni032F
ENCODING 815
SWIDTH 0 0
DWIDTH 0 0
BBX 6 3 -3 -4
BITMAP
78
CC
84
ENDCHAR
STARTCHAR uni0330
ENCODING 816
SWIDTH 0 0
DWIDTH 0 0
BBX 7 3 -4 -4
BITMAP
66
FE
DC
ENDCHAR
STARTCHAR uni0331
ENCODING 817
SWIDTH 0 0
DWIDTH 0 0
BBX 6 2 -3 -4
BITMAP
FC
FC
ENDCHAR
STARTCHAR uni0332
ENCODING 818
SWIDTH 0 0
DWIDTH 0 0
BBX 12 2 -6 -4
BITMAP
FFF0
FFF0
ENDCHAR
STARTCHAR uni0333
ENCODING 819
SWIDTH 0 0
DWIDTH 0 0
BBX 6 3 -3 -5
BITMAP
FC
00
FC
ENDCHAR
STARTCHAR uni0334
ENCODING 820
SWIDTH 0 0
DWIDTH 0 0
BBX 7 3 -4 2
BITMAP
66
FE
DC
ENDCHAR
STARTCHAR uni0335
ENCODING 821
SWIDTH 0 0
DWIDTH 0 0
BBX 6 2 -3 3
BITMAP
FC
FC
ENDCHAR
STARTCHAR uni0336
ENCODING 822
SWIDTH 0 0
DWIDTH 0 0
BBX 12 2 -6 3
BITMAP
FFF0
FFF0
ENDCHAR
STARTCHAR uni0337
ENCODING 823
SWIDTH 0 0
DWIDTH 0 0
BBX 10 11 -5 0
BITMAP
0040
00C0
0180
0300
0600
0C00
1800
3000
6000
C000
8000
ENDCHAR
STARTCHAR uni0338
ENCODING 824
SWIDTH 0 0
DWIDTH 0 0
BBX 6 15 -3 0
BITMAP
0C
0C
18
18
18
18
30
30
30
60
60
60
60
C0
C0
ENDCHAR
STARTCHAR uni0339
ENCODING 825
SWIDTH 0 0
DWIDTH 0 0
BBX 2 3 -1 -4
BITMAP
80
40
80
ENDCHAR
STARTCHAR uni033A
ENCODING 826
SWIDTH 0 0
DWIDTH 0 0
BBX 8 4 -4 -4
BITMAP
C3
C3
FF
FF
ENDCHAR
STARTCHAR uni033B
ENCODING 827
SWIDTH 0 0
DWIDTH 0 0
BBX 4 4 -2 -5
BITMAP
F0
90
90
F0
ENDCHAR
STARTCHAR uni033C
ENCODING 828
SWIDTH 0 0
DWIDTH 0 0
BBX 7 2 -3 -3
BITMAP
6C
92
ENDCHAR
STARTCHAR uni033D
ENCODING 829
SWIDTH 0 0
DWIDTH 0 0
BBX 5 5 -2 12
BITMAP
50
F8
70
F8
50
ENDCHAR
STARTCHAR uni033E
ENCODING 830
SWIDTH 0 0
DWIDTH 0 0
BBX 2 5 -1 12
BITMAP
40
80
C0
40
80
ENDCHAR
STARTCHAR uni033F
ENCODING 831
SWIDTH 0 0
DWIDTH 0 0
BBX 12 3 -6 16
BITMAP
FFF0
0000
FFF0
ENDCHAR
STARTCHAR uni0340
ENCODING 832
SWIDTH 0 0
DWIDTH 0 0
BBX 3 3 -3 12
BITMAP
C0
60
20
ENDCHAR
STARTCHAR uni0341
ENCODING 833
SWIDTH 0 0
DWIDTH 0 0
BBX 3 3 0 12
BITMAP
60
C0
80
ENDCHAR
STARTCHAR uni0342
ENCODING 834
SWIDTH 0 0
DWIDTH 0 0
BBX 7 3 -4 12
BITMAP
66
FE
DC
ENDCHAR
STARTCHAR uni0343
ENCODING 835
SWIDTH 0 0
DWIDTH 0 0
BBX 2 5 -1 10
BITMAP
C0
C0
40
40
80
ENDCHAR
STARTCHAR uni0344
ENCODING 836
SWIDTH 0 0
DWIDTH 0 0
BBX 8 3 -4 12
BITMAP
0C
DB
D3
ENDCHAR
STARTCHAR uni0345
ENCODING 837
SWIDTH 0 0
DWIDTH 0 0
BBX 2 3 -1 -4
BITMAP
C0
C0
C0
ENDCHAR
STARTCHAR uni0346
ENCODING 838
SWIDTH 0 0
DWIDTH 0 0
BBX 8 4 -4 12
BITMAP
FF
FF
C3
C3
ENDCHAR
STARTCHAR uni0347
ENCODING 839
SWIDTH 0 0
DWIDTH 0 0
BBX 10 3 -5 -5
BITMAP
FFC0
0000
FFC0
ENDCHAR
STARTCHAR uni0348
ENCODING 840
SWIDTH 0 0
DWIDTH 0 0
BBX 3 3 -1 -4
BITMAP
A0
A0
A0
ENDCHAR
STARTCHAR uni0349
ENCODING 841
SWIDTH 0 0
DWIDTH 0 0
BBX 3 3 -2 -4
BITMAP
E0
20
20
ENDCHAR
STARTCHAR uni034A
ENCODING 842
SWIDTH 0 0
DWIDTH 0 0
BBX 7 5 -3 11
BITMAP
08
7A
FE
BC
20
ENDCHAR
STARTCHAR uni034B
ENCODING 843
SWIDTH 0 0
DWIDTH 0 0
BBX 7 7 -3 12
BITMAP
30
30
72
FE
9C
30
30
ENDCHAR
STARTCHAR uni034C
ENCODING 844
SWIDTH 0 0
DWIDTH 0 0
BBX 7 6 -3 12
BITMAP
72
FE
9C
72
FE
9C
ENDCHAR
STARTCHAR uni034D
ENCODING 845
SWIDTH 0 0
DWIDTH 0 0
BBX 7 3 -3 -4
BITMAP
44
FE
44
ENDCHAR
STARTCHAR uni034E
ENCODING 846
SWIDTH 0 0
DWIDTH 0 0
BBX 3 4 -2 -5
BITMAP
40
E0
40
40
ENDCHAR
STARTCHAR uni034F
ENCODING 847
SWIDTH 0 0
DWIDTH 0 0
BBX 14 14 -7 0
BITMAP
E79C
8004
8A84
1020
2010
8004
A014
8004
A014
0000
1020
8A84
8004
E79C
ENDCHAR
STARTCHAR uni0350
ENCODING 848
SWIDTH 0 0
DWIDTH 0 0
BBX 3 4 -1 12
BITMAP
80
60
60
80
ENDCHAR
STARTCHAR uni0351
ENCODING 849
SWIDTH 0 0
DWIDTH 0 0
BBX 2 4 -1 12
BITMAP
40
80
80
40
ENDCHAR
STARTCHAR uni0352
ENCODING 850
SWIDTH 0 0
DWIDTH 0 0
BBX 6 5 -3 12
BITMAP
78
CC
84
30
30
ENDCHAR
STARTCHAR uni0353
ENCODING 851
SWIDTH 0 0
DWIDTH 0 0
BBX 5 5 -2 -5
BITMAP
50
F8
70
F8
50
ENDCHAR
STARTCHAR uni0354
ENCODING 852
SWIDTH 0 0
DWIDTH 0 0
BBX 3 4 -1 -4
BITMAP
20
C0
C0
20
ENDCHAR
STARTCHAR uni0355
ENCODING 853
SWIDTH 0 0
DWIDTH 0 0
BBX 3 4 -1 -4
BITMAP
80
60
60
80
ENDCHAR
STARTCHAR uni0356
ENCODING 854
SWIDTH 0 0
DWIDTH 0 0
BBX 7 4 -3 -4
BITMAP
80
6C
6C
92
ENDCHAR
STARTCHAR uni0357
ENCODING 855
SWIDTH 0 0
DWIDTH 0 0
BBX 2 4 -1 12
BITMAP
80
40
40
80
ENDCHAR
STARTCHAR uni0358
ENCODING 856
SWIDTH 0 0
DWIDTH 0 0
BBX 1 1 3 12
BITMAP
80
ENDCHAR
STARTCHAR uni0359
ENCODING 857
SWIDTH 0 0
DWIDTH 0 0
BBX 5 4 -2 -5
BITMAP
20
F8
20
50
ENDCHAR
STARTCHAR uni035A
ENCODING 858
SWIDTH 0 0
DWIDTH 0 0
BBX 7 4 -3 -5
BITMAP
6C
92
92
6C
ENDCHAR
STARTCHAR uni035B
ENCODING 859
SWIDTH 0 0
DWIDTH 0 0
BBX 4 5 -2 12
BITMAP
40
40
F0
20
20
ENDCHAR
STARTCHAR uni035C
ENCODING 860
SWIDTH 0 0
DWIDTH 0 0
BBX 16 4 -2 -5
BITMAP
8001
4002
300C
0FF0
ENDCHAR
STARTCHAR uni035D
ENCODING 861
SWIDTH 0 0
DWIDTH 0 0
BBX 16 4 -2 12
BITMAP
8001
4002
300C
0FF0
ENDCHAR
STARTCHAR uni035E
ENCODING 862
SWIDTH 0 0
DWIDTH 0 0
BBX 12 2 -2 13
BITMAP
FFF0
FFF0
ENDCHAR
STARTCHAR uni035F
ENCODING 863
SWIDTH 0 0
DWIDTH 0 0
BBX 12 2 -2 -4
BITMAP
FFF0
FFF0
ENDCHAR
STARTCHAR uni0360
ENCODING 864
SWIDTH 0 0
DWIDTH 0 0
BBX 16 3 -1 12
BITMAP
3E01
41C2
803C
ENDCHAR
STARTCHAR uni0361
ENCODING 865
SWIDTH 0 0
DWIDTH 0 0
BBX 16 4 -2 12
BITMAP
0FF0
300C
4002
8001
ENDCHAR
STARTCHAR uni0362
ENCODING 866
SWIDTH 0 0
DWIDTH 0 0
BBX 13 3 -2 -4
BITMAP
0010
FFF8
0010
ENDCHAR
STARTCHAR uni0363
ENCODING 867
SWIDTH 0 0
DWIDTH 0 0
BBX 6 7 -3 5
BITMAP
78
84
04
7C
84
8C
74
ENDCHAR
STARTCHAR uni0364
ENCODING 868
SWIDTH 0 0
DWIDTH 0 0
BBX 6 7 -3 5
BITMAP
78
84
84
FC
80
84
78
ENDCHAR
STARTCHAR uni0365
ENCODING 869
SWIDTH 0 0
DWIDTH 0 0
BBX 1 10 -1 5
BITMAP
80
00
00
80
80
80
80
80
80
80
ENDCHAR
STARTCHAR uni0366
ENCODING 870
SWIDTH 0 0
DWIDTH 0 0
BBX 6 7 -3 5
BITMAP
78
84
84
84
84
84
78
ENDCHAR
STARTCHAR uni0367
ENCODING 871
SWIDTH 0 0
DWIDTH 0 0
BBX 6 7 -3 5
BITMAP
84
84
84
84
84
8C
74
ENDCHAR
STARTCHAR uni0368
ENCODING 872
SWIDTH 0 0
DWIDTH 0 0
BBX 5 7 -3 5
BITMAP
70
88
80
80
80
88
70
ENDCHAR
STARTCHAR uni0369
ENCODING 873
SWIDTH 0 0
DWIDTH 0 0
BBX 6 10 -3 5
BITMAP
04
04
04
34
4C
84
84
84
4C
34
ENDCHAR
STARTCHAR uni036A
ENCODING 874
SWIDTH 0 0
DWIDTH 0 0
BBX 6 10 -3 5
BITMAP
80
80
80
B8
C4
84
84
84
84
84
ENDCHAR
STARTCHAR uni036B
ENCODING 875
SWIDTH 0 0
DWIDTH 0 0
BBX 11 7 -6 5
BITMAP
B9C0
C620
8420
8420
8420
8420
8420
ENDCHAR
STARTCHAR uni036C
ENCODING 876
SWIDTH 0 0
DWIDTH 0 0
BBX 4 7 -2 5
BITMAP
B0
C0
80
80
80
80
80
ENDCHAR
STARTCHAR uni036D
ENCODING 877
SWIDTH 0 0
DWIDTH 0 0
BBX 3 10 -2 5
BITMAP
40
40
40
E0
40
40
40
40
40
60
ENDCHAR
STARTCHAR uni036E
ENCODING 878
SWIDTH 0 0
DWIDTH 0 0
BBX 7 7 -3 5
BITMAP
82
44
44
44
28
28
10
ENDCHAR
STARTCHAR uni036F
ENCODING 879
SWIDTH 0 0
DWIDTH 0 0
BBX 7 7 -3 5
BITMAP
82
44
28
10
28
44
82
ENDCHAR
STARTCHAR uni0370
ENCODING 880
SWIDTH 577 0
DWIDTH 12 0
BBX 9 15 2 0
BITMAP
C000
C000
C000
C000
C000
C000
FF80
FF80
C000
C000
C000
C000
C000
C000
C000
ENDCHAR
STARTCHAR uni0371
ENCODING 881
SWIDTH 475 0
DWIDTH 10 0
BBX 9 11 0 0
BITMAP
E000
F000
3000
3000
3000
3F80
3F80
3000
3000
3000
3000
ENDCHAR
STARTCHAR uni0372
ENCODING 882
SWIDTH 610 0
DWIDTH 13 0
BBX 12 15 0 0
BITMAP
FFF0
FFF0
C630
C630
C630
C630
0600
0600
0600
0600
0600
0600
0600
0600
0600
ENDCHAR
STARTCHAR uni0373
ENCODING 883
SWIDTH 458 0
DWIDTH 10 0
BBX 10 15 0 0
BITMAP
7FC0
FFC0
CCC0
CCC0
CCC0
0C00
0C00
0C00
0C00
0C00
0C00
0C00
0C00
0C00
0C00
ENDCHAR
STARTCHAR uni0374
ENCODING 884
SWIDTH 333 0
DWIDTH 7 0
BBX 3 3 2 12
BITMAP
60
C0
80
ENDCHAR
STARTCHAR uni0375
ENCODING 885
SWIDTH 333 0
DWIDTH 7 0
BBX 3 3 2 -4
BITMAP
20
60
C0
ENDCHAR
STARTCHAR uni0376
ENCODING 886
SWIDTH 718 0
DWIDTH 15 0
BBX 11 15 2 0
BITMAP
C060
C0E0
C0E0
C1E0
C360
C360
C660
C460
CC60
D860
D860
F060
F060
E060
C060
ENDCHAR
STARTCHAR uni0377
ENCODING 887
SWIDTH 583 0
DWIDTH 12 0
BBX 11 11 1 0
BITMAP
C380
C380
C780
C780
CD80
C980
D980
F180
F180
E1E0
E0E0
ENDCHAR
STARTCHAR uni037A
ENCODING 890
SWIDTH 333 0
DWIDTH 7 0
BBX 2 3 3 -4
BITMAP
C0
C0
C0
ENDCHAR
STARTCHAR uni037B
ENCODING 891
SWIDTH 500 0
DWIDTH 11 0
BBX 9 11 1 0
BITMAP
3C00
7F00
E300
C180
0180
0180
0180
C180
E300
7F00
3E00
ENDCHAR
STARTCHAR uni037C
ENCODING 892
SWIDTH 500 0
DWIDTH 11 0
BBX 9 11 1 0
BITMAP
1E00
7F00
6380
C180
CC00
CC00
C000
C180
6380
7F00
3E00
ENDCHAR
STARTCHAR uni037D
ENCODING 893
SWIDTH 500 0
DWIDTH 11 0
BBX 9 11 1 0
BITMAP
3C00
7F00
E300
C180
1980
1980
0180
C180
E300
7F00
3E00
ENDCHAR
STARTCHAR semicolon.dup3
ENCODING 894
SWIDTH 277 0
DWIDTH 6 0
BBX 2 14 2 -3
BITMAP
C0
C0
00
00
00
00
00
00
00
C0
C0
40
40
80
ENDCHAR
STARTCHAR uni037F
ENCODING 895
SWIDTH 500 0
DWIDTH 11 0
BBX 8 15 1 0
BITMAP
03
03
03
03
03
03
03
03
03
03
C3
C3
E7
7E
3C
ENDCHAR
STARTCHAR tonos
ENCODING 900
SWIDTH 333 0
DWIDTH 7 0
BBX 3 3 2 12
BITMAP
60
C0
80
ENDCHAR
STARTCHAR dieresistonos
ENCODING 901
SWIDTH 333 0
DWIDTH 7 0
BBX 8 3 0 12
BITMAP
0C
DB
D3
ENDCHAR
STARTCHAR Alphatonos
ENCODING 902
SWIDTH 667 0
DWIDTH 13 0
BBX 13 15 0 0
BITMAP
3700
6700
CD80
0D80
0D80
18C0
18C0
18C0
3FE0
3FE0
6030
6030
6030
C018
C018
ENDCHAR
STARTCHAR anoteleia
ENCODING 903
SWIDTH 277 0
DWIDTH 6 0
BBX 2 2 2 9
BITMAP
C0
C0
ENDCHAR
STARTCHAR Epsilontonos
ENCODING 904
SWIDTH 784 0
DWIDTH 16 0
BBX 16 15 -1 0
BITMAP
37FF
67FF
C600
0600
0600
0600
07FE
07FE
0600
0600
0600
0600
0600
07FF
07FF
ENDCHAR
STARTCHAR Etatonos
ENCODING 905
SWIDTH 837 0
DWIDTH 17 0
BBX 17 15 -1 0
BITMAP
360180
660180
C60180
060180
060180
060180
07FF80
07FF80
060180
060180
060180
060180
060180
060180
060180
ENDCHAR
STARTCHAR Iotatonos
ENCODING 906
SWIDTH 383 0
DWIDTH 8 0
BBX 7 15 -1 0
BITMAP
36
66
C6
06
06
06
06
06
06
06
06
06
06
06
06
ENDCHAR
STARTCHAR Omicrontonos
ENCODING 908
SWIDTH 774 0
DWIDTH 16 0
BBX 16 15 -1 0
BITMAP
33F0
67F8
CE1C
1806
3807
3003
3003
3003
3003
3003
3807
1806
0E1C
07F8
03F0
ENDCHAR
STARTCHAR Upsilontonos
ENCODING 910
SWIDTH 855 0
DWIDTH 17 0
BBX 19 15 -2 0
BITMAP
3700E0
6300C0
C18180
01C380
00C300
006600
006600
003C00
001800
001800
001800
001800
001800
001800
001800
ENDCHAR
STARTCHAR Omegatonos
ENCODING 911
SWIDTH 752 0
DWIDTH 16 0
BBX 17 15 -2 0
BITMAP
31F800
67FE00
CF0F00
0C0300
1C0380
180180
180180
180180
180180
180180
0C0300
060600
070E00
1F9F80
1F9F80
ENDCHAR
STARTCHAR iotadieresistonos
ENCODING 912
SWIDTH 222 0
DWIDTH 4 0
BBX 8 16 -2 0
BITMAP
0C
DB
D3
00
00
18
18
18
18
18
18
18
18
18
18
18
ENDCHAR
STARTCHAR Alpha
ENCODING 913
SWIDTH 666 0
DWIDTH 13 0
BBX 13 15 0 0
BITMAP
0700
0700
0D80
0D80
0D80
18C0
18C0
18C0
3FE0
3FE0
6030
6030
6030
C018
C018
ENDCHAR
STARTCHAR Beta
ENCODING 914
SWIDTH 666 0
DWIDTH 14 0
BBX 11 15 2 0
BITMAP
FF00
FF80
C1C0
C0C0
C0C0
C1C0
FF80
FF80
C0C0
C060
C060
C060
C0E0
FFC0
FF80
ENDCHAR
STARTCHAR Gamma
ENCODING 915
SWIDTH 550 0
DWIDTH 12 0
BBX 10 15 2 0
BITMAP
FFC0
FFC0
C000
C000
C000
C000
C000
C000
C000
C000
C000
C000
C000
C000
C000
ENDCHAR
STARTCHAR uni0394
ENCODING 916
SWIDTH 667 0
DWIDTH 14 0
BBX 13 15 1 0
BITMAP
0700
0700
0F80
0D80
0D80
18C0
18C0
3060
3060
3060
6030
6030
C018
FFF8
FFF8
ENDCHAR
STARTCHAR Epsilon
ENCODING 917
SWIDTH 666 0
DWIDTH 14 0
BBX 11 15 2 0
BITMAP
FFE0
FFE0
C000
C000
C000
C000
FFC0
FFC0
C000
C000
C000
C000
C000
FFE0
FFE0
ENDCHAR
STARTCHAR Zeta
ENCODING 918
SWIDTH 610 0
DWIDTH 13 0
BBX 12 15 0 0
BITMAP
7FF0
7FF0
0060
00C0
0180
0180
0300
0600
0C00
1800
1800
3000
6000
FFF0
FFF0
ENDCHAR
STARTCHAR Eta
ENCODING 919
SWIDTH 722 0
DWIDTH 14 0
BBX 12 15 1 0
BITMAP
C030
C030
C030
C030
C030
C030
FFF0
FFF0
C030
C030
C030
C030
C030
C030
C030
ENDCHAR
STARTCHAR Theta
ENCODING 920
SWIDTH 777 0
DWIDTH 16 0
BBX 14 15 1 0
BITMAP
0FC0
1FE0
3870
6018
E01C
C00C
CFCC
CFCC
C00C
C00C
E01C
6018
3870
1FE0
0FC0
ENDCHAR
STARTCHAR Iota
ENCODING 921
SWIDTH 277 0
DWIDTH 6 0
BBX 2 15 2 0
BITMAP
C0
C0
C0
C0
C0
C0
C0
C0
C0
C0
C0
C0
C0
C0
C0
ENDCHAR
STARTCHAR Kappa
ENCODING 922
SWIDTH 666 0
DWIDTH 14 0
BBX 12 15 2 0
BITMAP
C0E0
C1C0
C380
C700
CE00
DC00
DC00
FC00
EE00
C700
C380
C180
C1C0
C0E0
C070
ENDCHAR
STARTCHAR Lambda
ENCODING 923
SWIDTH 667 0
DWIDTH 14 0
BBX 13 15 0 0
BITMAP
0700
0700
0D80
0D80
0D80
18C0
18C0
30E0
3060
3060
6030
6030
E038
C018
C018
ENDCHAR
STARTCHAR Mu
ENCODING 924
SWIDTH 833 0
DWIDTH 17 0
BBX 15 15 1 0
BITMAP
E00E
F01E
F01E
D016
D836
D836
C826
CC66
CC66
C446
C6C6
C6C6
C286
C386
C386
ENDCHAR
STARTCHAR Nu
ENCODING 925
SWIDTH 722 0
DWIDTH 14 0
BBX 12 15 1 0
BITMAP
C030
E030
F030
F030
D830
CC30
CC30
C630
C330
C330
C1B0
C0F0
C0F0
C070
C030
ENDCHAR
STARTCHAR Xi
ENCODING 926
SWIDTH 649 0
DWIDTH 14 0
BBX 12 15 1 0
BITMAP
FFF0
FFF0
0000
0000
0000
0000
7FE0
7FE0
0000
0000
0000
0000
0000
FFF0
FFF0
ENDCHAR
STARTCHAR Omicron
ENCODING 927
SWIDTH 777 0
DWIDTH 16 0
BBX 14 15 1 0
BITMAP
0FC0
1FE0
3870
6018
E01C
C00C
C00C
C00C
C00C
C00C
E01C
6018
3870
1FE0
0FC0
ENDCHAR
STARTCHAR Pi
ENCODING 928
SWIDTH 722 0
DWIDTH 14 0
BBX 12 15 1 0
BITMAP
FFF0
FFF0
C030
C030
C030
C030
C030
C030
C030
C030
C030
C030
C030
C030
C030
ENDCHAR
STARTCHAR Rho
ENCODING 929
SWIDTH 666 0
DWIDTH 14 0
BBX 11 15 2 0
BITMAP
FF80
FFC0
C0E0
C060
C060
C060
C0E0
FFC0
FF80
C000
C000
C000
C000
C000
C000
ENDCHAR
STARTCHAR Sigma
ENCODING 931
SWIDTH 618 0
DWIDTH 13 0
BBX 10 15 2 0
BITMAP
FFC0
FFC0
C000
6000
3000
1800
0C00
0C00
0C00
1800
3000
6000
C000
FFC0
FFC0
ENDCHAR
STARTCHAR Tau
ENCODING 932
SWIDTH 610 0
DWIDTH 12 0
BBX 12 15 0 0
BITMAP
FFF0
FFF0
0600
0600
0600
0600
0600
0600
0600
0600
0600
0600
0600
0600
0600
ENDCHAR
STARTCHAR Upsilon
ENCODING 933
SWIDTH 666 0
DWIDTH 14 0
BBX 14 15 0 0
BITMAP
E01C
6018
3030
3870
1CE0
0CC0
0780
0780
0300
0300
0300
0300
0300
0300
0300
ENDCHAR
STARTCHAR Phi
ENCODING 934
SWIDTH 797 0
DWIDTH 16 0
BBX 14 15 1 0
BITMAP
0300
0300
1FE0
3FF0
7338
E31C
C30C
C30C
C30C
E31C
7338
3FF0
1FE0
0300
0300
ENDCHAR
STARTCHAR Chi
ENCODING 935
SWIDTH 666 0
DWIDTH 14 0
BBX 14 15 0 0
BITMAP
7038
3870
1860
0CC0
0CC0
0780
0300
0780
0780
0DC0
1CE0
1860
3030
7038
E01C
ENDCHAR
STARTCHAR Psi
ENCODING 936
SWIDTH 835 0
DWIDTH 18 0
BBX 16 15 1 0
BITMAP
C183
C183
C183
C183
C183
C183
E187
718E
3FFC
0FF0
0180
0180
0180
0180
0180
ENDCHAR
STARTCHAR uni03A9
ENCODING 937
SWIDTH 747 0
DWIDTH 16 0
BBX 14 15 1 0
BITMAP
0FC0
3FF0
7878
6018
E01C
C00C
C00C
C00C
C00C
C00C
6018
3030
3870
FCFC
FCFC
ENDCHAR
STARTCHAR Iotadieresis
ENCODING 938
SWIDTH 277 0
DWIDTH 6 0
BBX 6 18 0 0
BITMAP
CC
CC
00
30
30
30
30
30
30
30
30
30
30
30
30
30
30
30
ENDCHAR
STARTCHAR Upsilondieresis
ENCODING 939
SWIDTH 666 0
DWIDTH 14 0
BBX 14 18 0 0
BITMAP
0CC0
0CC0
0000
E01C
6018
3030
3870
1CE0
0CC0
0780
0780
0300
0300
0300
0300
0300
0300
0300
ENDCHAR
STARTCHAR alphatonos
ENCODING 940
SWIDTH 578 0
DWIDTH 12 0
BBX 10 15 1 0
BITMAP
0300
0600
0400
0000
3CC0
7EC0
6380
C180
C180
C180
C180
C180
6380
7FC0
3CC0
ENDCHAR
STARTCHAR epsilontonos
ENCODING 941
SWIDTH 445 0
DWIDTH 9 0
BBX 8 15 1 0
BITMAP
18
10
10
00
3C
7F
C2
C0
78
78
C0
C0
C2
7F
3C
ENDCHAR
STARTCHAR etatonos
ENCODING 942
SWIDTH 556 0
DWIDTH 11 0
BBX 9 19 1 -4
BITMAP
0600
0C00
0800
0000
DE00
FF80
E380
C180
C180
C180
C180
C180
C180
C180
C180
0180
0180
0180
0180
ENDCHAR
STARTCHAR iotatonos
ENCODING 943
SWIDTH 222 0
DWIDTH 4 0
BBX 3 15 1 0
BITMAP
60
C0
80
00
C0
C0
C0
C0
C0
C0
C0
C0
C0
C0
C0
ENDCHAR
STARTCHAR upsilondieresistonos
ENCODING 944
SWIDTH 546 0
DWIDTH 10 0
BBX 9 15 1 0
BITMAP
0600
6580
6D80
0000
C300
C300
C300
C300
C300
C300
C300
C300
E700
7E00
3C00
ENDCHAR
STARTCHAR alpha
ENCODING 945
SWIDTH 578 0
DWIDTH 12 0
BBX 10 11 1 0
BITMAP
3CC0
7EC0
6380
C180
C180
C180
C180
C180
6380
7FC0
3CC0
ENDCHAR
STARTCHAR beta
ENCODING 946
SWIDTH 575 0
DWIDTH 12 0
BBX 10 19 1 -4
BITMAP
3E00
7F00
E380
C180
C180
C300
CE00
CF80
C1C0
C0C0
C0C0
C0C0
E1C0
FF80
CF00
C000
C000
C000
C000
ENDCHAR
STARTCHAR gamma
ENCODING 947
SWIDTH 500 0
DWIDTH 10 0
BBX 8 15 1 -4
BITMAP
C3
C3
C3
66
66
66
3C
3C
3C
18
18
18
18
18
18
ENDCHAR
STARTCHAR delta
ENCODING 948
SWIDTH 556 0
DWIDTH 12 0
BBX 10 15 1 0
BITMAP
7F80
7F80
3000
0C00
1F00
7F80
6180
C0C0
C0C0
C0C0
C0C0
C0C0
6180
7F80
1E00
ENDCHAR
STARTCHAR epsilon
ENCODING 949
SWIDTH 445 0
DWIDTH 9 0
BBX 8 11 1 0
BITMAP
3C
7F
C2
C0
78
78
C0
C0
C2
7F
3C
ENDCHAR
STARTCHAR zeta
ENCODING 950
SWIDTH 440 0
DWIDTH 9 0
BBX 8 19 1 -4
BITMAP
3F
3F
06
0C
18
30
60
60
C0
C0
C0
C0
E0
7E
3F
03
03
0E
0C
ENDCHAR
STARTCHAR eta
ENCODING 951
SWIDTH 556 0
DWIDTH 11 0
BBX 9 15 1 -4
BITMAP
DE00
FF80
E380
C180
C180
C180
C180
C180
C180
C180
C180
0180
0180
0180
0180
ENDCHAR
STARTCHAR theta
ENCODING 952
SWIDTH 556 0
DWIDTH 12 0
BBX 10 15 1 0
BITMAP
1E00
3F00
6180
6080
C0C0
C0C0
FFC0
FFC0
C0C0
C0C0
C0C0
6180
6180
3F00
1E00
ENDCHAR
STARTCHAR iota
ENCODING 953
SWIDTH 222 0
DWIDTH 4 0
BBX 2 11 1 0
BITMAP
C0
C0
C0
C0
C0
C0
C0
C0
C0
C0
C0
ENDCHAR
STARTCHAR kappa
ENCODING 954
SWIDTH 500 0
DWIDTH 10 0
BBX 9 11 1 0
BITMAP
C300
C600
CC00
D800
F000
F800
CC00
C600
C600
C300
C180
ENDCHAR
STARTCHAR lambda
ENCODING 955
SWIDTH 500 0
DWIDTH 11 0
BBX 9 15 1 0
BITMAP
3000
1000
1800
1800
0C00
1C00
1C00
3600
3600
3600
6300
6300
C180
C180
C180
ENDCHAR
STARTCHAR uni03BC
ENCODING 956
SWIDTH 576 0
DWIDTH 11 0
BBX 9 15 1 -4
BITMAP
C180
C180
C180
C180
C180
C180
C180
C180
E380
FF80
DD80
C000
C000
C000
C000
ENDCHAR
STARTCHAR nu
ENCODING 957
SWIDTH 500 0
DWIDTH 11 0
BBX 11 11 0 0
BITMAP
C060
C060
60C0
60C0
3180
3180
1B00
1B00
0E00
0E00
0400
ENDCHAR
STARTCHAR xi
ENCODING 958
SWIDTH 447 0
DWIDTH 9 0
BBX 8 19 1 -4
BITMAP
1E
3E
70
60
60
3E
0E
38
60
C0
C0
C0
E0
7E
3F
03
03
0E
0C
ENDCHAR
STARTCHAR omicron
ENCODING 959
SWIDTH 556 0
DWIDTH 12 0
BBX 10 11 1 0
BITMAP
1E00
7F80
6180
C0C0
C0C0
C0C0
C0C0
C0C0
6180
7F80
1E00
ENDCHAR
STARTCHAR pi
ENCODING 960
SWIDTH 689 0
DWIDTH 14 0
BBX 14 11 0 0
BITMAP
FFFC
FFFC
1860
1860
1860
1860
1860
1860
1860
1860
1860
ENDCHAR
STARTCHAR rho
ENCODING 961
SWIDTH 568 0
DWIDTH 12 0
BBX 10 15 1 -4
BITMAP
1E00
7F80
6180
C0C0
C0C0
C0C0
C0C0
C0C0
E180
FF80
DE00
C000
C000
C000
C000
ENDCHAR
STARTCHAR sigma1
ENCODING 962
SWIDTH 481 0
DWIDTH 10 0
BBX 8 15 1 -4
BITMAP
1F
3F
70
60
C0
C0
C0
C0
70
7C
1F
03
03
1F
1C
ENDCHAR
STARTCHAR sigma
ENCODING 963
SWIDTH 617 0
DWIDTH 13 0
BBX 12 11 1 0
BITMAP
1FF0
7FF0
6180
C0C0
C0C0
C0C0
C0C0
C0C0
6180
7F80
1E00
ENDCHAR
STARTCHAR tau
ENCODING 964
SWIDTH 395 0
DWIDTH 8 0
BBX 6 11 1 0
BITMAP
FC
FC
30
30
30
30
30
30
30
30
30
ENDCHAR
STARTCHAR upsilon
ENCODING 965
SWIDTH 546 0
DWIDTH 10 0
BBX 8 11 1 0
BITMAP
C3
C3
C3
C3
C3
C3
C3
C3
E7
7E
3C
ENDCHAR
STARTCHAR phi
ENCODING 966
SWIDTH 648 0
DWIDTH 14 0
BBX 12 15 1 -4
BITMAP
33C0
77E0
6660
C630
C630
C630
C630
6660
76E0
3FC0
0F00
0600
0600
0600
0600
ENDCHAR
STARTCHAR chi
ENCODING 967
SWIDTH 524 0
DWIDTH 11 0
BBX 9 15 1 -4
BITMAP
C180
C180
6300
6300
3600
3600
1C00
1C00
1C00
3600
3600
6300
6300
C180
C180
ENDCHAR
STARTCHAR psi
ENCODING 968
SWIDTH 712 0
DWIDTH 14 0
BBX 12 15 1 -4
BITMAP
C630
C630
C630
C630
C630
C630
C630
C630
E670
7FE0
3FC0
0600
0600
0600
0600
ENDCHAR
STARTCHAR omega
ENCODING 969
SWIDTH 780 0
DWIDTH 16 0
BBX 14 11 1 0
BITMAP
3030
6018
6018
C30C
C30C
C30C
C30C
C30C
E79C
7CF8
3870
ENDCHAR
STARTCHAR iotadieresis
ENCODING 970
SWIDTH 222 0
DWIDTH 4 0
BBX 6 14 -1 0
BITMAP
CC
CC
00
30
30
30
30
30
30
30
30
30
30
30
ENDCHAR
STARTCHAR upsilondieresis
ENCODING 971
SWIDTH 546 0
DWIDTH 10 0
BBX 8 14 1 0
BITMAP
66
66
00
C3
C3
C3
C3
C3
C3
C3
C3
E7
7E
3C
ENDCHAR
STARTCHAR omicrontonos
ENCODING 972
SWIDTH 556 0
DWIDTH 12 0
BBX 10 15 1 0
BITMAP
0600
0C00
0800
0000
1E00
7F80
6180
C0C0
C0C0
C0C0
C0C0
C0C0
6180
7F80
1E00
ENDCHAR
STARTCHAR upsilontonos
ENCODING 973
SWIDTH 546 0
DWIDTH 10 0
BBX 8 15 1 0
BITMAP
0C
08
18
00
C3
C3
C3
C3
C3
C3
C3
C3
E7
7E
3C
ENDCHAR
STARTCHAR omegatonos
ENCODING 974
SWIDTH 780 0
DWIDTH 16 0
BBX 14 15 1 0
BITMAP
0180
0300
0200
0000
3030
6018
6018
C30C
C30C
C30C
C30C
C30C
E79C
7CF8
3870
ENDCHAR
STARTCHAR uni03CF
ENCODING 975
SWIDTH 666 0
DWIDTH 14 0
BBX 11 19 2 -4
BITMAP
C060
C0C0
C180
C300
C600
CC00
DC00
F600
E600
C300
C180
C180
C0C0
C060
C060
00C0
0180
0300
0600
ENDCHAR
STARTCHAR uni03D0
ENCODING 976
SWIDTH 575 0
DWIDTH 12 0
BBX 10 15 1 0
BITMAP
1F00
3F80
6180
7F80
DF00
C000
DF00
FF80
E1C0
E0C0
E0C0
60C0
61C0
3F80
1F00
ENDCHAR
STARTCHAR theta1
ENCODING 977
SWIDTH 546 0
DWIDTH 11 0
BBX 10 15 1 0
BITMAP
1E00
3F00
3380
3180
3980
1FC0
0FC0
0180
E180
F180
3300
6300
6700
7E00
3C00
ENDCHAR
STARTCHAR Upsilon1
ENCODING 978
SWIDTH 772 0
DWIDTH 16 0
BBX 16 15 0 0
BITMAP
C00E
601F
3030
3830
1860
0CC0
0EC0
0780
0300
0300
0300
0300
0300
0300
0300
ENDCHAR
STARTCHAR uni03D3
ENCODING 979
SWIDTH 958 0
DWIDTH 20 0
BBX 20 15 0 0
BITMAP
4C00E0
C601F0
830300
038300
018600
00CC00
00EC00
007800
003000
003000
003000
003000
003000
003000
003000
ENDCHAR
STARTCHAR uni03D4
ENCODING 980
SWIDTH 772 0
DWIDTH 16 0
BBX 16 18 0 0
BITMAP
0660
0660
0000
C00E
601F
3030
3830
1860
0CC0
0EC0
0780
0300
0300
0300
0300
0300
0300
0300
ENDCHAR
STARTCHAR phi1
ENCODING 981
SWIDTH 560 0
DWIDTH 12 0
BBX 10 19 1 -4
BITMAP
0C00
0C00
0C00
0C00
3F00
7F80
6D80
CCC0
CCC0
CCC0
CCC0
CCC0
6D80
7F80
3F00
0C00
0C00
0C00
0C00
ENDCHAR
STARTCHAR omega1
ENCODING 982
SWIDTH 780 0
DWIDTH 16 0
BBX 14 11 1 0
BITMAP
FFFC
FFFC
6018
C30C
C30C
C30C
C30C
C30C
E79C
7FF8
3CF0
ENDCHAR
STARTCHAR uni03D7
ENCODING 983
SWIDTH 601 0
DWIDTH 13 0
BBX 12 15 0 -4
BITMAP
E070
F0E0
31C0
31C0
33C0
36C0
3CC0
38C0
30C0
70F0
E070
0030
0030
00F0
00E0
ENDCHAR
STARTCHAR uni03D8
ENCODING 984
SWIDTH 777 0
DWIDTH 16 0
BBX 14 19 1 -4
BITMAP
0FC0
1FE0
3870
6018
E01C
C00C
C00C
C00C
C00C
C00C
E01C
6018
3870
1FE0
0FC0
0300
0300
0300
0300
ENDCHAR
STARTCHAR uni03D9
ENCODING 985
SWIDTH 556 0
DWIDTH 12 0
BBX 10 15 1 -4
BITMAP
1E00
7F80
6180
C0C0
C0C0
C0C0
C0C0
C0C0
6180
7F80
1E00
0C00
0C00
0C00
0C00
ENDCHAR
STARTCHAR uni03DA
ENCODING 986
SWIDTH 722 0
DWIDTH 15 0
BBX 13 15 1 0
BITMAP
0F80
3FE0
7070
6038
C018
C000
C000
C000
E000
7000
3F00
0F00
0300
0300
0300
ENDCHAR
STARTCHAR uni03DB
ENCODING 987
SWIDTH 500 0
DWIDTH 11 0
BBX 10 15 1 -4
BITMAP
1F00
7F80
61C0
C0C0
C000
C000
C000
E000
7C00
3F00
0780
0180
4180
7F00
7E00
ENDCHAR
STARTCHAR uni03DC
ENCODING 988
SWIDTH 610 0
DWIDTH 13 0
BBX 11 15 1 0
BITMAP
FFE0
FFE0
C000
C000
C000
C000
FFC0
FFC0
C0C0
C0C0
C000
C000
C000
C000
C000
ENDCHAR
STARTCHAR uni03DD
ENCODING 989
SWIDTH 403 0
DWIDTH 8 0
BBX 6 15 1 -4
BITMAP
FC
FC
C0
C0
FC
FC
CC
CC
C0
C0
C0
C0
C0
C0
C0
ENDCHAR
STARTCHAR uni03DE
ENCODING 990
SWIDTH 624 0
DWIDTH 13 0
BBX 13 15 0 0
BITMAP
F000
F800
1800
1800
1820
18E0
33E0
3760
3E60
38C0
20C0
00C0
00C0
00F8
0078
ENDCHAR
STARTCHAR uni03DF
ENCODING 991
SWIDTH 529 0
DWIDTH 11 0
BBX 9 15 1 0
BITMAP
3000
3000
3000
6000
6000
6000
FF80
FF80
0300
0300
0300
0700
0600
0600
0600
ENDCHAR
STARTCHAR uni03E0
ENCODING 992
SWIDTH 756 0
DWIDTH 16 0
BBX 15 19 0 -4
BITMAP
0F00
3FC0
7CE0
EC70
CC38
0C18
0C3C
0C7C
00EE
00C6
00C6
00C6
00C6
00C6
00C6
000C
001C
03F8
01E0
ENDCHAR
STARTCHAR uni03E1
ENCODING 993
SWIDTH 576 0
DWIDTH 12 0
BBX 10 19 1 -4
BITMAP
6000
F800
1C00
0E00
0600
0700
1F80
3180
0180
03C0
0EC0
0CC0
00C0
00C0
00C0
00C0
00C0
00C0
0100
ENDCHAR
STARTCHAR uni03E2
ENCODING 994
SWIDTH 890 0
DWIDTH 19 0
BBX 16 19 1 -4
BITMAP
C183
C183
C183
C183
C183
C183
C183
C183
C183
C183
C183
C183
E3C7
7EFF
3C7B
0003
0007
FFFE
FFFC
ENDCHAR
STARTCHAR uni03E3
ENCODING 995
SWIDTH 833 0
DWIDTH 18 0
BBX 16 15 1 -4
BITMAP
C183
C183
C183
C183
C183
C183
C183
C183
E3C7
7EFF
3C73
0003
0007
FFFE
FFFC
ENDCHAR
STARTCHAR uni03E4
ENCODING 996
SWIDTH 674 0
DWIDTH 14 0
BBX 12 15 1 0
BITMAP
1F30
7F30
6030
C030
C030
C030
C030
6070
7FF0
1F30
0030
0030
0030
0030
0030
ENDCHAR
STARTCHAR uni03E5
ENCODING 997
SWIDTH 556 0
DWIDTH 12 0
BBX 10 15 1 0
BITMAP
78C0
F8C0
C0C0
C0C0
C0C0
C0C0
C0C0
C0C0
E1C0
7FC0
3EC0
00C0
00C0
00C0
00C0
ENDCHAR
STARTCHAR uni03E6
ENCODING 998
SWIDTH 673 0
DWIDTH 14 0
BBX 12 19 1 -4
BITMAP
C000
C000
C000
C000
C000
DF80
FFC0
E0E0
C070
C030
C030
C030
C030
C030
C030
0060
00E0
FFC0
FF00
ENDCHAR
STARTCHAR uni03E7
ENCODING 999
SWIDTH 500 0
DWIDTH 11 0
BBX 10 11 0 0
BITMAP
1EC0
3F80
6380
67C0
7EC0
3CC0
00C0
00C0
7180
FF80
CF00
ENDCHAR
STARTCHAR uni03E8
ENCODING 1000
SWIDTH 666 0
DWIDTH 14 0
BBX 12 15 1 0
BITMAP
1F80
7FC0
60E0
C060
C060
01E0
1FC0
7F00
7030
C030
C030
C030
E0E0
7FE0
1F80
ENDCHAR
STARTCHAR uni03E9
ENCODING 1001
SWIDTH 666 0
DWIDTH 14 0
BBX 11 15 1 0
BITMAP
1F80
7FC0
60E0
C060
C060
01E0
1FC0
7F00
7000
C000
C000
C000
E060
7FE0
1FC0
ENDCHAR
STARTCHAR uni03EA
ENCODING 1002
SWIDTH 609 0
DWIDTH 13 0
BBX 13 15 0 0
BITMAP
78F0
FDF8
4D90
0D80
0700
0700
0700
0700
0D80
0D80
18C0
18C0
18C0
3FE0
3FE0
ENDCHAR
STARTCHAR uni03EB
ENCODING 1003
SWIDTH 596 0
DWIDTH 13 0
BBX 13 11 0 0
BITMAP
38E0
7DF0
CD98
8710
0700
0700
0700
0D80
0D80
0F80
0F80
ENDCHAR
STARTCHAR uni03EC
ENCODING 1004
SWIDTH 736 0
DWIDTH 15 0
BBX 13 15 1 0
BITMAP
0FF0
3FF0
3000
6F80
FFE0
F070
E038
C018
C018
C018
C018
6038
7070
3FE0
0F80
ENDCHAR
STARTCHAR uni03ED
ENCODING 1005
SWIDTH 553 0
DWIDTH 12 0
BBX 10 11 1 0
BITMAP
0F80
3F80
6000
DF00
DF80
C1C0
C0C0
C0C0
61C0
7F80
3F00
ENDCHAR
STARTCHAR uni03EE
ENCODING 1006
SWIDTH 463 0
DWIDTH 10 0
BBX 10 15 0 0
BITMAP
0C00
0C00
0C00
7F80
FFC0
CCC0
CCC0
0C00
0C00
0C00
0C00
0C00
0C00
0C00
0C00
ENDCHAR
STARTCHAR uni03EF
ENCODING 1007
SWIDTH 409 0
DWIDTH 9 0
BBX 9 15 0 0
BITMAP
0C00
0E00
0C00
0C00
FF80
FF80
CC00
8C00
0C00
0C00
0C00
0C00
0C00
1C00
0C00
ENDCHAR
STARTCHAR uni03F0
ENCODING 1008
SWIDTH 601 0
DWIDTH 13 0
BBX 12 11 0 0
BITMAP
E070
F0E0
31C0
31C0
33C0
36C0
3CC0
38C0
30C0
70F0
E070
ENDCHAR
STARTCHAR uni03F1
ENCODING 1009
SWIDTH 572 0
DWIDTH 12 0
BBX 10 15 1 -4
BITMAP
1E00
7F80
6180
C0C0
C0C0
C0C0
C0C0
C0C0
E180
FF80
CE00
6000
7F80
1FC0
00C0
ENDCHAR
STARTCHAR uni03F2
ENCODING 1010
SWIDTH 500 0
DWIDTH 11 0
BBX 9 11 1 0
BITMAP
1E00
7F00
6380
C180
C000
C000
C000
C180
6380
7F00
3E00
ENDCHAR
STARTCHAR uni03F3
ENCODING 1011
SWIDTH 222 0
DWIDTH 4 0
BBX 4 19 -1 -4
BITMAP
30
30
00
00
30
30
30
30
30
30
30
30
30
30
30
30
30
F0
E0
ENDCHAR
STARTCHAR uni03F4
ENCODING 1012
SWIDTH 777 0
DWIDTH 16 0
BBX 14 15 1 0
BITMAP
0FC0
1FE0
3870
6018
C00C
C00C
FFFC
FFFC
C00C
C00C
601C
6018
3870
1FE0
0FC0
ENDCHAR
STARTCHAR uni03F5
ENCODING 1013
SWIDTH 441 0
DWIDTH 9 0
BBX 7 11 1 0
BITMAP
3E
7E
E0
C0
F8
F8
C0
C0
E0
7E
3E
ENDCHAR
STARTCHAR uni03F6
ENCODING 1014
SWIDTH 441 0
DWIDTH 9 0
BBX 7 11 1 0
BITMAP
F8
FC
0E
06
3E
3E
06
06
0E
FC
F8
ENDCHAR
STARTCHAR uni03F7
ENCODING 1015
SWIDTH 666 0
DWIDTH 14 0
BBX 11 15 2 0
BITMAP
C000
C000
C000
FF80
FFC0
C0E0
C060
C060
C060
C0E0
FFC0
FF80
C000
C000
C000
ENDCHAR
STARTCHAR uni03F8
ENCODING 1016
SWIDTH 556 0
DWIDTH 12 0
BBX 10 19 1 -4
BITMAP
C000
C000
C000
C000
DE00
FF80
E180
C0C0
C0C0
C0C0
C0C0
C0C0
E180
FF80
DE00
C000
C000
C000
C000
ENDCHAR
STARTCHAR uni03F9
ENCODING 1017
SWIDTH 722 0
DWIDTH 15 0
BBX 13 15 1 0
BITMAP
0FC0
3FE0
3870
6038
E018
C000
C000
C000
C000
C000
E018
6030
7870
3FE0
0FC0
ENDCHAR
STARTCHAR uni03FA
ENCODING 1018
SWIDTH 833 0
DWIDTH 18 0
BBX 14 15 2 0
BITMAP
E01C
F03C
F83C
D86C
CCCC
CF8C
C78C
C30C
C00C
C00C
C00C
C00C
C00C
C00C
C00C
ENDCHAR
STARTCHAR uni03FB
ENCODING 1019
SWIDTH 687 0
DWIDTH 14 0
BBX 12 15 1 -4
BITMAP
F070
F0F0
F0F0
D0F0
D9B0
D9B0
D9B0
CF30
CF30
CF30
C630
C000
C000
C000
C000
ENDCHAR
STARTCHAR uni03FC
ENCODING 1020
SWIDTH 568 0
DWIDTH 12 0
BBX 11 15 0 -4
BITMAP
0F00
3FC0
30C0
6060
6060
6060
6060
6060
70C0
7FC0
6F00
6000
FC00
FC00
6000
ENDCHAR
STARTCHAR uni03FD
ENCODING 1021
SWIDTH 722 0
DWIDTH 15 0
BBX 13 15 1 0
BITMAP
1F80
3FE0
70F0
E030
C038
0018
0018
0018
0018
0018
4038
E030
7070
3FE0
1F80
ENDCHAR
STARTCHAR uni03FE
ENCODING 1022
SWIDTH 722 0
DWIDTH 15 0
BBX 13 15 1 0
BITMAP
0FC0
3FE0
7870
6038
E010
C000
C300
C300
C000
C000
E018
6038
7870
3FE0
0FC0
ENDCHAR
STARTCHAR uni03FF
ENCODING 1023
SWIDTH 722 0
DWIDTH 15 0
BBX 13 15 1 0
BITMAP
1F80
3FE0
70F0
E030
C038
0018
0618
0618
0018
0018
4038
E030
7070
3FE0
1F80
ENDCHAR
STARTCHAR uni0400
ENCODING 1024
SWIDTH 666 0
DWIDTH 14 0
BBX 11 19 2 0
BITMAP
0C00
0400
0200
0000
FFE0
FFE0
C000
C000
C000
C000
FFC0
FFC0
C000
C000
C000
C000
C000
FFE0
FFE0
ENDCHAR
STARTCHAR uni0401
ENCODING 1025
SWIDTH 667 0
DWIDTH 14 0
BBX 11 18 2 0
BITMAP
1980
1980
0000
FFE0
FFE0
C000
C000
C000
C000
FFC0
FFC0
C000
C000
C000
C000
C000
FFE0
FFE0
ENDCHAR
STARTCHAR uni0402
ENCODING 1026
SWIDTH 864 0
DWIDTH 18 0
BBX 16 15 1 0
BITMAP
FFF0
FFF0
0600
0600
0600
0678
07FE
0706
0603
0603
0603
0603
0606
067E
063C
ENDCHAR
STARTCHAR uni0403
ENCODING 1027
SWIDTH 541 0
DWIDTH 11 0
BBX 9 19 2 0
BITMAP
0600
0C00
0800
0000
FF80
FF80
C000
C000
C000
C000
C000
C000
C000
C000
C000
C000
C000
C000
C000
ENDCHAR
STARTCHAR uni0404
ENCODING 1028
SWIDTH 718 0
DWIDTH 15 0
BBX 13 15 1 0
BITMAP
0FC0
1FE0
3070
6038
C010
C000
FF00
FF00
C000
C000
E018
6038
7070
3FE0
0FC0
ENDCHAR
STARTCHAR uni0405
ENCODING 1029
SWIDTH 666 0
DWIDTH 14 0
BBX 12 15 1 0
BITMAP
0F80
3FE0
7070
6030
6000
7000
3F00
0FC0
00E0
0030
C030
E030
7070
3FE0
1F80
ENDCHAR
STARTCHAR uni0406
ENCODING 1030
SWIDTH 277 0
DWIDTH 6 0
BBX 2 15 2 0
BITMAP
C0
C0
C0
C0
C0
C0
C0
C0
C0
C0
C0
C0
C0
C0
C0
ENDCHAR
STARTCHAR uni0407
ENCODING 1031
SWIDTH 277 0
DWIDTH 6 0
BBX 6 18 0 0
BITMAP
CC
CC
00
30
30
30
30
30
30
30
30
30
30
30
30
30
30
30
ENDCHAR
STARTCHAR uni0408
ENCODING 1032
SWIDTH 500 0
DWIDTH 11 0
BBX 8 15 1 0
BITMAP
03
03
03
03
03
03
03
03
03
03
C3
C3
E7
7E
3C
ENDCHAR
STARTCHAR uni0409
ENCODING 1033
SWIDTH 1057 0
DWIDTH 22 0
BBX 21 15 0 0
BITMAP
1FF000
1FF000
183000
183000
183000
183000
183FE0
183FF0
183038
183018
183018
183018
183038
F03FF0
703FE0
ENDCHAR
STARTCHAR uni040A
ENCODING 1034
SWIDTH 1010 0
DWIDTH 21 0
BBX 18 15 2 0
BITMAP
C18000
C18000
C18000
C18000
C18000
C18000
FFFF00
FFFF80
C181C0
C180C0
C180C0
C180C0
C181C0
C1FF80
C1FF00
ENDCHAR
STARTCHAR uni040B
ENCODING 1035
SWIDTH 854 0
DWIDTH 18 0
BBX 16 15 0 0
BITMAP
FFF0
FFF0
0600
0600
0600
067C
07FE
0707
0603
0603
0603
0603
0603
0603
0603
ENDCHAR
STARTCHAR uni040C
ENCODING 1036
SWIDTH 582 0
DWIDTH 12 0
BBX 10 19 2 0
BITMAP
0C00
0800
1000
0000
C1C0
C3C0
C300
C600
C600
CC00
CC00
F000
CC00
C600
C600
C300
C180
C180
C0C0
ENDCHAR
STARTCHAR uni040D
ENCODING 1037
SWIDTH 718 0
DWIDTH 15 0
BBX 11 19 2 0
BITMAP
1800
0800
0C00
0000
C060
C0E0
C0E0
C1E0
C360
C360
C660
C460
CC60
D860
D860
F060
F060
E060
C060
ENDCHAR
STARTCHAR uni040E
ENCODING 1038
SWIDTH 635 0
DWIDTH 13 0
BBX 11 19 1 0
BITMAP
1080
1100
0F00
0000
C060
C060
60C0
60C0
3080
3180
1900
1B00
0F00
0E00
0600
0C00
0C00
7800
7000
ENDCHAR
STARTCHAR uni040F
ENCODING 1039
SWIDTH 718 0
DWIDTH 15 0
BBX 11 19 2 -4
BITMAP
C060
C060
C060
C060
C060
C060
C060
C060
C060
C060
C060
C060
C060
FFE0
FFE0
0600
0600
0600
0600
ENDCHAR
STARTCHAR uni0410
ENCODING 1040
SWIDTH 666 0
DWIDTH 13 0
BBX 13 15 0 0
BITMAP
0700
0700
0D80
0D80
0D80
18C0
18C0
18C0
3FE0
3FE0
6030
6030
6030
C018
C018
ENDCHAR
STARTCHAR uni0411
ENCODING 1041
SWIDTH 656 0
DWIDTH 14 0
BBX 11 15 2 0
BITMAP
FF80
FF80
C000
C000
C000
C000
FF80
FFC0
C0E0
C060
C060
C060
C0E0
FFC0
FF80
ENDCHAR
STARTCHAR uni0412
ENCODING 1042
SWIDTH 666 0
DWIDTH 14 0
BBX 11 15 2 0
BITMAP
FF00
FF80
C1C0
C0C0
C0C0
C1C0
FF80
FF80
C0C0
C060
C060
C060
C0E0
FFC0
FF80
ENDCHAR
STARTCHAR uni0413
ENCODING 1043
SWIDTH 541 0
DWIDTH 11 0
BBX 9 15 2 0
BITMAP
FF80
FF80
C000
C000
C000
C000
C000
C000
C000
C000
C000
C000
C000
C000
C000
ENDCHAR
STARTCHAR uni0414
ENCODING 1044
SWIDTH 677 0
DWIDTH 14 0
BBX 13 19 0 -4
BITMAP
1FF0
1FF0
1830
1830
1830
1830
1830
1830
1030
3030
3030
3030
6030
FFF8
FFF8
C018
C018
C018
C018
ENDCHAR
STARTCHAR uni0415
ENCODING 1045
SWIDTH 666 0
DWIDTH 14 0
BBX 11 15 2 0
BITMAP
FFE0
FFE0
C000
C000
C000
C000
FFC0
FFC0
C000
C000
C000
C000
C000
FFE0
FFE0
ENDCHAR
STARTCHAR uni0416
ENCODING 1046
SWIDTH 923 0
DWIDTH 19 0
BBX 20 15 0 0
BITMAP
E06070
F060F0
3861C0
186180
0C6300
0C6300
066600
03FC00
066600
0C6300
186180
3060C0
3060C0
606060
C06030
ENDCHAR
STARTCHAR uni0417
ENCODING 1047
SWIDTH 604 0
DWIDTH 13 0
BBX 11 15 1 0
BITMAP
1F00
7F80
61C0
C0C0
C0C0
01C0
0F80
0F80
00C0
0060
0060
C060
60C0
7FC0
1F00
ENDCHAR
STARTCHAR uni0418
ENCODING 1048
SWIDTH 718 0
DWIDTH 15 0
BBX 11 15 2 0
BITMAP
C060
C0E0
C0E0
C1E0
C360
C360
C660
C460
CC60
D860
D860
F060
F060
E060
C060
ENDCHAR
STARTCHAR uni0419
ENCODING 1049
SWIDTH 718 0
DWIDTH 15 0
BBX 11 19 2 0
BITMAP
1080
1980
0F00
0000
C060
C0E0
C0E0
C1E0
C360
C360
C660
C460
CC60
D860
D860
F060
F060
E060
C060
ENDCHAR
STARTCHAR uni041A
ENCODING 1050
SWIDTH 582 0
DWIDTH 12 0
BBX 10 15 2 0
BITMAP
C1C0
C3C0
C300
C600
C600
CC00
CC00
F000
CC00
C600
C600
C300
C180
C180
C0C0
ENDCHAR
STARTCHAR uni041B
ENCODING 1051
SWIDTH 656 0
DWIDTH 14 0
BBX 12 15 0 0
BITMAP
1FF0
1FF0
1830
1830
1830
1830
1830
1830
1830
1830
1830
1830
1830
F030
7030
ENDCHAR
STARTCHAR uni041C
ENCODING 1052
SWIDTH 833 0
DWIDTH 17 0
BBX 15 15 1 0
BITMAP
E00E
F01E
F01E
D016
D836
D836
C826
CC66
CC66
C446
C6C6
C6C6
C286
C386
C386
ENDCHAR
STARTCHAR uni041D
ENCODING 1053
SWIDTH 722 0
DWIDTH 14 0
BBX 12 15 1 0
BITMAP
C030
C030
C030
C030
C030
C030
FFF0
FFF0
C030
C030
C030
C030
C030
C030
C030
ENDCHAR
STARTCHAR uni041E
ENCODING 1054
SWIDTH 777 0
DWIDTH 16 0
BBX 14 15 1 0
BITMAP
0FC0
1FE0
3870
6018
E01C
C00C
C00C
C00C
C00C
C00C
E01C
6018
3870
1FE0
0FC0
ENDCHAR
STARTCHAR uni041F
ENCODING 1055
SWIDTH 718 0
DWIDTH 14 0
BBX 12 15 1 0
BITMAP
FFF0
FFF0
C030
C030
C030
C030
C030
C030
C030
C030
C030
C030
C030
C030
C030
ENDCHAR
STARTCHAR uni0420
ENCODING 1056
SWIDTH 666 0
DWIDTH 14 0
BBX 11 15 2 0
BITMAP
FF80
FFC0
C0E0
C060
C060
C060
C0E0
FFC0
FF80
C000
C000
C000
C000
C000
C000
ENDCHAR
STARTCHAR uni0421
ENCODING 1057
SWIDTH 722 0
DWIDTH 15 0
BBX 13 15 1 0
BITMAP
0FC0
3FE0
3870
6038
E018
C000
C000
C000
C000
C000
E018
6030
7870
3FE0
0FC0
ENDCHAR
STARTCHAR uni0422
ENCODING 1058
SWIDTH 610 0
DWIDTH 12 0
BBX 12 15 0 0
BITMAP
FFF0
FFF0
0600
0600
0600
0600
0600
0600
0600
0600
0600
0600
0600
0600
0600
ENDCHAR
STARTCHAR uni0423
ENCODING 1059
SWIDTH 635 0
DWIDTH 13 0
BBX 11 15 1 0
BITMAP
C060
C060
60C0
60C0
3080
3180
1900
1B00
0F00
0E00
0600
0C00
0C00
7800
7000
ENDCHAR
STARTCHAR uni0424
ENCODING 1060
SWIDTH 760 0
DWIDTH 16 0
BBX 14 15 1 0
BITMAP
0300
0300
0FC0
3FF0
7338
E31C
C30C
C30C
C30C
E31C
7338
3FF0
1FE0
0300
0300
ENDCHAR
STARTCHAR uni0425
ENCODING 1061
SWIDTH 666 0
DWIDTH 14 0
BBX 14 15 0 0
BITMAP
7038
3870
1860
0CC0
0CC0
0780
0300
0780
0780
0DC0
1CE0
1860
3030
7038
E01C
ENDCHAR
STARTCHAR uni0426
ENCODING 1062
SWIDTH 739 0
DWIDTH 16 0
BBX 13 19 2 -4
BITMAP
C060
C060
C060
C060
C060
C060
C060
C060
C060
C060
C060
C060
C060
FFF8
FFF8
0018
0018
0018
0018
ENDCHAR
STARTCHAR uni0427
ENCODING 1063
SWIDTH 666 0
DWIDTH 14 0
BBX 11 15 1 0
BITMAP
C060
C060
C060
C060
C060
C060
C060
E0E0
7FE0
3E60
0060
0060
0060
0060
0060
ENDCHAR
STARTCHAR uni0428
ENCODING 1064
SWIDTH 916 0
DWIDTH 18 0
BBX 16 15 1 0
BITMAP
C183
C183
C183
C183
C183
C183
C183
C183
C183
C183
C183
C183
C183
FFFF
FFFF
ENDCHAR
STARTCHAR uni0429
ENCODING 1065
SWIDTH 937 0
DWIDTH 20 0
BBX 18 19 2 -4
BITMAP
C18300
C18300
C18300
C18300
C18300
C18300
C18300
C18300
C18300
C18300
C18300
C18300
C18300
FFFFC0
FFFFC0
0000C0
0000C0
0000C0
0000C0
ENDCHAR
STARTCHAR uni042A
ENCODING 1066
SWIDTH 791 0
DWIDTH 17 0
BBX 16 15 0 0
BITMAP
FC00
FC00
0C00
0C00
0C00
0C00
0FF8
0FFE
0C07
0C03
0C03
0C03
0C07
0FFE
0FF8
ENDCHAR
STARTCHAR uni042B
ENCODING 1067
SWIDTH 885 0
DWIDTH 19 0
BBX 15 15 2 0
BITMAP
C006
C006
C006
C006
C006
C006
FF86
FFC6
C0E6
C066
C066
C066
C0E6
FFC6
FF86
ENDCHAR
STARTCHAR uni042C
ENCODING 1068
SWIDTH 656 0
DWIDTH 14 0
BBX 11 15 2 0
BITMAP
C000
C000
C000
C000
C000
C000
FF80
FFC0
C0E0
C060
C060
C060
C0E0
FFC0
FF80
ENDCHAR
STARTCHAR uni042D
ENCODING 1069
SWIDTH 718 0
DWIDTH 15 0
BBX 13 15 1 0
BITMAP
1F80
3FC0
7060
E030
4018
0018
07F8
07F8
0018
0018
C038
E030
7070
3FE0
1F80
ENDCHAR
STARTCHAR uni042E
ENCODING 1070
SWIDTH 1010 0
DWIDTH 21 0
BBX 18 15 2 0
BITMAP
C07C00
C1FF00
C38380
C30180
C701C0
C600C0
FE00C0
FE00C0
C600C0
C600C0
C301C0
C30180
C18380
C1FF00
C07C00
ENDCHAR
STARTCHAR uni042F
ENCODING 1071
SWIDTH 722 0
DWIDTH 15 0
BBX 12 15 1 0
BITMAP
1FF0
3FF0
7030
6030
6030
7030
3FF0
1FF0
0C30
1C30
1830
3830
7030
6030
E030
ENDCHAR
STARTCHAR uni0430
ENCODING 1072
SWIDTH 556 0
DWIDTH 12 0
BBX 10 11 1 0
BITMAP
3F00
FF80
C180
0180
0F80
7F80
F180
C180
C380
FF80
7CC0
ENDCHAR
STARTCHAR uni0431
ENCODING 1073
SWIDTH 572 0
DWIDTH 12 0
BBX 10 15 1 0
BITMAP
1FC0
7F80
6000
C000
DE00
FF80
E180
C0C0
C0C0
C0C0
C0C0
C0C0
6180
3F80
1E00
ENDCHAR
STARTCHAR uni0432
ENCODING 1074
SWIDTH 531 0
DWIDTH 11 0
BBX 9 11 1 0
BITMAP
FF00
FF80
C180
C180
FF00
FF00
C180
C180
C180
FF00
FE00
ENDCHAR
STARTCHAR uni0433
ENCODING 1075
SWIDTH 364 0
DWIDTH 8 0
BBX 7 11 1 0
BITMAP
FE
FE
C0
C0
C0
C0
C0
C0
C0
C0
C0
ENDCHAR
STARTCHAR uni0434
ENCODING 1076
SWIDTH 583 0
DWIDTH 12 0
BBX 11 14 0 -3
BITMAP
1FC0
1FC0
18C0
18C0
18C0
18C0
30C0
30C0
60C0
FFE0
FFE0
C060
C060
C060
ENDCHAR
STARTCHAR uni0435
ENCODING 1077
SWIDTH 556 0
DWIDTH 12 0
BBX 10 11 1 0
BITMAP
1E00
7F80
6180
C0C0
FFC0
FFC0
C000
C000
61C0
7F80
1F00
ENDCHAR
STARTCHAR uni0436
ENCODING 1078
SWIDTH 668 0
DWIDTH 14 0
BBX 14 11 0 0
BITMAP
E31C
E31C
3330
3330
1B60
0FC0
1B60
3330
7338
6318
C30C
ENDCHAR
STARTCHAR uni0437
ENCODING 1079
SWIDTH 458 0
DWIDTH 10 0
BBX 8 11 1 0
BITMAP
3C
7F
C3
03
1E
1E
03
C3
E3
7E
3C
ENDCHAR
STARTCHAR uni0438
ENCODING 1080
SWIDTH 558 0
DWIDTH 11 0
BBX 9 11 1 0
BITMAP
C380
C380
C780
C780
CD80
C980
D980
F180
F180
E180
E180
ENDCHAR
STARTCHAR uni0439
ENCODING 1081
SWIDTH 558 0
DWIDTH 11 0
BBX 9 15 1 0
BITMAP
2200
2200
1C00
0000
C380
C380
C780
C780
CD80
C980
D980
F180
F180
E180
E180
ENDCHAR
STARTCHAR uni043A
ENCODING 1082
SWIDTH 437 0
DWIDTH 9 0
BBX 8 11 1 0
BITMAP
C3
C7
CC
CC
D8
F0
D8
CC
CE
C6
C3
ENDCHAR
STARTCHAR uni043B
ENCODING 1083
SWIDTH 583 0
DWIDTH 11 0
BBX 10 11 0 0
BITMAP
3FC0
3FC0
30C0
30C0
30C0
30C0
30C0
30C0
30C0
F0C0
E0C0
ENDCHAR
STARTCHAR uni043C
ENCODING 1084
SWIDTH 687 0
DWIDTH 13 0
BBX 11 11 1 0
BITMAP
E0E0
E0E0
F1E0
F1E0
D160
D360
DB60
DB60
DA60
CE60
CE60
ENDCHAR
STARTCHAR uni043D
ENCODING 1085
SWIDTH 552 0
DWIDTH 11 0
BBX 9 11 1 0
BITMAP
C180
C180
C180
C180
FF80
FF80
C180
C180
C180
C180
C180
ENDCHAR
STARTCHAR uni043E
ENCODING 1086
SWIDTH 556 0
DWIDTH 12 0
BBX 10 11 1 0
BITMAP
1E00
7F80
6180
C0C0
C0C0
C0C0
C0C0
C0C0
6180
7F80
1E00
ENDCHAR
STARTCHAR uni043F
ENCODING 1087
SWIDTH 541 0
DWIDTH 10 0
BBX 8 11 1 0
BITMAP
FF
FF
C3
C3
C3
C3
C3
C3
C3
C3
C3
ENDCHAR
STARTCHAR uni0440
ENCODING 1088
SWIDTH 556 0
DWIDTH 11 0
BBX 9 15 1 -4
BITMAP
DE00
FF00
E300
C180
C180
C180
C180
C180
E300
FF00
DE00
C000
C000
C000
C000
ENDCHAR
STARTCHAR uni0441
ENCODING 1089
SWIDTH 500 0
DWIDTH 11 0
BBX 9 11 1 0
BITMAP
1E00
7F00
6380
C180
C000
C000
C000
C180
6380
7F00
3E00
ENDCHAR
STARTCHAR uni0442
ENCODING 1090
SWIDTH 458 0
DWIDTH 10 0
BBX 10 11 0 0
BITMAP
FFC0
FFC0
0C00
0C00
0C00
0C00
0C00
0C00
0C00
0C00
0C00
ENDCHAR
STARTCHAR uni0443
ENCODING 1091
SWIDTH 500 0
DWIDTH 11 0
BBX 9 15 1 -4
BITMAP
C180
C180
6300
6300
7300
3300
3600
1E00
1E00
0C00
0C00
0C00
1800
F800
F000
ENDCHAR
STARTCHAR uni0444
ENCODING 1092
SWIDTH 822 0
DWIDTH 17 0
BBX 15 19 1 -4
BITMAP
0180
0180
0180
0180
3DB8
7FFC
63CC
C186
C186
C186
C186
C186
63CC
7FFC
3DB8
0180
0180
0180
0180
ENDCHAR
STARTCHAR uni0445
ENCODING 1093
SWIDTH 500 0
DWIDTH 10 0
BBX 10 11 0 0
BITMAP
E1C0
6180
3300
3300
1E00
0C00
1E00
3300
3300
6180
E1C0
ENDCHAR
STARTCHAR uni0446
ENCODING 1094
SWIDTH 572 0
DWIDTH 12 0
BBX 10 15 1 -4
BITMAP
C180
C180
C180
C180
C180
C180
C180
C180
C180
FFC0
FFC0
00C0
00C0
00C0
00C0
ENDCHAR
STARTCHAR uni0447
ENCODING 1095
SWIDTH 520 0
DWIDTH 11 0
BBX 9 11 1 0
BITMAP
C180
C180
C180
C180
C180
E180
7F80
3F80
0180
0180
0180
ENDCHAR
STARTCHAR uni0448
ENCODING 1096
SWIDTH 802 0
DWIDTH 16 0
BBX 14 11 1 0
BITMAP
C30C
C30C
C30C
C30C
C30C
C30C
C30C
C30C
C30C
FFFC
FFFC
ENDCHAR
STARTCHAR uni0449
ENCODING 1097
SWIDTH 822 0
DWIDTH 16 0
BBX 15 15 1 -4
BITMAP
C30C
C30C
C30C
C30C
C30C
C30C
C30C
C30C
C30C
FFFE
FFFE
0006
0006
0006
0006
ENDCHAR
STARTCHAR uni044A
ENCODING 1098
SWIDTH 625 0
DWIDTH 13 0
BBX 11 11 1 0
BITMAP
F800
F800
1800
1800
1F80
1FC0
1860
1860
1860
1FC0
1F80
ENDCHAR
STARTCHAR uni044B
ENCODING 1099
SWIDTH 718 0
DWIDTH 15 0
BBX 13 11 1 0
BITMAP
C018
C018
C018
C018
FE18
FF18
C198
C198
C198
FF18
FE18
ENDCHAR
STARTCHAR uni044C
ENCODING 1100
SWIDTH 520 0
DWIDTH 11 0
BBX 9 11 1 0
BITMAP
C000
C000
C000
C000
FE00
FF00
C180
C180
C180
FF00
FE00
ENDCHAR
STARTCHAR uni044D
ENCODING 1101
SWIDTH 510 0
DWIDTH 11 0
BBX 9 11 1 0
BITMAP
3C00
7F00
E300
C180
0F80
0F80
0180
C180
E300
7F00
3E00
ENDCHAR
STARTCHAR uni044E
ENCODING 1102
SWIDTH 750 0
DWIDTH 16 0
BBX 14 11 1 0
BITMAP
C1E0
C7F8
C618
CC0C
FC0C
FC0C
CC0C
CC0C
C618
C7F8
C1E0
ENDCHAR
STARTCHAR uni044F
ENCODING 1103
SWIDTH 541 0
DWIDTH 11 0
BBX 9 11 1 0
BITMAP
3F80
FF80
C180
C180
C180
7F80
1F80
3180
6180
E180
C180
ENDCHAR
STARTCHAR uni0450
ENCODING 1104
SWIDTH 556 0
DWIDTH 12 0
BBX 10 15 1 0
BITMAP
0800
0C00
0400
0000
1E00
7F80
6180
C0C0
FFC0
FFC0
C000
C000
61C0
7F80
1F00
ENDCHAR
STARTCHAR uni0451
ENCODING 1105
SWIDTH 556 0
DWIDTH 12 0
BBX 10 14 1 0
BITMAP
3300
3300
0000
1E00
7F80
6180
C0C0
FFC0
FFC0
C000
C000
61C0
7F80
1F00
ENDCHAR
STARTCHAR uni0452
ENCODING 1106
SWIDTH 556 0
DWIDTH 12 0
BBX 10 19 0 -4
BITMAP
6000
FE00
FE00
6000
6F00
7F80
71C0
60C0
60C0
60C0
60C0
60C0
60C0
60C0
60C0
00C0
00C0
03C0
0380
ENDCHAR
STARTCHAR uni0453
ENCODING 1107
SWIDTH 364 0
DWIDTH 8 0
BBX 7 15 1 0
BITMAP
18
10
30
00
FE
FE
C0
C0
C0
C0
C0
C0
C0
C0
C0
ENDCHAR
STARTCHAR uni0454
ENCODING 1108
SWIDTH 510 0
DWIDTH 11 0
BBX 9 11 1 0
BITMAP
1E00
7F00
6380
C180
F800
F800
C000
C180
6380
7F00
3E00
ENDCHAR
STARTCHAR uni0455
ENCODING 1109
SWIDTH 500 0
DWIDTH 11 0
BBX 9 11 1 0
BITMAP
3E00
7F00
C180
C000
F800
7F00
0780
0180
C180
7F00
3E00
ENDCHAR
STARTCHAR uni0456
ENCODING 1110
SWIDTH 222 0
DWIDTH 5 0
BBX 2 15 1 0
BITMAP
C0
C0
00
00
C0
C0
C0
C0
C0
C0
C0
C0
C0
C0
C0
ENDCHAR
STARTCHAR uni0457
ENCODING 1111
SWIDTH 277 0
DWIDTH 6 0
BBX 6 14 0 0
BITMAP
CC
CC
00
30
30
30
30
30
30
30
30
30
30
30
ENDCHAR
STARTCHAR uni0458
ENCODING 1112
SWIDTH 222 0
DWIDTH 4 0
BBX 4 19 -1 -4
BITMAP
30
30
00
00
30
30
30
30
30
30
30
30
30
30
30
30
30
F0
E0
ENDCHAR
STARTCHAR uni0459
ENCODING 1113
SWIDTH 906 0
DWIDTH 19 0
BBX 18 11 0 0
BITMAP
3FE000
3FE000
306000
306000
307F00
307F80
3060C0
3060C0
3060C0
F07F80
E07F00
ENDCHAR
STARTCHAR uni045A
ENCODING 1114
SWIDTH 812 0
DWIDTH 17 0
BBX 15 11 1 0
BITMAP
C300
C300
C300
C300
FFF8
FFFC
C306
C306
C306
C3FC
C3F8
ENDCHAR
STARTCHAR uni045B
ENCODING 1115
SWIDTH 556 0
DWIDTH 12 0
BBX 10 15 0 0
BITMAP
6000
FE00
FE00
6000
6F00
7F80
71C0
60C0
60C0
60C0
60C0
60C0
60C0
60C0
60C0
ENDCHAR
STARTCHAR uni045C
ENCODING 1116
SWIDTH 437 0
DWIDTH 9 0
BBX 8 15 1 0
BITMAP
18
10
30
00
C3
C7
CC
CC
D8
F0
D8
CC
CE
C6
C3
ENDCHAR
STARTCHAR uni045D
ENCODING 1117
SWIDTH 558 0
DWIDTH 11 0
BBX 9 15 1 0
BITMAP
6000
3000
1000
0000
C380
C380
C780
C780
CD80
C980
D980
F180
F180
E180
E180
ENDCHAR
STARTCHAR uni045E
ENCODING 1118
SWIDTH 500 0
DWIDTH 11 0
BBX 9 19 1 -4
BITMAP
2100
3300
1E00
0000
C180
C180
6300
6300
7300
3300
3600
1E00
1E00
0C00
0C00
0C00
1800
F800
F000
ENDCHAR
STARTCHAR uni045F
ENCODING 1119
SWIDTH 552 0
DWIDTH 11 0
BBX 9 15 1 -4
BITMAP
C180
C180
C180
C180
C180
C180
C180
C180
C180
FF80
FF80
0C00
0C00
0C00
0C00
ENDCHAR
STARTCHAR uni0460
ENCODING 1120
SWIDTH 1337 0
DWIDTH 28 0
BBX 26 15 1 0
BITMAP
0FC0FC00
1FF3FE00
38210700
60000180
E00001C0
C00000C0
C00000C0
C00C00C0
C00C00C0
C00C00C0
E00C01C0
600C0180
383F0700
1FFFFE00
07E1F800
ENDCHAR
STARTCHAR uni0461
ENCODING 1121
SWIDTH 624 0
DWIDTH 13 0
BBX 13 11 0 0
BITMAP
C618
C618
C630
C630
4230
6720
6760
2D60
3DE0
3DC0
18C0
ENDCHAR
STARTCHAR uni0462
ENCODING 1122
SWIDTH 777 0
DWIDTH 16 0
BBX 15 15 0 0
BITMAP
0C00
0C00
FFC0
FFC0
0C00
0C00
0FF8
0FFC
0C0E
0C06
0C06
0C06
0C0E
0FFC
0FF8
ENDCHAR
STARTCHAR uni0463
ENCODING 1123
SWIDTH 612 0
DWIDTH 13 0
BBX 12 15 0 0
BITMAP
1800
1800
1800
1800
FF00
FF00
1800
1800
1FC0
1FE0
1830
1830
1830
1FE0
1FC0
ENDCHAR
STARTCHAR uni0464
ENCODING 1124
SWIDTH 949 0
DWIDTH 20 0
BBX 18 15 1 0
BITMAP
C07E00
C1FF00
C38380
C301C0
C60080
C60000
FFF800
FFF800
C60000
C60000
C70080
C301C0
C38380
C1FF00
C07E00
ENDCHAR
STARTCHAR uni0465
ENCODING 1125
SWIDTH 713 0
DWIDTH 15 0
BBX 13 11 1 0
BITMAP
C3E0
C7F0
CE38
CC18
FF80
FF80
CC00
CC18
C638
C7F0
C3E0
ENDCHAR
STARTCHAR uni0466
ENCODING 1126
SWIDTH 667 0
DWIDTH 14 0
BBX 14 15 0 0
BITMAP
0380
0380
06C0
06C0
0CC0
0C60
0C60
1FE0
1FF0
3330
3330
7318
6318
6318
C30C
ENDCHAR
STARTCHAR uni0467
ENCODING 1127
SWIDTH 500 0
DWIDTH 11 0
BBX 11 11 0 0
BITMAP
0E00
0E00
1B00
1B00
1B00
3180
3F80
66C0
66C0
66C0
C660
ENDCHAR
STARTCHAR uni0468
ENCODING 1128
SWIDTH 897 0
DWIDTH 19 0
BBX 17 15 2 0
BITMAP
C0E000
C0E000
C1B000
C1B000
C31800
C31800
C31800
FFFC00
FFFC00
CC6600
CC6600
D86300
D86300
D86300
F06180
ENDCHAR
STARTCHAR uni0469
ENCODING 1129
SWIDTH 695 0
DWIDTH 15 0
BBX 14 11 1 0
BITMAP
C1C0
C1C0
C360
C360
C360
FFF0
FFF0
CCD8
CCD8
CCD8
D8CC
ENDCHAR
STARTCHAR uni046A
ENCODING 1130
SWIDTH 828 0
DWIDTH 17 0
BBX 15 15 1 0
BITMAP
3FFC
3FFC
1818
0C30
0C30
0660
03C0
0FF0
3FF8
719C
E18E
C186
C186
C186
C186
ENDCHAR
STARTCHAR uni046B
ENCODING 1131
SWIDTH 685 0
DWIDTH 14 0
BBX 12 11 1 0
BITMAP
7FE0
3FC0
30C0
1980
0F00
3FC0
7FE0
E670
C630
C630
C630
ENDCHAR
STARTCHAR uni046C
ENCODING 1132
SWIDTH 1053 0
DWIDTH 22 0
BBX 19 15 2 0
BITMAP
C3FFC0
C1FFC0
C18180
C0C300
C06300
C06600
C03C00
FFFF00
FFFF80
C399C0
C718E0
C61860
C61860
C61860
C61860
ENDCHAR
STARTCHAR uni046D
ENCODING 1133
SWIDTH 867 0
DWIDTH 18 0
BBX 16 11 1 0
BITMAP
C7FE
C3FC
C30C
C198
C0F0
FFFC
FFFE
C667
CC63
CC63
CC63
ENDCHAR
STARTCHAR uni046E
ENCODING 1134
SWIDTH 604 0
DWIDTH 13 0
BBX 11 22 1 -4
BITMAP
11C0
0900
0A00
1F00
7F80
61C0
C0C0
C0C0
01C0
0F80
0F80
00C0
0060
0060
0060
00E0
3FC0
FF00
C000
C380
FFC0
7CC0
ENDCHAR
STARTCHAR uni046F
ENCODING 1135
SWIDTH 458 0
DWIDTH 10 0
BBX 10 18 0 -4
BITMAP
11C0
0900
0A00
1F00
3F00
7180
6180
0180
0F00
0F00
0180
0180
3F80
FE00
C000
C700
FF80
7980
ENDCHAR
STARTCHAR uni0470
ENCODING 1136
SWIDTH 796 0
DWIDTH 17 0
BBX 15 15 1 0
BITMAP
C186
6186
6186
6186
3186
3186
318E
199C
1FF8
07F0
0180
0180
0180
0180
0180
ENDCHAR
STARTCHAR uni0471
ENCODING 1137
SWIDTH 688 0
DWIDTH 14 0
BBX 12 15 1 -4
BITMAP
C630
C630
6630
6630
6630
6630
3630
3630
3670
3FE0
1F80
0600
0600
0600
0600
ENDCHAR
STARTCHAR uni0472
ENCODING 1138
SWIDTH 777 0
DWIDTH 16 0
BBX 14 15 1 0
BITMAP
0FC0
1FE0
3070
6018
C01C
FC0C
FF0C
C3FC
C0FC
C00C
601C
6018
3870
1FE0
0FC0
ENDCHAR
STARTCHAR uni0473
ENCODING 1139
SWIDTH 556 0
DWIDTH 12 0
BBX 10 11 1 0
BITMAP
1E00
7F80
6180
C0C0
F8C0
FFC0
C7C0
C0C0
6180
7F80
1E00
ENDCHAR
STARTCHAR uni0474
ENCODING 1140
SWIDTH 803 0
DWIDTH 17 0
BBX 17 15 0 0
BITMAP
C00700
C00F80
601800
601800
303000
303000
102000
186000
186000
0CC000
0CC000
048000
078000
030000
030000
ENDCHAR
STARTCHAR uni0475
ENCODING 1141
SWIDTH 630 0
DWIDTH 13 0
BBX 13 11 0 0
BITMAP
C070
60F8
60C0
6180
3180
3180
1B00
1B00
1A00
0E00
0E00
ENDCHAR
STARTCHAR uni0476
ENCODING 1142
SWIDTH 803 0
DWIDTH 17 0
BBX 17 19 0 0
BITMAP
090000
0D8000
048000
000000
C00700
C00F80
601800
601800
303000
303000
102000
186000
186000
0CC000
0CC000
048000
078000
030000
030000
ENDCHAR
STARTCHAR uni0477
ENCODING 1143
SWIDTH 630 0
DWIDTH 13 0
BBX 13 15 0 0
BITMAP
3600
3600
1200
0000
C070
60F8
60C0
6180
3180
3180
1B00
1B00
1A00
0E00
0E00
ENDCHAR
STARTCHAR uni0478
ENCODING 1144
SWIDTH 1074 0
DWIDTH 23 0
BBX 22 19 1 -4
BITMAP
1F0000
3F8000
71C000
60C000
C06C0C
C06C18
C06618
C06618
C06630
C06330
C06360
60C360
71C1C0
3F81C0
1F01C0
000180
000180
000F00
000E00
ENDCHAR
STARTCHAR uni0479
ENCODING 1145
SWIDTH 896 0
DWIDTH 19 0
BBX 19 15 1 -4
BITMAP
3CC060
7E60C0
6660C0
C360C0
C33180
C33180
C33B00
C31B00
661E00
7E0E00
3C0E00
000C00
000C00
007800
007000
ENDCHAR
STARTCHAR uni047A
ENCODING 1146
SWIDTH 833 0
DWIDTH 18 0
BBX 17 17 0 -1
BITMAP
01C000
07F000
1FFC00
39CE00
700700
600300
C00180
C00180
C00180
C00180
C00180
600300
700700
39CE00
1FFC00
07F000
01C000
ENDCHAR
STARTCHAR uni047B
ENCODING 1147
SWIDTH 612 0
DWIDTH 13 0
BBX 11 13 1 -1
BITMAP
0E00
1F00
7FC0
6EC0
C060
C060
C060
C060
C060
6EC0
7FC0
1F00
0E00
ENDCHAR
STARTCHAR uni047C
ENCODING 1148
SWIDTH 1190 0
DWIDTH 25 0
BBX 23 20 1 0
BITMAP
007800
008700
0131C0
001000
002000
0FC7E0
1FEFF0
380038
60000C
E0000E
C00006
C00006
C00006
C00006
C00006
E0000E
60000C
707838
3FFFF0
0FCFE0
ENDCHAR
STARTCHAR uni047D
ENCODING 1149
SWIDTH 851 0
DWIDTH 18 0
BBX 16 17 1 0
BITMAP
03C0
0438
098E
0080
0100
0000
1818
781E
6006
C003
C003
C003
C003
C003
6106
7FFE
3EF8
ENDCHAR
STARTCHAR uni047E
ENCODING 1150
SWIDTH 1337 0
DWIDTH 28 0
BBX 26 18 1 0
BITMAP
007FC000
00248000
00000000
0FC0FC00
1FF3FE00
38210700
60000180
E00001C0
C00000C0
C00000C0
C00C00C0
C00C00C0
C00C00C0
E00C01C0
600C0180
383F0700
1FFFFE00
07E1F800
ENDCHAR
STARTCHAR uni047F
ENCODING 1151
SWIDTH 624 0
DWIDTH 13 0
BBX 13 14 0 0
BITMAP
1FE0
1220
0000
C618
C618
C630
C630
4230
6720
6760
2D60
3DE0
3DC0
18C0
ENDCHAR
STARTCHAR uni0480
ENCODING 1152
SWIDTH 722 0
DWIDTH 15 0
BBX 13 19 1 -4
BITMAP
0FC0
3FE0
7870
6038
E018
C000
C000
C000
C000
C000
E000
6000
7800
3F00
0F00
0300
0300
0300
0300
ENDCHAR
STARTCHAR uni0481
ENCODING 1153
SWIDTH 500 0
DWIDTH 11 0
BBX 9 15 1 -4
BITMAP
1E00
7F00
6380
C180
C000
C000
C000
C000
6000
7C00
3C00
0C00
0C00
0C00
0C00
ENDCHAR
STARTCHAR uni0482
ENCODING 1154
SWIDTH 503 0
DWIDTH 11 0
BBX 11 15 0 0
BITMAP
0180
0180
0300
3300
7F00
0FE0
06E0
E600
FC00
1FC0
0F80
1800
1800
1800
3000
ENDCHAR
STARTCHAR uni0483
ENCODING 1155
SWIDTH 0 0
DWIDTH 0 0
BBX 7 3 -4 12
BITMAP
06
FE
C0
ENDCHAR
STARTCHAR uni0484
ENCODING 1156
SWIDTH 0 0
DWIDTH 0 0
BBX 7 3 -3 12
BITMAP
1C
F2
E2
ENDCHAR
STARTCHAR uni0485
ENCODING 1157
SWIDTH 0 0
DWIDTH 0 0
BBX 2 4 -1 11
BITMAP
C0
C0
80
40
ENDCHAR
STARTCHAR uni0486
ENCODING 1158
SWIDTH 0 0
DWIDTH 0 0
BBX 2 4 -1 11
BITMAP
C0
C0
40
80
ENDCHAR
STARTCHAR uni0487
ENCODING 1159
SWIDTH 0 0
DWIDTH 0 0
BBX 11 3 -5 14
BITMAP
3C00
4380
80E0
ENDCHAR
STARTCHAR uni0488
ENCODING 1160
SWIDTH 0 0
DWIDTH 0 0
BBX 18 21 -9 -4
BITMAP
00C000
012000
012000
300300
480480
480480
000000
000000
000000
600180
900240
900240
000000
000000
000000
300300
480480
480480
00C000
012000
012000
ENDCHAR
STARTCHAR uni0489
ENCODING 1161
SWIDTH 0 0
DWIDTH 0 0
BBX 22 21 -11 -4
BITMAP
001000
002000
003000
103070
1000C0
180080
0C0000
000000
000000
000038
B00034
700000
000000
000000
000040
0800E0
0C0020
383020
003000
001000
002000
ENDCHAR
STARTCHAR uni048A
ENCODING 1162
SWIDTH 718 0
DWIDTH 15 0
BBX 14 23 1 -4
BITMAP
1080
1980
0F00
0000
C030
C070
C0F0
C0F0
C1B0
C330
C330
C630
CC30
CC30
D830
F030
F030
E03C
C03C
0018
0018
0018
0030
ENDCHAR
STARTCHAR uni048B
ENCODING 1163
SWIDTH 558 0
DWIDTH 12 0
BBX 11 18 1 -3
BITMAP
4200
6600
3C00
0000
C380
C380
C780
C780
CD80
C980
D980
F180
F180
E1E0
E1C0
0040
00C0
0080
ENDCHAR
STARTCHAR uni048C
ENCODING 1164
SWIDTH 656 0
DWIDTH 14 0
BBX 13 15 0 0
BITMAP
3000
3000
3000
FC00
3000
3000
3FE0
3FF0
3038
3018
3018
3018
3038
3FF0
3FE0
ENDCHAR
STARTCHAR uni048D
ENCODING 1165
SWIDTH 520 0
DWIDTH 11 0
BBX 10 15 0 0
BITMAP
6000
6000
F800
6000
6000
6000
6000
6000
7F00
7F80
60C0
60C0
60C0
7F80
7F00
ENDCHAR
STARTCHAR uni048E
ENCODING 1166
SWIDTH 666 0
DWIDTH 14 0
BBX 12 15 1 0
BITMAP
FFC0
FFE0
C070
C030
C030
C0B0
C0F0
FFE0
FFB0
C000
C000
C000
C000
C000
C000
ENDCHAR
STARTCHAR uni048F
ENCODING 1167
SWIDTH 556 0
DWIDTH 12 0
BBX 9 15 2 -4
BITMAP
DE00
FF00
E300
C180
C180
C180
C180
C580
E300
FF00
DC80
C000
C000
C000
C000
ENDCHAR
STARTCHAR uni0490
ENCODING 1168
SWIDTH 488 0
DWIDTH 10 0
BBX 7 19 2 0
BITMAP
06
06
06
06
FE
FE
C0
C0
C0
C0
C0
C0
C0
C0
C0
C0
C0
C0
C0
ENDCHAR
STARTCHAR uni0491
ENCODING 1169
SWIDTH 411 0
DWIDTH 9 0
BBX 7 15 1 0
BITMAP
06
06
06
06
FE
FE
C0
C0
C0
C0
C0
C0
C0
C0
C0
ENDCHAR
STARTCHAR uni0492
ENCODING 1170
SWIDTH 541 0
DWIDTH 11 0
BBX 11 15 0 0
BITMAP
3FE0
3FE0
3000
3000
3000
3000
FF00
FF00
3000
3000
3000
3000
3000
3000
3000
ENDCHAR
STARTCHAR uni0493
ENCODING 1171
SWIDTH 364 0
DWIDTH 8 0
BBX 8 11 0 0
BITMAP
7F
7F
60
60
FC
FC
60
60
60
60
60
ENDCHAR
STARTCHAR uni0494
ENCODING 1172
SWIDTH 670 0
DWIDTH 14 0
BBX 12 19 1 -4
BITMAP
FFC0
FFC0
C000
C000
C000
DF80
FFC0
E0E0
C070
C030
C030
C030
C030
C030
C070
0060
E0E0
7FC0
1F00
ENDCHAR
STARTCHAR uni0495
ENCODING 1173
SWIDTH 548 0
DWIDTH 12 0
BBX 10 15 1 -4
BITMAP
FE00
FE00
C000
C000
C000
FE00
FF80
C180
C0C0
C0C0
C0C0
00C0
C180
7F80
3E00
ENDCHAR
STARTCHAR uni0496
ENCODING 1174
SWIDTH 923 0
DWIDTH 19 0
BBX 20 19 0 -4
BITMAP
E06070
F060F0
3861C0
186180
0C6300
0E6700
07FE00
07FE00
0E6700
1C6180
186180
3060C0
706060
606070
C06030
000030
000030
000030
000030
ENDCHAR
STARTCHAR uni0497
ENCODING 1175
SWIDTH 668 0
DWIDTH 14 0
BBX 14 14 0 -3
BITMAP
E31C
E31C
3330
3330
1FE0
1FE0
1B70
3330
7318
631C
C30C
000C
000C
000C
ENDCHAR
STARTCHAR uni0498
ENCODING 1176
SWIDTH 604 0
DWIDTH 13 0
BBX 11 19 1 -4
BITMAP
1F00
7F80
61C0
C0C0
C0C0
0180
0F00
0FC0
00E0
0060
0060
4060
E0C0
7FC0
1F00
0200
0200
0200
1C00
ENDCHAR
STARTCHAR uni0499
ENCODING 1177
SWIDTH 458 0
DWIDTH 10 0
BBX 8 15 1 -4
BITMAP
3C
7F
C3
03
1E
1E
03
C3
E3
7E
3C
08
08
08
70
ENDCHAR
STARTCHAR uni049A
ENCODING 1178
SWIDTH 582 0
DWIDTH 12 0
BBX 10 19 2 -4
BITMAP
C1C0
C3C0
C300
C600
C600
CC00
FC00
F800
CC00
C600
C300
C300
C180
C1C0
C0C0
00C0
00C0
00C0
00C0
ENDCHAR
STARTCHAR uni049B
ENCODING 1179
SWIDTH 437 0
DWIDTH 9 0
BBX 8 14 1 -3
BITMAP
C7
C7
CC
CC
F8
F8
CC
CC
C6
C3
C3
03
03
03
ENDCHAR
STARTCHAR uni049C
ENCODING 1180
SWIDTH 582 0
DWIDTH 12 0
BBX 10 15 2 0
BITMAP
C1C0
C3C0
D700
D600
DC00
DC00
F800
F800
D800
DC00
D600
D600
D300
C180
C0C0
ENDCHAR
STARTCHAR uni049D
ENCODING 1181
SWIDTH 437 0
DWIDTH 9 0
BBX 8 11 1 0
BITMAP
C7
D7
DC
DC
F8
F8
DC
DC
D6
C6
C3
ENDCHAR
STARTCHAR uni049E
ENCODING 1182
SWIDTH 582 0
DWIDTH 12 0
BBX 12 15 0 0
BITMAP
3070
30F0
30C0
FD80
3180
3300
3300
3E00
3300
3180
3180
30C0
3060
3060
3030
ENDCHAR
STARTCHAR uni049F
ENCODING 1183
SWIDTH 437 0
DWIDTH 9 0
BBX 9 15 0 0
BITMAP
6000
FE00
6000
6000
6180
6380
6600
6600
6C00
7800
6C00
6600
6700
6300
6180
ENDCHAR
STARTCHAR uni04A0
ENCODING 1184
SWIDTH 741 0
DWIDTH 16 0
BBX 16 15 0 0
BITMAP
FE07
FE0F
061C
0618
0630
0630
0660
07C0
0670
0630
0618
060C
060C
0606
0603
ENDCHAR
STARTCHAR uni04A1
ENCODING 1185
SWIDTH 535 0
DWIDTH 11 0
BBX 11 11 0 0
BITMAP
F860
F8E0
1980
1980
1B00
1E00
1B00
1980
19C0
18C0
1860
ENDCHAR
STARTCHAR uni04A2
ENCODING 1186
SWIDTH 722 0
DWIDTH 15 0
BBX 12 19 2 -4
BITMAP
C060
C060
C060
C060
C060
C060
FFE0
FFE0
C060
C060
C060
C060
C060
C070
C070
0030
0030
0030
0030
ENDCHAR
STARTCHAR uni04A3
ENCODING 1187
SWIDTH 552 0
DWIDTH 12 0
BBX 11 14 1 -3
BITMAP
C0C0
C0C0
C0C0
C0C0
FFC0
FFC0
C0C0
C0C0
C0C0
C0E0
C0E0
0060
0060
0060
ENDCHAR
STARTCHAR uni04A4
ENCODING 1188
SWIDTH 879 0
DWIDTH 18 0
BBX 17 15 1 0
BITMAP
C03F80
C03F80
C03000
C03000
C03000
C03000
FFF000
FFF000
C03000
C03000
C03000
C03000
C03000
C03000
C03000
ENDCHAR
STARTCHAR uni04A5
ENCODING 1189
SWIDTH 647 0
DWIDTH 14 0
BBX 13 11 1 0
BITMAP
C1F8
C1F8
C180
C180
FF80
FF80
C180
C180
C180
C180
C180
ENDCHAR
STARTCHAR uni04A6
ENCODING 1190
SWIDTH 1136 0
DWIDTH 24 0
BBX 22 19 1 -4
BITMAP
FFF000
FFF000
C03000
C03000
C03000
C037E0
C03FF0
C03838
C0301C
C0300C
C0300C
C0300C
C0300C
C0300C
C0301C
000018
003838
001FF0
0007C0
ENDCHAR
STARTCHAR uni04A7
ENCODING 1191
SWIDTH 870 0
DWIDTH 18 0
BBX 16 15 1 -4
BITMAP
FF80
FF80
C180
C180
C180
C1FC
C1FE
C187
C183
C183
C183
0003
0186
00FE
0078
ENDCHAR
STARTCHAR uni04A8
ENCODING 1192
SWIDTH 752 0
DWIDTH 16 0
BBX 15 15 1 0
BITMAP
1F00
3F00
70E0
61F0
E3B8
C318
C318
C318
C318
C318
E318
61B0
71F0
3FFE
0FBE
ENDCHAR
STARTCHAR uni04A9
ENCODING 1193
SWIDTH 520 0
DWIDTH 11 0
BBX 11 11 0 0
BITMAP
3C00
7C00
6780
C780
CCC0
CCC0
CCC0
CCC0
6780
7FE0
1FE0
ENDCHAR
STARTCHAR uni04AA
ENCODING 1194
SWIDTH 722 0
DWIDTH 15 0
BBX 13 19 1 -4
BITMAP
0FC0
3FE0
7870
6038
E010
C000
C000
C000
C000
C000
E018
6038
7870
3FE0
0F80
0100
0100
0100
0E00
ENDCHAR
STARTCHAR uni04AB
ENCODING 1195
SWIDTH 500 0
DWIDTH 11 0
BBX 9 15 1 -4
BITMAP
1E00
7F00
6380
C180
C000
C000
C000
C180
6380
7F00
3E00
0400
0400
0400
3800
ENDCHAR
STARTCHAR uni04AC
ENCODING 1196
SWIDTH 610 0
DWIDTH 13 0
BBX 12 19 0 -4
BITMAP
FFF0
FFF0
0600
0600
0600
0600
0600
0600
0600
0600
0600
0600
0600
0700
0700
0300
0300
0300
0300
ENDCHAR
STARTCHAR uni04AD
ENCODING 1197
SWIDTH 458 0
DWIDTH 10 0
BBX 10 14 0 -3
BITMAP
FFC0
FFC0
0C00
0C00
0C00
0C00
0C00
0C00
0C00
0E00
0E00
0600
0600
0600
ENDCHAR
STARTCHAR uni04AE
ENCODING 1198
SWIDTH 556 0
DWIDTH 12 0
BBX 12 15 0 0
BITMAP
C030
6060
6060
30C0
39C0
1980
0F00
0F00
0600
0600
0600
0600
0600
0600
0600
ENDCHAR
STARTCHAR uni04AF
ENCODING 1199
SWIDTH 500 0
DWIDTH 11 0
BBX 10 15 0 -4
BITMAP
C0C0
6180
6180
6180
3300
3300
3300
1E00
1E00
1E00
0C00
0C00
0C00
0C00
0C00
ENDCHAR
STARTCHAR uni04B0
ENCODING 1200
SWIDTH 556 0
DWIDTH 12 0
BBX 12 15 0 0
BITMAP
C030
6060
2040
30C0
1980
1980
0F00
7FE0
7FE0
0600
0600
0600
0600
0600
0600
ENDCHAR
STARTCHAR uni04B1
ENCODING 1201
SWIDTH 500 0
DWIDTH 11 0
BBX 10 15 0 -4
BITMAP
C0C0
6180
6180
6180
3300
3300
3300
1E00
1E00
1E00
0C00
7F80
7F80
0C00
0C00
ENDCHAR
STARTCHAR uni04B2
ENCODING 1202
SWIDTH 666 0
DWIDTH 14 0
BBX 13 19 0 -4
BITMAP
6018
3030
1860
1CC0
0CC0
0780
0700
0700
0780
0DC0
18C0
1860
3030
6038
C018
0018
0018
0018
0018
ENDCHAR
STARTCHAR uni04B3
ENCODING 1203
SWIDTH 500 0
DWIDTH 11 0
BBX 10 14 0 -3
BITMAP
C0C0
6180
3300
1E00
1E00
0C00
1E00
1B00
3180
61C0
C0C0
00C0
00C0
00C0
ENDCHAR
STARTCHAR uni04B4
ENCODING 1204
SWIDTH 925 0
DWIDTH 19 0
BBX 17 19 1 -4
BITMAP
FFE300
FFE300
060300
060300
060300
060300
060300
060300
060300
060300
060300
060300
060300
07FF80
07FF80
000180
000180
000180
000180
ENDCHAR
STARTCHAR uni04B5
ENCODING 1205
SWIDTH 690 0
DWIDTH 15 0
BBX 14 14 0 -3
BITMAP
FF98
FF98
0C18
0C18
0C18
0C18
0C18
0C18
0C18
0FFC
0FFC
000C
000C
000C
ENDCHAR
STARTCHAR uni04B6
ENCODING 1206
SWIDTH 666 0
DWIDTH 14 0
BBX 12 19 1 -4
BITMAP
C060
C060
C060
C060
C060
C060
C060
E0E0
7FE0
3F60
0060
0060
0060
0070
0070
0030
0030
0030
0030
ENDCHAR
STARTCHAR uni04B7
ENCODING 1207
SWIDTH 520 0
DWIDTH 11 0
BBX 10 14 1 -3
BITMAP
C180
C180
C180
C180
C180
E180
7F80
3F80
0180
01C0
01C0
00C0
00C0
00C0
ENDCHAR
STARTCHAR uni04B8
ENCODING 1208
SWIDTH 666 0
DWIDTH 14 0
BBX 10 15 2 0
BITMAP
C0C0
C0C0
C0C0
C0C0
C4C0
C4C0
C4C0
E5C0
7FC0
3EC0
04C0
04C0
04C0
00C0
00C0
ENDCHAR
STARTCHAR uni04B9
ENCODING 1209
SWIDTH 520 0
DWIDTH 11 0
BBX 9 11 1 0
BITMAP
C180
C180
C980
C980
E980
7F80
3F80
0980
0980
0180
0180
ENDCHAR
STARTCHAR uni04BA
ENCODING 1210
SWIDTH 666 0
DWIDTH 14 0
BBX 11 15 2 0
BITMAP
C000
C000
C000
C000
C000
DF80
FFC0
E0E0
C060
C060
C060
C060
C060
C060
C060
ENDCHAR
STARTCHAR uni04BB
ENCODING 1211
SWIDTH 556 0
DWIDTH 11 0
BBX 9 15 1 0
BITMAP
C000
C000
C000
C000
DE00
FF00
E380
C180
C180
C180
C180
C180
C180
C180
C180
ENDCHAR
STARTCHAR uni04BC
ENCODING 1212
SWIDTH 861 0
DWIDTH 18 0
BBX 17 15 0 0
BITMAP
00F800
03FE00
070700
060300
8E0380
CC0180
CC0180
FFFF80
7FFF80
0C0000
0C0180
060380
070700
03FE00
00FC00
ENDCHAR
STARTCHAR uni04BD
ENCODING 1213
SWIDTH 666 0
DWIDTH 14 0
BBX 13 11 0 0
BITMAP
03C0
0FF0
CC30
D818
FFF8
7FF8
1800
1800
0C38
0FF0
03E0
ENDCHAR
STARTCHAR uni04BE
ENCODING 1214
SWIDTH 861 0
DWIDTH 18 0
BBX 17 18 0 -3
BITMAP
00F800
03FE00
070700
060300
0E0380
CC0180
CC0180
FFFF80
7FFF80
0C0000
0C0000
060300
070700
03FE00
00F800
002000
002000
002000
ENDCHAR
STARTCHAR uni04BF
ENCODING 1215
SWIDTH 666 0
DWIDTH 14 0
BBX 13 14 0 -3
BITMAP
03C0
07E0
0C30
DC18
D818
FFF8
7FF8
1800
1C38
0FF0
07E0
0100
0100
0100
ENDCHAR
STARTCHAR uni04C0
ENCODING 1216
SWIDTH 277 0
DWIDTH 6 0
BBX 2 15 2 0
BITMAP
C0
C0
C0
C0
C0
C0
C0
C0
C0
C0
C0
C0
C0
C0
C0
ENDCHAR
STARTCHAR uni04C1
ENCODING 1217
SWIDTH 923 0
DWIDTH 19 0
BBX 20 19 0 0
BITMAP
010800
009800
00F000
000000
E06070
F060F0
3861C0
186180
0C6300
0C6300
066600
03FC00
066600
0C6300
186180
3060C0
3060C0
606060
C06030
ENDCHAR
STARTCHAR uni04C2
ENCODING 1218
SWIDTH 668 0
DWIDTH 14 0
BBX 14 15 0 0
BITMAP
0420
0440
0380
0000
E31C
E31C
3330
3330
1B60
0FC0
1B60
3330
7338
6318
C30C
ENDCHAR
STARTCHAR uni04C3
ENCODING 1219
SWIDTH 667 0
DWIDTH 14 0
BBX 12 19 1 -4
BITMAP
C0E0
C1E0
C300
C300
C600
CC00
FF80
FFC0
C0E0
C070
C030
C030
C030
C030
C030
0060
E0E0
7FC0
1F00
ENDCHAR
STARTCHAR uni04C4
ENCODING 1220
SWIDTH 550 0
DWIDTH 12 0
BBX 10 15 1 -4
BITMAP
C700
C700
CC00
CC00
D800
FE00
FF80
C180
C0C0
C0C0
C0C0
00C0
C180
7F80
3E00
ENDCHAR
STARTCHAR uni04C5
ENCODING 1221
SWIDTH 656 0
DWIDTH 14 0
BBX 14 19 0 -4
BITMAP
3FF0
3FF0
3030
3030
3030
3030
3030
3030
3030
3030
3030
3030
3030
F03C
E03C
0018
0018
0018
0030
ENDCHAR
STARTCHAR uni04C6
ENCODING 1222
SWIDTH 583 0
DWIDTH 12 0
BBX 12 14 0 -3
BITMAP
3FC0
3FC0
30C0
30C0
30C0
30C0
30C0
30C0
30C0
F0F0
E0E0
0020
0060
0040
ENDCHAR
STARTCHAR uni04C7
ENCODING 1223
SWIDTH 722 0
DWIDTH 15 0
BBX 13 19 1 -4
BITMAP
C018
C018
C018
C018
C018
C018
FFF8
FFF8
C018
C018
C018
C018
C018
C018
C038
0030
E0F0
7FE0
1F80
ENDCHAR
STARTCHAR uni04C8
ENCODING 1224
SWIDTH 552 0
DWIDTH 12 0
BBX 10 15 1 -4
BITMAP
C0C0
C0C0
C0C0
C0C0
FFC0
FFC0
C0C0
C0C0
C0C0
C0C0
C0C0
00C0
C180
7F80
3E00
ENDCHAR
STARTCHAR uni04C9
ENCODING 1225
SWIDTH 722 0
DWIDTH 15 0
BBX 14 19 1 -4
BITMAP
C030
C030
C030
C030
C030
C030
FFF0
FFF0
C030
C030
C030
C030
C030
C03C
C03C
0018
0018
0018
0030
ENDCHAR
STARTCHAR uni04CA
ENCODING 1226
SWIDTH 552 0
DWIDTH 12 0
BBX 11 14 1 -3
BITMAP
C180
C180
C180
C180
FF80
FF80
C180
C180
C180
C1E0
C1C0
0040
00C0
0080
ENDCHAR
STARTCHAR uni04CB
ENCODING 1227
SWIDTH 666 0
DWIDTH 14 0
BBX 11 19 1 -4
BITMAP
C060
C060
C060
C060
C060
C060
C060
E0E0
7FE0
3F60
0060
0060
0060
00E0
00E0
00C0
00C0
00C0
00C0
ENDCHAR
STARTCHAR uni04CC
ENCODING 1228
SWIDTH 520 0
DWIDTH 11 0
BBX 9 14 1 -3
BITMAP
C180
C180
C180
C180
C180
E180
7F80
3F80
0180
0380
0380
0300
0300
0300
ENDCHAR
STARTCHAR uni04CD
ENCODING 1229
SWIDTH 833 0
DWIDTH 18 0
BBX 17 19 1 -4
BITMAP
E00E00
F01E00
F01E00
D83600
D83600
D83600
CC6600
CC6600
CC6600
C6C600
C6C600
C6C600
C38600
C38780
C38780
000300
000300
000300
000600
ENDCHAR
STARTCHAR uni04CE
ENCODING 1230
SWIDTH 687 0
DWIDTH 14 0
BBX 13 14 1 -3
BITMAP
E0E0
F1E0
F1E0
F1E0
D160
DB60
DB60
DB60
CA60
CE78
CE70
0010
0030
0020
ENDCHAR
STARTCHAR uni04CF
ENCODING 1231
SWIDTH 222 0
DWIDTH 4 0
BBX 2 15 1 0
BITMAP
C0
C0
C0
C0
C0
C0
C0
C0
C0
C0
C0
C0
C0
C0
C0
ENDCHAR
STARTCHAR uni04D0
ENCODING 1232
SWIDTH 666 0
DWIDTH 13 0
BBX 13 19 0 0
BITMAP
0880
0880
0700
0000
0700
0700
0D80
0D80
0D80
18C0
18C0
18C0
3FE0
3FE0
6030
6030
6030
C018
C018
ENDCHAR
STARTCHAR uni04D1
ENCODING 1233
SWIDTH 556 0
DWIDTH 12 0
BBX 10 15 1 0
BITMAP
2100
3300
1E00
0000
3F00
FF80
C180
0180
0F80
7F80
F180
C180
C380
FF80
7CC0
ENDCHAR
STARTCHAR uni04D2
ENCODING 1234
SWIDTH 666 0
DWIDTH 13 0
BBX 13 18 0 0
BITMAP
1980
1980
0000
0700
0700
0D80
0D80
0D80
18C0
18C0
18C0
3FE0
3FE0
6030
6030
6030
C018
C018
ENDCHAR
STARTCHAR uni04D3
ENCODING 1235
SWIDTH 556 0
DWIDTH 12 0
BBX 10 14 1 0
BITMAP
3300
3300
0000
3F00
FF80
C180
0180
0F80
7F80
F180
C180
C380
FF80
7CC0
ENDCHAR
STARTCHAR uni04D4
ENCODING 1236
SWIDTH 1000 0
DWIDTH 21 0
BBX 20 15 0 0
BITMAP
01FFF0
03FFF0
033000
063000
063000
0C3000
0C3FE0
183FE0
183000
3FF000
3FF000
603000
603000
C03FF0
C03FF0
ENDCHAR
STARTCHAR uni04D5
ENCODING 1237
SWIDTH 889 0
DWIDTH 19 0
BBX 17 11 1 0
BITMAP
3F3C00
7FFF00
C1C300
078180
7FFF80
79FF80
C18000
C18180
C3C300
7F7F00
3C3C00
ENDCHAR
STARTCHAR uni04D6
ENCODING 1238
SWIDTH 666 0
DWIDTH 14 0
BBX 11 19 2 0
BITMAP
1080
1100
0E00
0000
FFE0
FFE0
C000
C000
C000
C000
FFC0
FFC0
C000
C000
C000
C000
C000
FFE0
FFE0
ENDCHAR
STARTCHAR uni04D7
ENCODING 1239
SWIDTH 556 0
DWIDTH 12 0
BBX 10 15 1 0
BITMAP
2100
1100
1E00
0000
1E00
7F80
6180
C0C0
FFC0
FFC0
C000
C000
61C0
7F80
1F00
ENDCHAR
STARTCHAR uni018F.dup4
ENCODING 1240
SWIDTH 752 0
DWIDTH 16 0
BBX 14 15 1 0
BITMAP
0FC0
1FE0
3830
7018
600C
000C
FFFC
FFFC
C00C
C00C
601C
6018
3878
3FF0
0FC0
ENDCHAR
STARTCHAR uni0259.dup5
ENCODING 1241
SWIDTH 556 0
DWIDTH 12 0
BBX 10 11 1 0
BITMAP
3E00
7F80
E180
C0C0
00C0
FFC0
FFC0
C0C0
6180
7F80
1E00
ENDCHAR
STARTCHAR uni04DA
ENCODING 1242
SWIDTH 752 0
DWIDTH 16 0
BBX 14 18 1 0
BITMAP
0CC0
0CC0
0000
0FC0
1FE0
3830
7018
600C
000C
FFFC
FFFC
C00C
C00C
601C
6018
3878
3FF0
0FC0
ENDCHAR
STARTCHAR uni04DB
ENCODING 1243
SWIDTH 556 0
DWIDTH 12 0
BBX 10 14 1 0
BITMAP
3300
3300
0000
3E00
7F80
E180
C0C0
00C0
FFC0
FFC0
C0C0
6180
7F80
1E00
ENDCHAR
STARTCHAR uni04DC
ENCODING 1244
SWIDTH 923 0
DWIDTH 19 0
BBX 20 18 0 0
BITMAP
019800
019800
000000
E06070
F060F0
3861C0
186180
0C6300
0C6300
066600
03FC00
066600
0C6300
186180
3060C0
3060C0
606060
C06030
ENDCHAR
STARTCHAR uni04DD
ENCODING 1245
SWIDTH 668 0
DWIDTH 14 0
BBX 14 14 0 0
BITMAP
0660
0660
0000
E31C
E31C
3330
3330
1B60
0FC0
1B60
3330
7338
6318
C30C
ENDCHAR
STARTCHAR uni04DE
ENCODING 1246
SWIDTH 604 0
DWIDTH 13 0
BBX 11 18 1 0
BITMAP
3300
3300
0000
1F00
7F80
61C0
C0C0
C0C0
01C0
0F80
0F80
00C0
0060
0060
C060
60C0
7FC0
1F00
ENDCHAR
STARTCHAR uni04DF
ENCODING 1247
SWIDTH 458 0
DWIDTH 10 0
BBX 8 14 1 0
BITMAP
66
66
00
3C
7F
C3
03
1E
1E
03
C3
E3
7E
3C
ENDCHAR
STARTCHAR uni04E0
ENCODING 1248
SWIDTH 604 0
DWIDTH 13 0
BBX 11 15 1 0
BITMAP
7FE0
7FE0
00C0
0180
0300
0600
0F80
0FC0
00E0
0060
C060
E060
70E0
3FC0
1F00
ENDCHAR
STARTCHAR uni04E1
ENCODING 1249
SWIDTH 544 0
DWIDTH 11 0
BBX 9 15 1 -4
BITMAP
FF00
FF00
0600
0C00
1800
1E00
1F00
0380
0180
0180
0180
C180
E300
7F00
3C00
ENDCHAR
STARTCHAR uni04E2
ENCODING 1250
SWIDTH 718 0
DWIDTH 15 0
BBX 11 18 2 0
BITMAP
1F80
1F80
0000
C060
C0E0
C0E0
C1E0
C360
C360
C660
C460
CC60
D860
D860
F060
F060
E060
C060
ENDCHAR
STARTCHAR uni04E3
ENCODING 1251
SWIDTH 558 0
DWIDTH 11 0
BBX 9 14 1 0
BITMAP
7E00
7E00
0000
C380
C380
C780
C780
CD80
C980
D980
F180
F180
E180
E180
ENDCHAR
STARTCHAR uni04E4
ENCODING 1252
SWIDTH 718 0
DWIDTH 15 0
BBX 11 18 2 0
BITMAP
1980
1980
0000
C060
C0E0
C0E0
C1E0
C360
C360
C660
C460
CC60
D860
D860
F060
F060
E060
C060
ENDCHAR
STARTCHAR uni04E5
ENCODING 1253
SWIDTH 558 0
DWIDTH 11 0
BBX 9 14 1 0
BITMAP
6600
6600
0000
C380
C380
C780
C780
CD80
C980
D980
F180
F180
E180
E180
ENDCHAR
STARTCHAR uni04E6
ENCODING 1254
SWIDTH 777 0
DWIDTH 16 0
BBX 14 18 1 0
BITMAP
0660
0660
0000
0FC0
1FE0
3870
6018
E01C
C00C
C00C
C00C
C00C
C00C
E01C
6018
3870
1FE0
0FC0
ENDCHAR
STARTCHAR uni04E7
ENCODING 1255
SWIDTH 556 0
DWIDTH 12 0
BBX 10 14 1 0
BITMAP
3300
3300
0000
1E00
7F80
6180
C0C0
C0C0
C0C0
C0C0
C0C0
6180
7F80
1E00
ENDCHAR
STARTCHAR uni04E8
ENCODING 1256
SWIDTH 777 0
DWIDTH 16 0
BBX 14 15 1 0
BITMAP
0FC0
1FE0
3070
6018
C00C
C00C
FFFC
FFFC
C00C
C00C
601C
6018
3870
1FE0
0FC0
ENDCHAR
STARTCHAR uni04E9
ENCODING 1257
SWIDTH 556 0
DWIDTH 12 0
BBX 10 11 1 0
BITMAP
1E00
7F80
6180
C0C0
FFC0
FFC0
C0C0
C0C0
6180
7F80
1E00
ENDCHAR
STARTCHAR uni04EA
ENCODING 1258
SWIDTH 777 0
DWIDTH 16 0
BBX 14 18 1 0
BITMAP
0660
0660
0000
0FC0
1FE0
3070
6018
C00C
C00C
FFFC
FFFC
C00C
C00C
601C
6018
3870
1FE0
0FC0
ENDCHAR
STARTCHAR uni04EB
ENCODING 1259
SWIDTH 556 0
DWIDTH 12 0
BBX 10 14 1 0
BITMAP
3300
3300
0000
1E00
7F80
6180
C0C0
FFC0
FFC0
C0C0
C0C0
6180
7F80
1E00
ENDCHAR
STARTCHAR uni04EC
ENCODING 1260
SWIDTH 718 0
DWIDTH 15 0
BBX 13 18 1 0
BITMAP
0CC0
0CC0
0000
1F80
3FC0
7060
E030
4018
0018
07F8
07F8
0018
0018
C038
E030
7070
3FE0
1F80
ENDCHAR
STARTCHAR uni04ED
ENCODING 1261
SWIDTH 510 0
DWIDTH 11 0
BBX 9 14 1 0
BITMAP
3300
3300
0000
3C00
7F00
E300
C180
0F80
0F80
0180
C180
E300
7F00
3E00
ENDCHAR
STARTCHAR uni04EE
ENCODING 1262
SWIDTH 635 0
DWIDTH 13 0
BBX 11 18 1 0
BITMAP
3F00
3F00
0000
C060
C060
60C0
60C0
3080
3180
1900
1B00
0F00
0E00
0600
0C00
0C00
7800
7000
ENDCHAR
STARTCHAR uni04EF
ENCODING 1263
SWIDTH 500 0
DWIDTH 11 0
BBX 9 18 1 -4
BITMAP
3F00
3F00
0000
C180
C180
6300
6300
7300
3300
3600
1E00
1E00
0C00
0C00
0C00
1800
F800
F000
ENDCHAR
STARTCHAR uni04F0
ENCODING 1264
SWIDTH 635 0
DWIDTH 13 0
BBX 11 18 1 0
BITMAP
6600
6600
0000
C060
C060
60C0
60C0
3080
3180
1900
1B00
0F00
0E00
0600
0C00
0C00
7800
7000
ENDCHAR
STARTCHAR uni04F1
ENCODING 1265
SWIDTH 500 0
DWIDTH 11 0
BBX 9 18 1 -4
BITMAP
3300
3300
0000
C180
C180
6300
6300
7300
3300
3600
1E00
1E00
0C00
0C00
0C00
1800
F800
F000
ENDCHAR
STARTCHAR uni04F2
ENCODING 1266
SWIDTH 635 0
DWIDTH 13 0
BBX 11 19 1 0
BITMAP
0D80
0900
1B00
0000
C060
C060
60C0
60C0
3080
3180
1900
1B00
0F00
0E00
0600
0C00
0C00
7800
7000
ENDCHAR
STARTCHAR uni04F3
ENCODING 1267
SWIDTH 500 0
DWIDTH 11 0
BBX 9 19 1 -4
BITMAP
1B00
1200
3600
0000
C180
C180
6300
6300
7300
3300
3600
1E00
1E00
0C00
0C00
0C00
1800
F800
F000
ENDCHAR
STARTCHAR uni04F4
ENCODING 1268
SWIDTH 666 0
DWIDTH 14 0
BBX 11 18 1 0
BITMAP
1980
1980
0000
C060
C060
C060
C060
C060
C060
C060
E0E0
7FE0
3E60
0060
0060
0060
0060
0060
ENDCHAR
STARTCHAR uni04F5
ENCODING 1269
SWIDTH 520 0
DWIDTH 11 0
BBX 9 14 1 0
BITMAP
3300
3300
0000
C180
C180
C180
C180
C180
E180
7F80
3F80
0180
0180
0180
ENDCHAR
STARTCHAR uni04F6
ENCODING 1270
SWIDTH 541 0
DWIDTH 11 0
BBX 9 19 2 -4
BITMAP
FF80
FF80
C000
C000
C000
C000
C000
C000
C000
C000
C000
C000
C000
E000
E000
6000
6000
6000
6000
ENDCHAR
STARTCHAR uni04F7
ENCODING 1271
SWIDTH 364 0
DWIDTH 8 0
BBX 7 14 1 -3
BITMAP
FE
FE
C0
C0
C0
C0
C0
C0
C0
E0
E0
60
60
60
ENDCHAR
STARTCHAR uni04F8
ENCODING 1272
SWIDTH 885 0
DWIDTH 19 0
BBX 15 18 2 0
BITMAP
0660
0660
0000
C006
C006
C006
C006
C006
C006
FF86
FFC6
C0E6
C066
C066
C066
C0E6
FFC6
FF86
ENDCHAR
STARTCHAR uni04F9
ENCODING 1273
SWIDTH 718 0
DWIDTH 15 0
BBX 13 14 1 0
BITMAP
0CC0
0CC0
0000
C018
C018
C018
C018
FE18
FF18
C198
C198
C198
FF18
FE18
ENDCHAR
STARTCHAR uni04FA
ENCODING 1274
SWIDTH 541 0
DWIDTH 11 0
BBX 11 19 0 -4
BITMAP
3FE0
3FE0
3000
3000
3000
3000
FF00
FF00
3000
3000
3000
3000
3000
3800
3800
1800
1800
7800
7000
ENDCHAR
STARTCHAR uni04FB
ENCODING 1275
SWIDTH 364 0
DWIDTH 8 0
BBX 8 15 0 -4
BITMAP
7F
7F
60
60
F8
F8
60
60
60
70
70
30
30
F0
E0
ENDCHAR
STARTCHAR uni04FC
ENCODING 1276
SWIDTH 666 0
DWIDTH 14 0
BBX 14 19 0 -4
BITMAP
600C
3018
1830
0C60
0CC0
06C0
0380
0380
0780
0CC0
0C60
1860
3030
6018
C00C
000C
000C
003C
0038
ENDCHAR
STARTCHAR uni04FD
ENCODING 1277
SWIDTH 500 0
DWIDTH 11 0
BBX 11 15 0 -4
BITMAP
C060
60C0
3180
1B00
0E00
0E00
0E00
1B00
3180
60C0
C0C0
0060
0060
01E0
01C0
ENDCHAR
STARTCHAR uni04FE
ENCODING 1278
SWIDTH 666 0
DWIDTH 14 0
BBX 14 15 0 0
BITMAP
600C
3018
1830
0C60
0CC0
06C0
3FF0
3FF0
0780
0CC0
0C60
1860
3030
6018
C00C
ENDCHAR
STARTCHAR uni04FF
ENCODING 1279
SWIDTH 500 0
DWIDTH 11 0
BBX 11 11 0 0
BITMAP
C060
60C0
3180
1B00
0E00
FFE0
FFE0
1B00
3180
60C0
C060
ENDCHAR
STARTCHAR uni0500
ENCODING 1280
SWIDTH 656 0
DWIDTH 14 0
BBX 11 15 1 0
BITMAP
0060
0060
0060
0060
0060
0060
3FE0
7FE0
E060
C060
C060
C060
E060
7FE0
3FE0
ENDCHAR
STARTCHAR uni0501
ENCODING 1281
SWIDTH 556 0
DWIDTH 11 0
BBX 9 15 1 0
BITMAP
0180
0180
0180
0180
3D80
7F80
6380
C180
C180
C180
C180
C180
6380
7F80
3D80
ENDCHAR
STARTCHAR uni0502
ENCODING 1282
SWIDTH 968 0
DWIDTH 20 0
BBX 18 15 1 0
BITMAP
006000
006000
006000
006000
006000
006000
3FE0C0
7FE0C0
E060C0
C060C0
C060C0
C060C0
E0F1C0
7FFF80
3F1F00
ENDCHAR
STARTCHAR uni0503
ENCODING 1283
SWIDTH 876 0
DWIDTH 18 0
BBX 16 15 1 0
BITMAP
0180
0180
0180
0180
3D80
7F80
6380
C180
C183
C183
C183
C183
63C7
7EFE
3C7C
ENDCHAR
STARTCHAR uni0504
ENCODING 1284
SWIDTH 956 0
DWIDTH 20 0
BBX 18 15 1 0
BITMAP
1F0000
7F8000
61C000
C0C000
C0C000
018000
0F00C0
0FC0C0
00E0C0
0060C0
0060C0
0060C0
0071C0
003F80
001F00
ENDCHAR
STARTCHAR uni0505
ENCODING 1285
SWIDTH 815 0
DWIDTH 17 0
BBX 15 11 1 0
BITMAP
3C00
7E00
C300
0300
1E06
1F06
0306
0306
038E
01FC
00F8
ENDCHAR
STARTCHAR uni0506
ENCODING 1286
SWIDTH 662 0
DWIDTH 14 0
BBX 12 19 1 -4
BITMAP
1F00
7F80
61C0
C0C0
C0C0
0180
0F00
0FC0
00E0
0060
0060
0060
0060
0070
0070
0030
0030
0030
0030
ENDCHAR
STARTCHAR uni0507
ENCODING 1287
SWIDTH 509 0
DWIDTH 11 0
BBX 9 14 1 -3
BITMAP
3C00
7E00
C300
0300
1E00
1E00
0700
0300
0300
0380
0380
0180
0180
0180
ENDCHAR
STARTCHAR uni0508
ENCODING 1288
SWIDTH 970 0
DWIDTH 20 0
BBX 19 15 0 0
BITMAP
1FF000
1FF000
183000
183000
183000
183000
183060
183060
183060
183060
183060
183060
1838E0
F01FC0
E00F80
ENDCHAR
STARTCHAR uni0509
ENCODING 1289
SWIDTH 909 0
DWIDTH 19 0
BBX 18 11 0 0
BITMAP
3FE000
3FE000
306000
306000
3060C0
3060C0
3060C0
3060C0
3071C0
F03F80
E01F00
ENDCHAR
STARTCHAR uni050A
ENCODING 1290
SWIDTH 1034 0
DWIDTH 22 0
BBX 19 15 2 0
BITMAP
C03000
C03000
C03000
C03000
C03000
C03000
FFF060
FFF060
C03060
C03060
C03060
C03060
C038E0
C01FC0
C00F80
ENDCHAR
STARTCHAR uni050B
ENCODING 1291
SWIDTH 878 0
DWIDTH 18 0
BBX 16 11 1 0
BITMAP
C180
C180
C180
C180
FF83
FF83
C183
C183
C1C7
C0FE
C07C
ENDCHAR
STARTCHAR uni050C
ENCODING 1292
SWIDTH 777 0
DWIDTH 16 0
BBX 14 15 1 0
BITMAP
07E0
1FF0
3838
601C
600C
C000
C000
C0FC
C0FC
C00C
E00C
6018
3838
3FF0
0FC0
ENDCHAR
STARTCHAR uni050D
ENCODING 1293
SWIDTH 558 0
DWIDTH 12 0
BBX 10 11 1 0
BITMAP
1F00
7F80
61C0
C0C0
C000
C7C0
C7C0
C0C0
6180
7F80
1F00
ENDCHAR
STARTCHAR uni050E
ENCODING 1294
SWIDTH 746 0
DWIDTH 16 0
BBX 14 15 1 0
BITMAP
FFF0
FFF0
0600
0600
0600
0600
060C
060C
060C
060C
060C
060C
071C
03F8
01F0
ENDCHAR
STARTCHAR uni050F
ENCODING 1295
SWIDTH 665 0
DWIDTH 14 0
BBX 13 11 0 0
BITMAP
FFC0
FFC0
0C00
0C00
0C18
0C18
0C18
0C18
0E38
07F0
03E0
ENDCHAR
STARTCHAR uni0510
ENCODING 1296
SWIDTH 604 0
DWIDTH 13 0
BBX 11 15 1 0
BITMAP
1F00
3FC0
70C0
6060
6060
7000
3E00
3E00
6000
C000
C000
C060
E0C0
7FC0
1F00
ENDCHAR
STARTCHAR uni0511
ENCODING 1297
SWIDTH 458 0
DWIDTH 10 0
BBX 8 11 1 0
BITMAP
3C
FE
C3
C0
78
78
C0
C3
C7
7E
3C
ENDCHAR
STARTCHAR uni0512
ENCODING 1298
SWIDTH 656 0
DWIDTH 14 0
BBX 11 19 1 -4
BITMAP
3FE0
3FE0
3060
3060
3060
3060
3060
3060
3060
3060
3060
3060
3060
F060
E060
0060
0060
01E0
01C0
ENDCHAR
STARTCHAR uni0513
ENCODING 1299
SWIDTH 583 0
DWIDTH 12 0
BBX 11 15 0 -4
BITMAP
3FE0
3FE0
3060
3060
3060
3060
3060
3060
3060
F060
E060
0060
0060
01E0
01C0
ENDCHAR
STARTCHAR uni0514
ENCODING 1300
SWIDTH 959 0
DWIDTH 20 0
BBX 20 15 0 0
BITMAP
1FC030
1FE060
1860C0
183180
181980
181B00
180E00
180E00
180F00
181B00
183180
1830C0
1860C0
F0C060
F18030
ENDCHAR
STARTCHAR uni0515
ENCODING 1301
SWIDTH 760 0
DWIDTH 16 0
BBX 16 11 0 0
BITMAP
3F03
3F86
318C
30D8
3078
3030
3078
3078
30CC
F186
E307
ENDCHAR
STARTCHAR uni0516
ENCODING 1302
SWIDTH 788 0
DWIDTH 17 0
BBX 15 15 2 0
BITMAP
FE0C
FF18
C3B0
C1E0
C1C0
C180
C300
FF80
FCC0
C0C0
C060
C030
C018
C00C
C006
ENDCHAR
STARTCHAR uni0517
ENCODING 1303
SWIDTH 717 0
DWIDTH 15 0
BBX 14 15 1 -4
BITMAP
DE0C
FF18
E1B0
C0E0
C0C0
C0C0
C0E0
C0B0
E1B0
FF18
DE0C
C000
C000
C000
C000
ENDCHAR
STARTCHAR uni0518
ENCODING 1304
SWIDTH 957 0
DWIDTH 20 0
BBX 19 15 0 0
BITMAP
1FFFE0
3FFFE0
706000
606000
606000
706000
3FFFC0
0FFFC0
0C6000
186000
186000
306000
706000
607FE0
C07FE0
ENDCHAR
STARTCHAR uni0519
ENCODING 1305
SWIDTH 856 0
DWIDTH 18 0
BBX 17 11 0 0
BITMAP
1FBC00
7FFF00
61C300
618180
61FF80
3FFF80
1F8000
198180
30C380
60FF00
C03E00
ENDCHAR
STARTCHAR uni051A
ENCODING 1306
SWIDTH 777 0
DWIDTH 16 0
BBX 14 16 1 -1
BITMAP
0FC0
1FF0
3870
6018
E01C
C00C
C00C
C00C
C00C
C00C
E018
61D8
3870
1FF8
0FDC
0004
ENDCHAR
STARTCHAR uni051B
ENCODING 1307
SWIDTH 556 0
DWIDTH 11 0
BBX 9 15 1 -4
BITMAP
3D80
7F80
6380
C180
C180
C180
C180
C180
6380
7F80
3D80
0180
0180
0180
0180
ENDCHAR
STARTCHAR uni051C
ENCODING 1308
SWIDTH 943 0
DWIDTH 21 0
BBX 21 15 0 0
BITMAP
C07018
C07018
60D830
60D830
60D830
708870
318C60
318C60
318C60
1B06C0
1B06C0
1B06C0
1B06C0
0E0380
0E0380
ENDCHAR
STARTCHAR uni051D
ENCODING 1309
SWIDTH 722 0
DWIDTH 15 0
BBX 15 11 0 0
BITMAP
C106
C386
4384
628C
66CC
36D8
36D8
1450
1C70
1C70
0C60
ENDCHAR
STARTCHAR uni051E
ENCODING 1310
SWIDTH 666 0
DWIDTH 14 0
BBX 12 15 2 0
BITMAP
C460
C2C0
C380
C380
C680
CC40
DC00
F600
E600
C300
C180
C0C0
C0C0
C060
C030
ENDCHAR
STARTCHAR uni051F
ENCODING 1311
SWIDTH 500 0
DWIDTH 11 0
BBX 9 11 1 0
BITMAP
D180
CB00
CE00
DE00
F900
F000
D800
CC00
C600
C300
C180
ENDCHAR
STARTCHAR uni0520
ENCODING 1312
SWIDTH 1068 0
DWIDTH 22 0
BBX 21 19 0 -4
BITMAP
1FF000
1FF000
183000
183000
183000
1837E0
183FF0
183838
183018
183018
183018
183018
183018
F03018
F03018
000018
000018
000078
000070
ENDCHAR
STARTCHAR uni0521
ENCODING 1313
SWIDTH 884 0
DWIDTH 19 0
BBX 18 15 0 -4
BITMAP
3FE000
3FE000
306000
306000
307F00
307F80
3061C0
3060C0
3060C0
F060C0
E060C0
0000C0
0000C0
0003C0
000380
ENDCHAR
STARTCHAR uni0522
ENCODING 1314
SWIDTH 1131 0
DWIDTH 24 0
BBX 21 19 2 -4
BITMAP
C03000
C03000
C03000
C03000
C03000
C037E0
FFFFF0
FFF838
C03018
C03018
C03018
C03018
C03018
C03018
C03018
000018
000018
000078
000070
ENDCHAR
STARTCHAR uni0523
ENCODING 1315
SWIDTH 850 0
DWIDTH 18 0
BBX 16 15 1 -4
BITMAP
C180
C180
C180
C1FC
FFFE
FF87
C183
C183
C183
C183
C183
0003
0003
000F
000E
ENDCHAR
STARTCHAR uni0524
ENCODING 1316
SWIDTH 722 0
DWIDTH 15 0
BBX 13 19 2 -4
BITMAP
FFE0
FFE0
C060
C060
C060
C060
C060
C060
C060
C060
C060
C060
C060
C078
C078
0018
0018
0018
0018
ENDCHAR
STARTCHAR uni0525
ENCODING 1317
SWIDTH 541 0
DWIDTH 11 0
BBX 11 15 1 -4
BITMAP
FF80
FF80
C180
C180
C180
C180
C180
C180
C180
C1E0
C1E0
0060
0060
0060
0060
ENDCHAR
STARTCHAR uni0526
ENCODING 1318
SWIDTH 704 0
DWIDTH 15 0
BBX 13 19 2 -4
BITMAP
C000
C000
C000
C000
C000
DF80
FFC0
E0E0
C060
C060
C060
C060
C060
C078
C078
0018
0018
0018
0018
ENDCHAR
STARTCHAR uni0527
ENCODING 1319
SWIDTH 554 0
DWIDTH 12 0
BBX 12 19 1 -4
BITMAP
C000
C000
C000
C000
DF00
FF80
E1C0
C0C0
C0C0
C0C0
C0C0
C0C0
C0C0
C0F0
C0F0
0030
0030
0030
0030
ENDCHAR
STARTCHAR uni0528
ENCODING 1320
SWIDTH 722 0
DWIDTH 15 0
BBX 14 19 -1 -4
BITMAP
180C
180C
180C
180C
180C
180C
1FFC
1FFC
180C
180C
180C
180C
180C
180C
180C
1800
3800
7000
F000
ENDCHAR
STARTCHAR uni0529
ENCODING 1321
SWIDTH 552 0
DWIDTH 12 0
BBX 11 15 -1 -4
BITMAP
3060
3060
3060
3060
3FE0
3FE0
3060
3060
3060
3060
3060
3000
3000
F000
E000
ENDCHAR
STARTCHAR uni052A
ENCODING 1322
SWIDTH 1329 0
DWIDTH 28 0
BBX 28 19 0 -4
BITMAP
1FF180E0
1FF181C0
18318380
18318700
18318E00
18319C00
183FBC00
183FFC00
1031E600
3031C700
30318380
30318180
603181C0
FFF980E0
FFF98070
C0080000
C0080000
C0080000
C0080000
ENDCHAR
STARTCHAR uni052B
ENCODING 1323
SWIDTH 1069 0
DWIDTH 22 0
BBX 22 14 0 -3
BITMAP
1FC618
1FC630
104660
1046E0
107FC0
307F60
304660
204630
604618
FFF618
FFF60C
C03000
C03000
C03000
ENDCHAR
STARTCHAR uni052C
ENCODING 1324
SWIDTH 666 0
DWIDTH 14 0
BBX 14 19 0 -4
BITMAP
6030
6070
6070
60F0
61F0
61B0
6330
7670
3FF0
1FB0
1830
3830
3030
FFFC
FFFC
C00C
C00C
C00C
C00C
ENDCHAR
STARTCHAR uni052D
ENCODING 1325
SWIDTH 564 0
DWIDTH 12 0
BBX 12 14 0 -3
BITMAP
20C0
21C0
23C0
3740
36C0
3FC0
1FC0
3040
6040
FFF0
FFF0
C030
C030
C030
ENDCHAR
STARTCHAR uni052E
ENCODING 1326
SWIDTH 656 0
DWIDTH 14 0
BBX 14 19 0 -4
BITMAP
1FF0
1FF0
1830
1830
1830
1830
1830
1830
1830
1830
1830
1830
3830
F03C
E03C
000C
000C
000C
000C
ENDCHAR
STARTCHAR uni052F
ENCODING 1327
SWIDTH 583 0
DWIDTH 12 0
BBX 12 14 0 -3
BITMAP
3FE0
3FE0
3060
3060
3060
3060
3060
3060
3060
F070
E070
0010
0010
0010
ENDCHAR
STARTCHAR uni0531
ENCODING 1329
SWIDTH 739 0
DWIDTH 16 0
BBX 13 15 2 0
BITMAP
C030
C030
C030
C030
C030
C030
C030
C030
C030
C030
C1B0
E1F0
7060
3FF8
1F98
ENDCHAR
STARTCHAR uni0532
ENCODING 1330
SWIDTH 724 0
DWIDTH 15 0
BBX 11 15 2 0
BITMAP
1F00
7FC0
60C0
C060
C060
C060
C060
C000
C000
FFE0
FFE0
C000
C000
C000
C000
ENDCHAR
STARTCHAR uni0533
ENCODING 1331
SWIDTH 715 0
DWIDTH 15 0
BBX 14 15 1 0
BITMAP
1F80
3FE0
70E0
C030
C030
C030
C030
C030
7030
3FFC
1FFC
0030
0030
0030
0030
ENDCHAR
STARTCHAR uni0534
ENCODING 1332
SWIDTH 717 0
DWIDTH 15 0
BBX 15 15 1 0
BITMAP
1F80
3FE0
70E0
E070
C030
C030
C030
0030
0030
003E
003E
0030
0030
0030
0030
ENDCHAR
STARTCHAR uni0535
ENCODING 1333
SWIDTH 724 0
DWIDTH 15 0
BBX 11 15 2 0
BITMAP
C000
C000
C000
C000
FFE0
FFE0
C000
C000
C060
C060
C060
C060
60C0
7FC0
1F00
ENDCHAR
STARTCHAR uni0536
ENCODING 1334
SWIDTH 708 0
DWIDTH 15 0
BBX 12 15 2 0
BITMAP
1F80
3FC0
70E0
E070
C030
C030
C030
0030
0060
0060
00C0
0180
C700
FFF0
FFF0
ENDCHAR
STARTCHAR uni0537
ENCODING 1335
SWIDTH 597 0
DWIDTH 13 0
BBX 11 15 2 0
BITMAP
C000
C000
C000
C000
FFE0
FFE0
C000
C000
C000
C000
C000
C000
C000
FFC0
FFC0
ENDCHAR
STARTCHAR uni0538
ENCODING 1336
SWIDTH 723 0
DWIDTH 15 0
BBX 11 15 2 0
BITMAP
1F00
7FC0
60C0
C060
C060
C060
C060
C000
C000
C000
C000
C000
C000
FFE0
FFE0
ENDCHAR
STARTCHAR uni0539
ENCODING 1337
SWIDTH 806 0
DWIDTH 17 0
BBX 15 15 2 0
BITMAP
0FC0
3FE0
7070
E038
C018
C018
C3FE
C7FE
CE18
CC18
CC18
CC18
CE38
C7F0
C3E0
ENDCHAR
STARTCHAR uni053A
ENCODING 1338
SWIDTH 715 0
DWIDTH 15 0
BBX 14 15 1 0
BITMAP
0030
0030
0030
0030
1FFC
3FFC
7030
E030
C030
C030
C030
C030
70E0
3FC0
1F80
ENDCHAR
STARTCHAR uni053B
ENCODING 1339
SWIDTH 658 0
DWIDTH 14 0
BBX 11 15 2 0
BITMAP
C000
C000
C000
C000
DF00
FFC0
E0C0
C060
C060
C060
C060
C000
C000
C000
C000
ENDCHAR
STARTCHAR uni053C
ENCODING 1340
SWIDTH 527 0
DWIDTH 11 0
BBX 9 15 2 0
BITMAP
C000
C000
C000
C000
C000
C000
C000
C000
C000
C000
C000
C000
C000
FF80
FF80
ENDCHAR
STARTCHAR uni053D
ENCODING 1341
SWIDTH 924 0
DWIDTH 19 0
BBX 16 15 2 0
BITMAP
C000
C000
C000
C000
FF03
FF03
C303
C303
C303
C303
C303
C303
C186
C1FE
C078
ENDCHAR
STARTCHAR uni053E
ENCODING 1342
SWIDTH 766 0
DWIDTH 16 0
BBX 12 15 2 0
BITMAP
C3F0
CFF0
DC00
FF00
FFC0
60E0
6060
C030
C030
C030
C030
E070
70E0
3FC0
1F80
ENDCHAR
STARTCHAR uni053F
ENCODING 1343
SWIDTH 695 0
DWIDTH 15 0
BBX 11 15 2 0
BITMAP
C000
C000
C000
C000
C060
C060
C060
C060
60E0
7FE0
1F60
0060
0060
0060
0060
ENDCHAR
STARTCHAR uni0540
ENCODING 1344
SWIDTH 615 0
DWIDTH 13 0
BBX 11 15 1 0
BITMAP
7F00
7F80
01C0
00C0
00C0
01C0
FF80
FF80
00C0
0060
0060
0060
0060
0060
0060
ENDCHAR
STARTCHAR uni0541
ENCODING 1345
SWIDTH 706 0
DWIDTH 15 0
BBX 12 15 1 0
BITMAP
1F80
3FC0
70E0
E070
C030
C030
C030
0030
0070
7C60
FFE0
C3C0
C3E0
FF70
7C20
ENDCHAR
STARTCHAR uni0542
ENCODING 1346
SWIDTH 717 0
DWIDTH 15 0
BBX 14 15 1 0
BITMAP
1F80
3FC0
70E0
E070
C030
C030
C030
0030
0030
0030
0030
0030
0030
003C
003C
ENDCHAR
STARTCHAR uni0543
ENCODING 1347
SWIDTH 700 0
DWIDTH 15 0
BBX 11 15 2 0
BITMAP
03E0
07E0
0E00
F800
FF00
3780
61C0
60C0
C060
C060
C060
C060
C060
FFE0
FFE0
ENDCHAR
STARTCHAR uni0544
ENCODING 1348
SWIDTH 754 0
DWIDTH 16 0
BBX 15 15 2 0
BITMAP
C03E
C03E
C030
C030
C030
C030
C030
C030
C030
C030
C030
E070
70E0
3FC0
1F80
ENDCHAR
STARTCHAR uni0545
ENCODING 1349
SWIDTH 716 0
DWIDTH 15 0
BBX 12 15 1 0
BITMAP
1F80
3FC0
70E0
6060
0060
00E0
FFC0
FFE0
0070
0030
C030
C030
6060
7FE0
1F80
ENDCHAR
STARTCHAR uni0546
ENCODING 1350
SWIDTH 708 0
DWIDTH 15 0
BBX 15 15 -1 0
BITMAP
F800
F800
1800
1800
1800
1800
1800
1800
1806
1806
1806
1C06
0E1C
07F8
03F0
ENDCHAR
STARTCHAR uni0547
ENCODING 1351
SWIDTH 699 0
DWIDTH 15 0
BBX 12 15 1 0
BITMAP
7800
7F00
0FC0
3FE0
7020
6000
C000
C000
C030
C030
C030
E070
70E0
3FC0
1F80
ENDCHAR
STARTCHAR uni0548
ENCODING 1352
SWIDTH 724 0
DWIDTH 15 0
BBX 11 15 2 0
BITMAP
1F00
7FC0
60C0
C060
C060
C060
C060
C060
C060
C060
C060
C060
C060
C060
C060
ENDCHAR
STARTCHAR uni0549
ENCODING 1353
SWIDTH 699 0
DWIDTH 15 0
BBX 12 16 1 -1
BITMAP
1F80
3FC0
70E0
E070
C030
C030
C030
0030
0030
0060
0060
20C0
3F80
1F80
03C0
0040
ENDCHAR
STARTCHAR uni054A
ENCODING 1354
SWIDTH 792 0
DWIDTH 17 0
BBX 14 15 1 0
BITMAP
0FC0
3FF0
7338
E31C
C30C
C30C
030C
030C
030C
030C
000C
000C
000C
000C
000C
ENDCHAR
STARTCHAR uni054B
ENCODING 1355
SWIDTH 738 0
DWIDTH 16 0
BBX 12 15 2 0
BITMAP
1F80
3FC0
70E0
C070
C030
C030
FC30
FF30
07A0
01E0
01C0
01C0
C700
FFF0
FFF0
ENDCHAR
STARTCHAR uni054C
ENCODING 1356
SWIDTH 764 0
DWIDTH 16 0
BBX 15 15 2 0
BITMAP
1F80
3FE0
70E0
E070
C030
C030
C030
C030
C030
C03E
C03E
C030
C030
C030
C030
ENDCHAR
STARTCHAR uni054D
ENCODING 1357
SWIDTH 724 0
DWIDTH 15 0
BBX 11 15 2 0
BITMAP
C060
C060
C060
C060
C060
C060
C060
C060
C060
C060
C060
C060
60C0
7FC0
1F00
ENDCHAR
STARTCHAR uni054E
ENCODING 1358
SWIDTH 698 0
DWIDTH 15 0
BBX 14 15 1 0
BITMAP
0060
0060
0060
0060
C060
C060
C060
C060
60E0
7FE0
1F60
0060
0060
007C
007C
ENDCHAR
STARTCHAR uni054F
ENCODING 1359
SWIDTH 659 0
DWIDTH 14 0
BBX 12 15 1 0
BITMAP
0F80
3FE0
7070
6030
6000
7000
3F00
0FC0
00E0
0030
C030
E030
7070
3FE0
1F80
ENDCHAR
STARTCHAR uni0550
ENCODING 1360
SWIDTH 678 0
DWIDTH 14 0
BBX 11 15 2 0
BITMAP
1F00
7FC0
60C0
C060
C060
C060
C060
C000
C000
C000
C000
C000
C000
C000
C000
ENDCHAR
STARTCHAR uni0551
ENCODING 1361
SWIDTH 677 0
DWIDTH 14 0
BBX 12 15 1 0
BITMAP
1F80
3FC0
70E0
6060
6060
30E0
FFC0
FFE0
0070
0030
C030
C030
6060
7FE0
1F80
ENDCHAR
STARTCHAR uni0552
ENCODING 1362
SWIDTH 515 0
DWIDTH 11 0
BBX 9 15 2 0
BITMAP
C000
C000
C000
C000
FF80
FF80
C000
C000
C000
C000
C000
C000
C000
C000
C000
ENDCHAR
STARTCHAR uni0553
ENCODING 1363
SWIDTH 761 0
DWIDTH 16 0
BBX 14 15 1 0
BITMAP
0300
0300
1FC0
3FF0
7338
E31C
C30C
C30C
C30C
E31C
7338
3FF0
1FC0
0300
0300
ENDCHAR
STARTCHAR uni0554
ENCODING 1364
SWIDTH 686 0
DWIDTH 14 0
BBX 12 15 1 0
BITMAP
0F80
1FE0
3060
6030
6030
6030
6030
7060
7FE0
6F80
6000
6000
FFF0
FFF0
6000
ENDCHAR
STARTCHAR uni0555
ENCODING 1365
SWIDTH 782 0
DWIDTH 16 0
BBX 14 15 1 0
BITMAP
0FC0
1FE0
3870
6018
E01C
C00C
C00C
C00C
C00C
C00C
E01C
6018
3870
3FE0
0FC0
ENDCHAR
STARTCHAR uni0556
ENCODING 1366
SWIDTH 762 0
DWIDTH 16 0
BBX 14 15 1 0
BITMAP
1F00
3F00
3300
3300
3FC0
1FF0
0338
031C
030C
C30C
C30C
E31C
7338
3FF0
0FC0
ENDCHAR
STARTCHAR uni0559
ENCODING 1369
SWIDTH 273 0
DWIDTH 6 0
BBX 2 5 2 10
BITMAP
C0
C0
80
80
40
ENDCHAR
STARTCHAR uni055A
ENCODING 1370
SWIDTH 222 0
DWIDTH 5 0
BBX 2 5 1 10
BITMAP
C0
C0
40
40
80
ENDCHAR
STARTCHAR uni055B
ENCODING 1371
SWIDTH 169 0
DWIDTH 4 0
BBX 4 4 -1 12
BITMAP
70
60
40
80
ENDCHAR
STARTCHAR uni055C
ENCODING 1372
SWIDTH 200 0
DWIDTH 4 0
BBX 4 4 -1 12
BITMAP
10
70
E0
80
ENDCHAR
STARTCHAR uni055D
ENCODING 1373
SWIDTH 265 0
DWIDTH 6 0
BBX 5 5 0 11
BITMAP
E0
60
70
30
18
ENDCHAR
STARTCHAR uni055E
ENCODING 1374
SWIDTH 231 0
DWIDTH 5 0
BBX 5 4 -1 12
BITMAP
70
88
98
80
ENDCHAR
STARTCHAR uni055F
ENCODING 1375
SWIDTH 513 0
DWIDTH 11 0
BBX 10 3 1 16
BITMAP
8000
8000
FFC0
ENDCHAR
STARTCHAR uni0560
ENCODING 1376
SWIDTH 832 0
DWIDTH 17 0
BBX 15 11 1 0
BITMAP
CE3C
FF7E
E3C6
E186
C186
C186
C186
C186
C186
C186
C186
ENDCHAR
STARTCHAR uni0561
ENCODING 1377
SWIDTH 832 0
DWIDTH 17 0
BBX 14 11 2 0
BITMAP
C30C
C30C
C30C
C30C
C30C
C30C
C30C
C30C
C71C
FDFC
79EC
ENDCHAR
STARTCHAR uni0562
ENCODING 1378
SWIDTH 550 0
DWIDTH 12 0
BBX 11 15 1 -4
BITMAP
CF00
FF80
E1C0
C0C0
C0C0
C0C0
C0C0
C000
C000
FFE0
FFE0
C000
C000
C000
C000
ENDCHAR
STARTCHAR uni0563
ENCODING 1379
SWIDTH 579 0
DWIDTH 12 0
BBX 11 15 1 -4
BITMAP
3D80
7F80
6380
C180
C180
C180
C180
C180
6380
7FE0
3DE0
0180
0180
0180
0180
ENDCHAR
STARTCHAR uni0564
ENCODING 1380
SWIDTH 582 0
DWIDTH 12 0
BBX 11 15 1 -4
BITMAP
CE00
FF80
E380
C180
C180
C180
C180
C180
C180
C1E0
C1E0
0180
0180
0180
0180
ENDCHAR
STARTCHAR uni0565
ENCODING 1381
SWIDTH 553 0
DWIDTH 12 0
BBX 10 15 1 0
BITMAP
C000
C000
C000
C000
FFC0
FFC0
C000
C000
C0C0
C0C0
C0C0
C0C0
E1C0
7FC0
3CC0
ENDCHAR
STARTCHAR uni0566
ENCODING 1382
SWIDTH 550 0
DWIDTH 12 0
BBX 12 15 1 -4
BITMAP
1CC0
7FC0
61C0
C0C0
C0C0
C0C0
C0C0
C0C0
61C0
7FC0
1EC0
00C0
00C0
00F0
00F0
ENDCHAR
STARTCHAR uni0567
ENCODING 1383
SWIDTH 491 0
DWIDTH 10 0
BBX 9 15 1 0
BITMAP
C000
C000
C000
C000
FF80
FF80
C000
C000
C000
C000
C000
C000
C000
FF00
FF00
ENDCHAR
STARTCHAR uni0568
ENCODING 1384
SWIDTH 550 0
DWIDTH 12 0
BBX 11 15 1 -4
BITMAP
CF00
FF80
E1C0
C0C0
C0C0
C0C0
C0C0
C0C0
C0C0
C0C0
C0C0
C000
C000
FFE0
FFE0
ENDCHAR
STARTCHAR uni0569
ENCODING 1385
SWIDTH 667 0
DWIDTH 14 0
BBX 13 15 1 -4
BITMAP
CF80
DFE0
F060
E030
C3F8
C7F8
CC30
CC30
CC70
C7E0
C3C0
C000
C000
C000
C000
ENDCHAR
STARTCHAR uni056A
ENCODING 1386
SWIDTH 579 0
DWIDTH 12 0
BBX 11 15 1 0
BITMAP
0180
0180
0180
0180
3FE0
7FE0
6180
C180
C180
C180
C180
C180
6380
7F00
3E00
ENDCHAR
STARTCHAR uni056B
ENCODING 1387
SWIDTH 550 0
DWIDTH 12 0
BBX 10 19 1 -4
BITMAP
C000
C000
C000
C000
CF00
FF80
E1C0
C0C0
C0C0
C0C0
C0C0
C0C0
C0C0
C0C0
C0C0
C000
C000
C000
C000
ENDCHAR
STARTCHAR uni056C
ENCODING 1388
SWIDTH 219 0
DWIDTH 5 0
BBX 4 15 1 -4
BITMAP
C0
C0
C0
C0
C0
C0
C0
C0
C0
C0
C0
C0
C0
F0
F0
ENDCHAR
STARTCHAR uni056D
ENCODING 1389
SWIDTH 834 0
DWIDTH 18 0
BBX 16 19 1 -4
BITMAP
C000
C000
C000
C000
DF03
FF83
E383
C183
C183
C183
C183
C183
C1C7
C1FF
C0F3
C000
C000
C000
C000
ENDCHAR
STARTCHAR uni056E
ENCODING 1390
SWIDTH 542 0
DWIDTH 11 0
BBX 9 15 1 0
BITMAP
3000
3000
7000
3800
1F80
7F80
6300
C380
C180
C180
C180
C180
6300
7F00
3E00
ENDCHAR
STARTCHAR uni056F
ENCODING 1391
SWIDTH 553 0
DWIDTH 12 0
BBX 10 19 1 -4
BITMAP
C000
C000
C000
C000
C0C0
C0C0
C0C0
C0C0
C0C0
C0C0
C0C0
C0C0
E1C0
7FC0
3CC0
00C0
00C0
00C0
00C0
ENDCHAR
STARTCHAR uni0570
ENCODING 1392
SWIDTH 550 0
DWIDTH 12 0
BBX 10 15 1 0
BITMAP
C000
C000
C000
C000
CF00
FF80
E1C0
C0C0
C0C0
C0C0
C0C0
C0C0
C0C0
C0C0
C0C0
ENDCHAR
STARTCHAR uni0571
ENCODING 1393
SWIDTH 522 0
DWIDTH 11 0
BBX 9 15 1 0
BITMAP
1800
3000
3000
1C00
1C00
3C00
3E00
6300
C180
C180
C180
C180
E380
7F80
3D80
ENDCHAR
STARTCHAR uni0572
ENCODING 1394
SWIDTH 553 0
DWIDTH 12 0
BBX 12 15 1 -4
BITMAP
CF00
FF80
E1C0
C0C0
C0C0
C0C0
C0C0
C0C0
C0C0
C0C0
C0C0
00C0
00C0
00F0
00F0
ENDCHAR
STARTCHAR uni0573
ENCODING 1395
SWIDTH 558 0
DWIDTH 12 0
BBX 10 15 1 0
BITMAP
0380
0F80
1C00
3800
FC00
FF00
6380
6180
C0C0
C0C0
C0C0
C0C0
E1C0
7FC0
3CC0
ENDCHAR
STARTCHAR uni0574
ENCODING 1396
SWIDTH 550 0
DWIDTH 12 0
BBX 12 15 1 0
BITMAP
00F0
00F0
00C0
00C0
C0C0
C0C0
C0C0
C0C0
C0C0
C0C0
C0C0
C0C0
E1C0
7FC0
3CC0
ENDCHAR
STARTCHAR uni0575
ENCODING 1397
SWIDTH 219 0
DWIDTH 5 0
BBX 4 15 0 -4
BITMAP
30
30
30
30
30
30
30
30
30
30
30
30
30
F0
E0
ENDCHAR
STARTCHAR uni0576
ENCODING 1398
SWIDTH 553 0
DWIDTH 12 0
BBX 12 15 -1 0
BITMAP
F000
F000
3000
3000
3030
3030
3030
3030
3030
3030
3030
3030
3870
1FF0
0F30
ENDCHAR
STARTCHAR uni0577
ENCODING 1399
SWIDTH 456 0
DWIDTH 10 0
BBX 9 15 0 -4
BITMAP
3E00
7F00
E380
C180
0180
0180
0300
0600
0E00
1800
3000
6000
C000
FF80
7F80
ENDCHAR
STARTCHAR uni0578
ENCODING 1400
SWIDTH 550 0
DWIDTH 12 0
BBX 10 11 1 0
BITMAP
CF00
FF80
E1C0
C0C0
C0C0
C0C0
C0C0
C0C0
C0C0
C0C0
C0C0
ENDCHAR
STARTCHAR uni0579
ENCODING 1401
SWIDTH 346 0
DWIDTH 7 0
BBX 7 15 0 -4
BITMAP
60
60
60
60
70
38
1E
0C
1C
38
30
60
C0
FE
7E
ENDCHAR
STARTCHAR uni057A
ENCODING 1402
SWIDTH 832 0
DWIDTH 17 0
BBX 14 15 2 -4
BITMAP
C30C
C30C
C30C
C30C
C30C
C30C
C30C
C30C
C71C
FDFC
79EC
000C
000C
000C
000C
ENDCHAR
STARTCHAR uni057B
ENCODING 1403
SWIDTH 517 0
DWIDTH 11 0
BBX 9 15 1 -4
BITMAP
3E00
7F00
E380
C180
C180
E180
6300
3300
3600
3800
7000
6000
C000
FF00
7F00
ENDCHAR
STARTCHAR uni057C
ENCODING 1404
SWIDTH 563 0
DWIDTH 12 0
BBX 10 11 1 0
BITMAP
CF00
FF80
E1C0
C0C0
C0C0
C0C0
C080
C180
C300
C7C0
C7C0
ENDCHAR
ENDFONT
